<svg width="180" height="43" viewBox="0 0 180 43" fill="none" xmlns="http://www.w3.org/2000/svg">
<path d="M0.00413077 36.1429C-0.0430654 35.0553 0.318772 34.0938 0.853662 33.1639C3.82702 28.0096 6.78465 22.8554 9.77374 17.7012C12.1965 13.5557 17.4353 13.5715 19.858 17.717C22.8471 22.8554 25.8362 28.0096 28.7781 33.1796C30.7131 36.5685 29.1714 40.6036 25.6474 41.6439C24.672 41.9276 23.8225 41.8488 22.9572 41.1711C20.5187 39.2638 18.0016 37.4512 15.5474 35.5597C14.9653 35.1184 14.5878 35.1341 14.0371 35.5755C11.5829 37.4669 9.0658 39.2796 6.62733 41.2026C5.79353 41.8488 4.9912 41.9434 4.063 41.6912C1.67173 41.0765 -0.0116013 38.7752 0.00413077 36.1429Z" fill="#009BC0"/>
<path d="M22.973 0.0948598C25.6946 -0.362243 26.9532 1.5765 28.1174 3.5783C31.5627 9.50487 35.0552 15.4157 38.3904 21.3895C40.7974 25.7084 43.3775 29.9326 45.7687 34.2672C47.3734 37.1675 46.0834 40.4618 43.2674 41.6597C40.8918 42.6685 37.7926 41.5651 36.5183 39.3426C32.9157 33.0851 29.2343 26.8748 25.6632 20.5857C23.1618 16.1723 20.5817 11.8061 18.096 7.39274C16.1767 3.94083 19.2917 -0.724773 22.973 0.0948598Z" fill="#132230"/>
<path d="M176.2 25.2386C174.875 27.4803 173.55 29.7345 172.213 31.9762C171.388 33.3664 170.213 33.3789 169.388 32.0263C168.063 29.8347 166.738 27.6431 165.413 25.4515C165.05 25.6268 165.225 25.9274 165.225 26.1528C165.213 28.6825 165.2 31.2123 165.225 33.7421C165.238 34.3933 165.125 34.7314 164.375 34.6438C163.488 34.5436 162.325 35.007 161.788 34.4684C161.263 33.9299 161.638 32.7652 161.638 31.8761C161.625 27.618 161.65 23.3475 161.613 19.0895C161.613 18.4007 161.788 18.2755 162.475 18.2003C164.15 17.9999 165.163 18.5384 165.963 20.1164C167.238 22.6337 168.813 24.9881 170.263 27.4177C170.425 27.6932 170.613 27.9562 170.863 28.3194C172.663 25.2636 174.4 22.283 176.162 19.3274C176.387 18.9392 176.475 18.313 176.962 18.2629C177.887 18.1753 178.825 18.2128 179.75 18.2629C180.062 18.2755 179.962 18.6261 179.962 18.839C179.975 23.8985 179.987 28.9581 180 34.0301C180 34.4183 179.95 34.6062 179.475 34.6438C176.425 34.8942 176.412 34.9068 176.412 31.8886C176.4 29.697 176.412 27.5053 176.412 25.3137C176.35 25.3012 176.275 25.2761 176.2 25.2386Z" fill="white"/>
<path d="M69.5105 34.6213C68.2356 34.6213 67.0856 34.6087 65.9231 34.6213C65.5981 34.6213 65.4356 34.496 65.3606 34.1955C65.3357 34.0953 65.2857 34.0076 65.2357 33.9199C64.8482 33.0057 64.6857 31.8035 63.9982 31.2649C63.2607 30.6763 62.0107 31.1021 60.9983 31.0896C59.7358 31.0646 58.4733 31.1021 57.2109 31.0771C56.7359 31.0646 56.4984 31.2399 56.3234 31.6782C55.9359 32.6551 55.7359 34.1203 55.0234 34.4585C54.0235 34.9344 52.6235 34.5837 51.3735 34.5837C51.236 34.3207 51.461 34.1203 51.5485 33.9074C53.7485 28.923 55.9609 23.9512 58.1483 18.9668C58.3733 18.4533 58.6108 18.1778 59.2233 18.2279C60.2108 18.303 61.4233 17.9399 62.1357 18.3907C62.8357 18.8416 63.0607 20.0814 63.4607 20.9831C65.3357 25.2035 67.2106 29.424 69.0856 33.6319C69.2355 33.9199 69.348 34.2205 69.5105 34.6213ZM57.8234 28.1967C59.5358 28.1967 61.1608 28.1967 62.8982 28.1967C62.0482 26.1428 61.2358 24.1516 60.3608 22.0225C59.4608 24.1766 58.6483 26.1679 57.8234 28.1967Z" fill="white"/>
<path d="M100.348 23.5577C100.348 22.0299 100.373 20.4895 100.335 18.9616C100.323 18.398 100.485 18.2102 101.048 18.2477C102.035 18.3104 103.335 17.9221 103.935 18.4105C104.56 18.924 104.11 20.2766 104.123 21.2659C104.148 23.1946 104.123 25.1357 104.135 27.0643C104.135 27.6279 104.198 28.1915 104.298 28.755C104.623 30.6461 105.76 31.6104 107.648 31.6605C109.585 31.7106 110.748 30.7838 111.198 28.8677C111.448 27.8158 111.335 26.7513 111.335 25.6867C111.36 23.4826 111.36 21.291 111.323 19.0868C111.31 18.4606 111.448 18.1976 112.135 18.2477C113.085 18.3229 114.347 17.9347 114.922 18.4231C115.535 18.924 115.085 20.2265 115.097 21.1783C115.122 23.4075 115.122 25.6367 115.097 27.8784C115.035 32.174 112.36 34.8039 108.06 34.8665C107.098 34.879 106.135 34.829 105.198 34.5785C102.273 33.7895 100.473 31.4726 100.36 28.2541C100.298 26.6886 100.348 25.1232 100.348 23.5577Z" fill="white"/>
<path d="M158.803 23.952C158.703 25.4798 158.99 27.3584 158.64 29.2119C158.028 32.4555 155.99 34.3591 152.716 34.7222C151.753 34.8349 150.791 34.8475 149.828 34.6847C146.191 34.0585 144.103 31.654 144.053 27.9345C144.003 24.9038 144.053 21.873 144.028 18.8423C144.028 18.3414 144.141 18.1285 144.678 18.1661C145.478 18.2162 146.278 18.2162 147.066 18.1661C147.678 18.1285 147.853 18.2913 147.841 18.93C147.803 21.56 147.816 24.1899 147.828 26.8199C147.828 27.421 147.878 28.0221 147.978 28.6107C148.316 30.5644 149.453 31.5412 151.366 31.5788C153.303 31.6164 154.441 30.6896 154.891 28.7485C155.016 28.1849 155.028 27.6214 155.028 27.0578C155.028 24.3652 155.041 21.6601 155.016 18.9676C155.016 18.3915 155.103 18.116 155.766 18.1661C156.553 18.2287 157.365 18.2162 158.153 18.1661C158.69 18.141 158.815 18.3289 158.815 18.8423C158.79 20.4328 158.803 22.0359 158.803 23.952Z" fill="white"/>
<path d="M117.809 18.1739C119.084 18.1739 120.271 18.1989 121.446 18.1614C122.021 18.1363 122.059 18.5496 122.209 18.9003C123.596 22.1689 124.983 25.4376 126.371 28.7062C126.496 29.0068 126.633 29.2948 126.846 29.7707C127.996 27.1032 129.071 24.5985 130.158 22.0938C130.646 20.9666 131.133 19.8395 131.596 18.6999C131.758 18.3116 131.958 18.1488 132.396 18.1614C133.421 18.1989 134.458 18.1739 135.483 18.1739C135.621 18.5371 135.383 18.775 135.271 19.038C133.171 23.9473 131.046 28.8565 128.958 33.7783C128.696 34.3794 128.421 34.6674 127.721 34.6048C126.771 34.5172 125.583 34.8803 124.908 34.442C124.234 33.9912 124.034 32.7889 123.659 31.9122C121.859 27.7294 120.071 23.559 118.284 19.3762C118.134 18.9879 117.996 18.6247 117.809 18.1739Z" fill="white"/>
<path d="M71.7532 26.4507C71.7532 23.9585 71.7657 21.4538 71.7407 18.9616C71.7282 18.398 71.8782 18.2102 72.4532 18.2477C73.4407 18.3104 74.7406 17.9221 75.3406 18.4106C75.9781 18.924 75.5281 20.2766 75.5281 21.2659C75.5531 24.3968 75.5656 27.5277 75.5156 30.6586C75.5031 31.4476 75.7531 31.5854 76.4656 31.5728C78.628 31.5227 80.7905 31.5728 82.9404 31.5478C83.5404 31.5353 83.7279 31.6855 83.7404 32.3117C83.7529 34.6912 83.7779 34.6912 81.403 34.6912C78.5155 34.6912 75.6156 34.6536 72.7282 34.7162C71.8532 34.7413 71.7032 34.4658 71.7282 33.6643C71.7907 31.2472 71.7532 28.8552 71.7532 26.4507Z" fill="white"/>
<path d="M86.0655 26.4507C86.0655 23.9835 86.0905 21.5289 86.053 19.0618C86.0405 18.4105 86.2155 18.1976 86.8655 18.2477C87.8155 18.3104 89.1155 17.9221 89.6529 18.4106C90.2779 18.9616 89.8404 20.2891 89.8404 21.2659C89.8654 24.3592 89.8904 27.4651 89.8279 30.5584C89.8154 31.4351 90.0779 31.5854 90.8779 31.5603C93.0028 31.4977 95.1278 31.5603 97.2527 31.5227C97.8527 31.5102 98.0402 31.6605 98.0402 32.2992C98.0527 34.6787 98.0777 34.6787 95.7028 34.6787C92.8403 34.6787 89.9904 34.6286 87.128 34.7037C86.1655 34.7288 86.0155 34.4032 86.028 33.5516C86.103 31.1846 86.0655 28.8176 86.0655 26.4507Z" fill="white"/>
<path d="M141.569 26.467C141.569 28.9591 141.557 31.4639 141.582 33.9561C141.582 34.5071 141.457 34.7325 140.882 34.6824C139.869 34.5822 138.545 35.0957 137.932 34.4695C137.445 33.9686 137.795 32.6411 137.782 31.6768C137.782 27.4814 137.795 23.286 137.77 19.0906C137.77 18.4644 137.895 18.1889 138.582 18.264C139.557 18.3642 140.882 17.8507 141.432 18.4769C141.919 19.0154 141.569 20.3054 141.582 21.2697C141.582 22.9979 141.569 24.7262 141.569 26.467Z" fill="white"/>
</svg>
