<svg width="150" height="30" viewBox="0 0 150 30" fill="none" xmlns="http://www.w3.org/2000/svg">
<path d="M0.00285521 24.9822C-0.029767 24.2304 0.220337 23.5658 0.590056 22.923C2.64526 19.3604 4.68959 15.7978 6.75566 12.2351C8.43027 9.36977 12.0513 9.38067 13.726 12.246C15.792 15.7978 17.8581 19.3604 19.8916 22.9339C21.2291 25.2763 20.1634 28.0654 17.7276 28.7845C17.0534 28.9806 16.4662 28.9261 15.8681 28.4576C14.1827 27.1393 12.4428 25.8864 10.7465 24.579C10.3441 24.274 10.0831 24.2849 9.70254 24.5899C8.00618 25.8973 6.26633 27.1502 4.58084 28.4794C4.00452 28.9261 3.44994 28.9915 2.80837 28.8172C1.15551 28.3923 -0.00801888 26.8016 0.00285521 24.9822Z" fill="#009BC0"/>
<path d="M15.8789 0.0655676C17.7601 -0.250384 18.6301 1.08969 19.4348 2.47334C21.8162 6.56982 24.2302 10.6554 26.5355 14.7846C28.1993 17.7698 29.9826 20.6896 31.6355 23.6857C32.7446 25.6903 31.853 27.9674 29.9065 28.7954C28.2645 29.4927 26.1223 28.73 25.2415 27.1938C22.7513 22.8686 20.2068 18.576 17.7384 14.2289C16.0094 11.1784 14.2261 8.16047 12.508 5.1099C11.1813 2.72392 13.3344 -0.500967 15.8789 0.0655676Z" fill="#132230"/>
<path d="M146.694 17.443C145.542 19.3932 144.389 21.3543 143.225 23.3045C142.508 24.5138 141.486 24.5247 140.768 23.3481C139.615 21.4415 138.463 19.5349 137.31 17.6282C136.995 17.7808 137.147 18.0423 137.147 18.2384C137.136 20.4391 137.125 22.6399 137.147 24.8407C137.158 25.4072 137.06 25.7014 136.407 25.6251C135.635 25.5379 134.624 25.941 134.156 25.4726C133.7 25.0041 134.026 23.9909 134.026 23.2173C134.015 19.5131 134.037 15.7979 134.004 12.0936C134.004 11.4944 134.156 11.3855 134.755 11.3201C136.212 11.1458 137.092 11.6143 137.788 12.987C138.898 15.1769 140.268 17.2251 141.529 19.3387C141.67 19.5784 141.834 19.8072 142.051 20.1232C143.617 17.4648 145.128 14.8718 146.662 12.3006C146.857 11.9629 146.933 11.4182 147.358 11.3746C148.162 11.2983 148.978 11.331 149.783 11.3746C150.054 11.3855 149.967 11.6905 149.967 11.8757C149.978 16.2773 149.989 20.6788 150 25.0912C150 25.429 149.956 25.5924 149.543 25.6251C146.89 25.843 146.879 25.8539 146.879 23.2282C146.868 21.3216 146.879 19.415 146.879 17.5084C146.825 17.4975 146.76 17.4757 146.694 17.443Z" fill="#FCFCFC"/>
<path d="M51.2958 25.625C50.1867 25.625 49.1863 25.6142 48.175 25.625C47.8922 25.625 47.7509 25.5161 47.6856 25.2546C47.6639 25.1675 47.6204 25.0912 47.5769 25.0149C47.2398 24.2196 47.0984 23.1737 46.5004 22.7052C45.8588 22.1932 44.7714 22.5636 43.8906 22.5527C42.7923 22.5309 41.694 22.5636 40.5957 22.5418C40.1825 22.5309 39.9759 22.6834 39.8237 23.0648C39.4866 23.9146 39.3126 25.1893 38.6928 25.4834C37.8228 25.8974 36.6049 25.5924 35.5175 25.5924C35.3979 25.3636 35.5937 25.1893 35.6698 25.004C37.5836 20.6679 39.5083 16.3426 41.4113 12.0064C41.607 11.5598 41.8136 11.3201 42.3465 11.3636C43.2055 11.429 44.2603 11.1131 44.8801 11.5053C45.4891 11.8975 45.6848 12.9761 46.0328 13.7605C47.6639 17.4321 49.295 21.1037 50.9261 24.7644C51.0566 25.0149 51.1545 25.2764 51.2958 25.625ZM41.1286 20.036C42.6183 20.036 44.0319 20.036 45.5434 20.036C44.804 18.2492 44.0972 16.5169 43.336 14.6648C42.5531 16.5387 41.8463 18.271 41.1286 20.036Z" fill="#FCFCFC"/>
<path d="M78.481 15.9721C78.481 14.643 78.5028 13.3029 78.4701 11.9737C78.4593 11.4834 78.6006 11.32 79.09 11.3527C79.949 11.4072 81.0799 11.0694 81.6019 11.4943C82.1456 11.941 81.7541 13.1177 81.765 13.9784C81.7867 15.6562 81.765 17.3449 81.7759 19.0227C81.7759 19.513 81.8302 20.0032 81.9172 20.4935C82.2 22.1386 83.1895 22.9775 84.8315 23.0211C86.517 23.0647 87.5282 22.2585 87.9197 20.5916C88.1372 19.6764 88.0393 18.7503 88.0393 17.8243C88.0611 15.9068 88.0611 14.0002 88.0285 12.0827C88.0176 11.5379 88.1372 11.3091 88.7353 11.3527C89.5617 11.4181 90.66 11.0803 91.1602 11.5052C91.693 11.941 91.3016 13.0741 91.3124 13.9021C91.3342 15.8414 91.3342 17.7807 91.3124 19.7309C91.2581 23.4678 88.931 25.7557 85.1903 25.8102C84.353 25.8211 83.5157 25.7775 82.7002 25.5596C80.1556 24.8733 78.5898 22.8577 78.4919 20.0577C78.4375 18.6959 78.481 17.334 78.481 15.9721Z" fill="#FCFCFC"/>
<path d="M130.22 16.386C130.133 17.7152 130.383 19.3494 130.079 20.9619C129.546 23.7836 127.773 25.4397 124.924 25.7556C124.087 25.8537 123.25 25.8646 122.413 25.7229C119.248 25.1782 117.432 23.0864 117.389 19.8506C117.345 17.214 117.389 14.5775 117.367 11.9409C117.367 11.5051 117.465 11.3199 117.932 11.3526C118.628 11.3962 119.324 11.3962 120.009 11.3526C120.542 11.3199 120.694 11.4615 120.684 12.0172C120.651 14.3051 120.662 16.593 120.673 18.8809C120.673 19.4039 120.716 19.9268 120.803 20.4389C121.097 22.1385 122.086 22.9883 123.75 23.021C125.436 23.0537 126.425 22.2475 126.817 20.5588C126.925 20.0685 126.936 19.5782 126.936 19.0879C126.936 16.7455 126.947 14.3922 126.925 12.0498C126.925 11.5487 127.001 11.309 127.578 11.3526C128.263 11.407 128.97 11.3962 129.655 11.3526C130.122 11.3308 130.231 11.4942 130.231 11.9409C130.209 13.3245 130.22 14.7191 130.22 16.386Z" fill="#FCFCFC"/>
<path d="M93.0632 11.3636C94.1724 11.3636 95.2054 11.3854 96.2276 11.3528C96.7278 11.331 96.7604 11.6905 96.8909 11.9955C98.0979 14.8391 99.3049 17.6827 100.512 20.5262C100.621 20.7877 100.74 21.0383 100.925 21.4523C101.926 19.1317 102.861 16.9527 103.807 14.7737C104.231 13.7932 104.655 12.8127 105.057 11.8212C105.199 11.4835 105.373 11.3419 105.753 11.3528C106.645 11.3854 107.547 11.3636 108.439 11.3636C108.559 11.6796 108.352 11.8866 108.254 12.1154C106.427 16.3862 104.579 20.657 102.763 24.9387C102.535 25.4616 102.295 25.7122 101.686 25.6577C100.86 25.5815 99.8269 25.8974 99.2397 25.5161C98.6525 25.1239 98.4785 24.078 98.1523 23.3153C96.5864 19.6764 95.0314 16.0484 93.4764 12.4096C93.3459 12.0718 93.2263 11.7559 93.0632 11.3636Z" fill="#FCFCFC"/>
<path d="M53.2967 18.4889C53.2967 16.3208 53.3076 14.1418 53.2858 11.9737C53.2749 11.4834 53.4054 11.32 53.9056 11.3527C54.7647 11.4072 55.8956 11.0694 56.4176 11.4943C56.9721 11.941 56.5807 13.1177 56.5807 13.9784C56.6024 16.7021 56.6133 19.4258 56.5698 22.1495C56.5589 22.8359 56.7764 22.9558 57.3962 22.9449C59.2774 22.9013 61.1587 22.9449 63.029 22.9231C63.551 22.9122 63.7141 23.0429 63.7249 23.5877C63.7358 25.6577 63.7576 25.6577 61.6915 25.6577C59.1796 25.6577 56.6568 25.625 54.1449 25.6795C53.3837 25.7013 53.2532 25.4616 53.2749 24.7643C53.3293 22.6616 53.2967 20.5807 53.2967 18.4889Z" fill="#FCFCFC"/>
<path d="M65.976 18.4889C65.976 16.3426 65.9977 14.2072 65.9651 12.0609C65.9542 11.4943 66.1065 11.3091 66.6719 11.3527C67.4983 11.4072 68.6292 11.0694 69.0968 11.4943C69.6405 11.9737 69.2599 13.1286 69.2599 13.9784C69.2817 16.6694 69.3034 19.3713 69.2491 22.0624C69.2382 22.825 69.4665 22.9558 70.1625 22.934C72.0111 22.8795 73.8597 22.934 75.7083 22.9013C76.2302 22.8904 76.3933 23.0211 76.3933 23.5768C76.4042 25.6468 76.426 25.6468 74.3599 25.6468C71.8697 25.6468 69.3904 25.6032 66.9003 25.6686C66.063 25.6904 65.9325 25.4071 65.9433 24.6663C66.0086 22.6071 65.976 20.548 65.976 18.4889Z" fill="#FCFCFC"/>
<path d="M113.724 18.489C113.724 20.6571 113.713 22.836 113.735 25.0041C113.735 25.4835 113.626 25.6796 113.126 25.636C112.245 25.5489 111.093 25.9956 110.56 25.4508C110.136 25.015 110.44 23.8602 110.429 23.0212C110.429 19.3715 110.44 15.7217 110.418 12.0719C110.418 11.5271 110.527 11.2875 111.125 11.3528C111.973 11.44 113.126 10.9933 113.605 11.538C114.029 12.0065 113.724 13.1287 113.735 13.9676C113.735 15.4711 113.724 16.9746 113.724 18.489Z" fill="#FCFCFC"/>
</svg>
