<svg width="150" height="30" viewBox="0 0 150 30" fill="none" xmlns="http://www.w3.org/2000/svg">
<path d="M0.00285521 24.9822C-0.029767 24.2304 0.220337 23.5658 0.590056 22.923C2.64526 19.3604 4.68959 15.7978 6.75566 12.2351C8.43027 9.36977 12.0513 9.38067 13.726 12.246C15.792 15.7978 17.8581 19.3604 19.8916 22.9339C21.2291 25.2763 20.1634 28.0654 17.7276 28.7845C17.0534 28.9806 16.4662 28.9261 15.8681 28.4576C14.1827 27.1393 12.4428 25.8864 10.7465 24.579C10.3441 24.274 10.0831 24.2849 9.70254 24.5899C8.00618 25.8973 6.26633 27.1502 4.58084 28.4794C4.00452 28.9261 3.44994 28.9915 2.80837 28.8172C1.15551 28.3923 -0.00801888 26.8016 0.00285521 24.9822Z" fill="#009BC0"/>
<path d="M15.8785 0.0655676C17.7597 -0.250384 18.6296 1.08969 19.4343 2.47334C21.8158 6.56982 24.2298 10.6554 26.5351 14.7846C28.1988 17.7698 29.9822 20.6896 31.635 23.6857C32.7442 25.6903 31.8525 27.9674 29.9061 28.7954C28.2641 29.4927 26.1219 28.73 25.2411 27.1938C22.7509 22.8686 20.2064 18.576 17.738 14.2289C16.009 11.1784 14.2256 8.16047 12.5075 5.1099C11.1809 2.72392 13.334 -0.500967 15.8785 0.0655676Z" fill="#1B3854"/>
<path d="M146.694 17.443C145.542 19.3932 144.389 21.3543 143.225 23.3045C142.508 24.5138 141.486 24.5247 140.768 23.3481C139.615 21.4415 138.463 19.5349 137.31 17.6282C136.995 17.7808 137.147 18.0423 137.147 18.2384C137.136 20.4391 137.125 22.6399 137.147 24.8407C137.158 25.4072 137.06 25.7014 136.407 25.6251C135.635 25.5379 134.624 25.941 134.156 25.4726C133.7 25.0041 134.026 23.9909 134.026 23.2173C134.015 19.5131 134.037 15.7979 134.004 12.0936C134.004 11.4944 134.156 11.3855 134.755 11.3201C136.212 11.1458 137.092 11.6143 137.788 12.987C138.898 15.1769 140.268 17.2251 141.529 19.3387C141.67 19.5784 141.834 19.8072 142.051 20.1232C143.617 17.4648 145.128 14.8718 146.662 12.3006C146.857 11.9629 146.933 11.4182 147.358 11.3746C148.162 11.2983 148.978 11.331 149.783 11.3746C150.054 11.3855 149.967 11.6905 149.967 11.8757C149.978 16.2773 149.989 20.6788 150 25.0912C150 25.429 149.956 25.5924 149.543 25.6251C146.89 25.843 146.879 25.8539 146.879 23.2282C146.868 21.3216 146.879 19.415 146.879 17.5084C146.825 17.4975 146.76 17.4757 146.694 17.443Z" fill="#1B3854"/>
<path d="M51.2956 25.625C50.1864 25.625 49.186 25.6142 48.1747 25.625C47.892 25.625 47.7506 25.5161 47.6854 25.2546C47.6636 25.1675 47.6201 25.0912 47.5767 25.0149C47.2396 24.2196 47.0982 23.1737 46.5001 22.7052C45.8585 22.1932 44.7711 22.5636 43.8903 22.5527C42.7921 22.5309 41.6938 22.5636 40.5955 22.5418C40.1823 22.5309 39.9757 22.6834 39.8234 23.0648C39.4863 23.9146 39.3124 25.1893 38.6925 25.4834C37.8226 25.8974 36.6047 25.5924 35.5173 25.5924C35.3977 25.3636 35.5934 25.1893 35.6695 25.004C37.5834 20.6679 39.5081 16.3426 41.411 12.0064C41.6068 11.5598 41.8134 11.3201 42.3462 11.3636C43.2053 11.429 44.2601 11.1131 44.8799 11.5053C45.4888 11.8975 45.6846 12.9761 46.0325 13.7605C47.6636 17.4321 49.2948 21.1037 50.9259 24.7644C51.0564 25.0149 51.1542 25.2764 51.2956 25.625ZM41.1283 20.036C42.6181 20.036 44.0317 20.036 45.5432 20.036C44.8038 18.2492 44.0969 16.5169 43.3358 14.6648C42.5528 16.5387 41.846 18.271 41.1283 20.036Z" fill="#1B3854"/>
<path d="M78.4813 15.9721C78.4813 14.643 78.5031 13.3029 78.4704 11.9737C78.4596 11.4834 78.6009 11.32 79.0903 11.3527C79.9493 11.4072 81.0802 11.0694 81.6022 11.4943C82.1459 11.941 81.7544 13.1177 81.7653 13.9784C81.787 15.6562 81.7653 17.3449 81.7762 19.0227C81.7762 19.513 81.8305 20.0032 81.9175 20.4935C82.2003 22.1386 83.1898 22.9775 84.8318 23.0211C86.5173 23.0647 87.5286 22.2585 87.92 20.5916C88.1375 19.6764 88.0396 18.7503 88.0396 17.8243C88.0614 15.9068 88.0614 14.0002 88.0288 12.0827C88.0179 11.5379 88.1375 11.3091 88.7356 11.3527C89.562 11.4181 90.6603 11.0803 91.1605 11.5052C91.6933 11.941 91.3019 13.0741 91.3127 13.9021C91.3345 15.8414 91.3345 17.7807 91.3127 19.7309C91.2584 23.4678 88.9313 25.7557 85.1906 25.8102C84.3533 25.8211 83.516 25.7775 82.7005 25.5596C80.1559 24.8733 78.5901 22.8577 78.4922 20.0577C78.4378 18.6959 78.4813 17.334 78.4813 15.9721Z" fill="#1B3854"/>
<path d="M130.22 16.386C130.133 17.7152 130.383 19.3494 130.079 20.9619C129.546 23.7836 127.774 25.4397 124.925 25.7556C124.087 25.8537 123.25 25.8646 122.413 25.7229C119.248 25.1782 117.432 23.0864 117.389 19.8506C117.345 17.214 117.389 14.5775 117.367 11.9409C117.367 11.5051 117.465 11.3199 117.933 11.3526C118.629 11.3962 119.325 11.3962 120.01 11.3526C120.542 11.3199 120.695 11.4615 120.684 12.0172C120.651 14.3051 120.662 16.593 120.673 18.8809C120.673 19.4039 120.716 19.9268 120.803 20.4389C121.097 22.1385 122.087 22.9883 123.75 23.021C125.436 23.0537 126.425 22.2475 126.817 20.5588C126.926 20.0685 126.936 19.5782 126.936 19.0879C126.936 16.7455 126.947 14.3922 126.926 12.0498C126.926 11.5487 127.002 11.309 127.578 11.3526C128.263 11.407 128.97 11.3962 129.655 11.3526C130.122 11.3308 130.231 11.4942 130.231 11.9409C130.209 13.3245 130.22 14.7191 130.22 16.386Z" fill="#1B3854"/>
<path d="M93.0635 11.3636C94.1726 11.3636 95.2057 11.3854 96.2278 11.3528C96.728 11.331 96.7607 11.6905 96.8912 11.9955C98.0982 14.8391 99.3052 17.6827 100.512 20.5262C100.621 20.7877 100.741 21.0383 100.925 21.4523C101.926 19.1317 102.861 16.9527 103.807 14.7737C104.231 13.7932 104.655 12.8127 105.058 11.8212C105.199 11.4835 105.373 11.3419 105.754 11.3528C106.645 11.3854 107.548 11.3636 108.439 11.3636C108.559 11.6796 108.352 11.8866 108.255 12.1154C106.428 16.3862 104.579 20.657 102.763 24.9387C102.535 25.4616 102.296 25.7122 101.687 25.6577C100.86 25.5815 99.8272 25.8974 99.24 25.5161C98.6528 25.1239 98.4788 24.078 98.1526 23.3153C96.5867 19.6764 95.0317 16.0484 93.4767 12.4096C93.3462 12.0718 93.2266 11.7559 93.0635 11.3636Z" fill="#1B3854"/>
<path d="M53.2964 18.4889C53.2964 16.3208 53.3073 14.1418 53.2855 11.9737C53.2746 11.4834 53.4051 11.32 53.9053 11.3527C54.7644 11.4072 55.8953 11.0694 56.4173 11.4943C56.9718 11.941 56.5804 13.1177 56.5804 13.9784C56.6021 16.7021 56.613 19.4258 56.5695 22.1495C56.5586 22.8359 56.7761 22.9558 57.3959 22.9449C59.2771 22.9013 61.1584 22.9449 63.0287 22.9231C63.5507 22.9122 63.7138 23.0429 63.7246 23.5877C63.7355 25.6577 63.7573 25.6577 61.6912 25.6577C59.1793 25.6577 56.6565 25.625 54.1446 25.6795C53.3834 25.7013 53.2529 25.4616 53.2746 24.7643C53.329 22.6616 53.2964 20.5807 53.2964 18.4889Z" fill="#1B3854"/>
<path d="M65.9756 18.4889C65.9756 16.3426 65.9974 14.2072 65.9647 12.0609C65.9539 11.4943 66.1061 11.3091 66.6715 11.3527C67.498 11.4072 68.6289 11.0694 69.0965 11.4943C69.6402 11.9737 69.2596 13.1286 69.2596 13.9784C69.2813 16.6694 69.3031 19.3713 69.2487 22.0624C69.2378 22.825 69.4662 22.9558 70.1621 22.934C72.0107 22.8795 73.8593 22.934 75.7079 22.9013C76.2299 22.8904 76.393 23.0211 76.393 23.5768C76.4039 25.6468 76.4256 25.6468 74.3595 25.6468C71.8694 25.6468 69.3901 25.6032 66.8999 25.6686C66.0626 25.6904 65.9321 25.4071 65.943 24.6663C66.0082 22.6071 65.9756 20.548 65.9756 18.4889Z" fill="#1B3854"/>
<path d="M113.725 18.489C113.725 20.6571 113.714 22.836 113.735 25.0041C113.735 25.4835 113.627 25.6796 113.126 25.636C112.246 25.5489 111.093 25.9956 110.56 25.4508C110.136 25.015 110.441 23.8602 110.43 23.0212C110.43 19.3715 110.441 15.7217 110.419 12.0719C110.419 11.5271 110.528 11.2875 111.126 11.3528C111.974 11.44 113.126 10.9933 113.605 11.538C114.029 12.0065 113.725 13.1287 113.735 13.9676C113.735 15.4711 113.725 16.9746 113.725 18.489Z" fill="#1B3854"/>
</svg>
