<svg width="390" height="355" viewBox="0 0 390 355" fill="none" xmlns="http://www.w3.org/2000/svg">
<g clip-path="url(#clip0_7_878)">
<path d="M390 177.107C390.04 201.779 384.9 226.184 374.913 248.744C374.59 249.473 374.263 250.197 373.932 250.917C373.769 251.28 373.601 251.637 373.433 251.999C373.265 252.357 373.097 252.719 372.925 253.077C372.704 253.541 372.483 254 372.258 254.46C371.98 255.038 371.697 255.612 371.406 256.186C371.37 256.266 371.331 256.345 371.287 256.425C371.044 256.911 370.801 257.397 370.549 257.882C370.496 257.988 370.443 258.094 370.386 258.196C370.098 258.761 369.803 259.327 369.502 259.888V259.892C369.184 260.488 368.865 261.083 368.544 261.676C367.749 263.143 366.932 264.596 366.093 266.036C365.841 266.464 365.594 266.892 365.337 267.316C365.103 267.714 364.869 268.107 364.631 268.5C364.467 268.774 364.304 269.043 364.136 269.313C363.871 269.75 363.602 270.187 363.328 270.624C363.323 270.629 363.323 270.629 363.323 270.633C362.718 271.605 362.1 272.572 361.477 273.531H361.473C361.186 273.977 360.894 274.418 360.603 274.86V274.864C359.724 276.189 358.827 277.501 357.913 278.8V278.804C357.91 278.804 357.906 278.806 357.904 278.808V278.813L357.895 278.822C357.171 279.86 356.432 280.889 355.678 281.909V281.913C355.197 282.567 354.711 283.221 354.221 283.865C353.819 284.395 353.412 284.924 353.002 285.451C352.918 285.566 352.829 285.676 352.737 285.791V285.796C352.626 285.941 352.516 286.083 352.397 286.228V286.233C350.652 288.463 348.855 290.649 347.004 292.791H347C346.902 292.911 346.801 293.026 346.699 293.14C346.602 293.255 346.496 293.37 346.394 293.489H346.39C346.235 293.67 346.076 293.851 345.917 294.033C345.763 294.214 345.599 294.395 345.436 294.576V294.58C335.79 305.463 324.843 315.12 312.841 323.332C311.243 324.432 309.623 325.502 307.983 326.543C307.577 326.804 307.17 327.06 306.76 327.316C306.636 327.4 306.512 327.475 306.389 327.55C306.172 327.687 305.951 327.824 305.731 327.961C305.514 328.094 305.293 328.23 305.073 328.363C304.194 328.902 303.306 329.432 302.418 329.953C302.197 330.085 301.972 330.214 301.747 330.346C301.526 330.474 301.301 330.602 301.075 330.73C301.072 330.735 301.069 330.739 301.064 330.742C301.059 330.745 301.054 330.747 301.049 330.748L301.04 330.752L301.031 330.761H301.027C299.914 331.402 298.796 332.033 297.666 332.643C295.643 333.747 293.6 334.811 291.536 335.836C291.023 336.092 290.507 336.344 289.99 336.596C289.561 336.803 289.128 337.011 288.7 337.214C288.581 337.271 288.466 337.329 288.347 337.382C287.989 337.55 287.631 337.717 287.274 337.881C286.885 338.066 286.492 338.243 286.103 338.42C285.666 338.618 285.233 338.813 284.796 339.007C283.153 339.74 281.492 340.447 279.827 341.127C273.879 343.563 267.799 345.665 261.617 347.425C261.33 347.509 261.039 347.593 260.747 347.672C258.102 348.414 255.437 349.093 252.753 349.709C248.067 350.786 243.338 351.671 238.567 352.363C238.558 352.363 238.545 352.367 238.536 352.367C237.966 352.451 237.392 352.531 236.822 352.61C236.774 352.619 236.721 352.628 236.668 352.632C236.663 352.637 236.659 352.637 236.65 352.632C236.65 352.632 236.65 352.637 236.646 352.632C236.014 352.716 235.383 352.8 234.747 352.88C234.702 352.888 234.658 352.893 234.614 352.897C234.022 352.968 233.426 353.039 232.83 353.105C232.189 353.176 231.549 353.242 230.904 353.308C230.414 353.357 229.924 353.405 229.433 353.449C229.39 353.458 229.345 353.463 229.301 353.463C228.855 353.502 228.409 353.542 227.963 353.577C227.945 353.577 227.923 353.582 227.905 353.582C227.517 353.617 227.128 353.644 226.739 353.675C222.168 354.037 217.553 354.216 212.893 354.213C207.836 354.213 202.831 354.003 197.877 353.582C197.859 353.582 197.841 353.577 197.824 353.577C196.768 353.489 195.714 353.392 194.661 353.286C194.383 353.259 194.109 353.229 193.831 353.202C193.778 353.198 193.725 353.193 193.672 353.184C193.588 353.176 193.504 353.167 193.416 353.158C193.372 353.153 193.323 353.149 193.279 353.14C192.912 353.1 192.546 353.061 192.175 353.017C191.764 352.968 191.349 352.919 190.938 352.866C190.527 352.818 190.112 352.765 189.701 352.707C189.613 352.699 189.52 352.69 189.432 352.672C189.132 352.637 188.831 352.597 188.535 352.553C188.39 352.535 188.248 352.513 188.107 352.491C187.82 352.451 187.537 352.411 187.25 352.367C187.241 352.367 187.228 352.363 187.219 352.363C178.2 351.06 169.297 349.054 160.591 346.361H160.587C160.114 346.215 159.642 346.065 159.169 345.915C159.028 345.875 158.887 345.831 158.745 345.782C157.517 345.389 156.297 344.983 155.084 344.563C153.41 343.989 151.748 343.388 150.098 342.761C149.647 342.589 149.201 342.417 148.75 342.244C147.854 341.891 146.962 341.538 146.074 341.176C144.559 340.557 143.054 339.92 141.56 339.263H141.556V339.259C140.16 338.645 138.775 338.012 137.4 337.36C137.359 337.348 137.32 337.33 137.285 337.307C137.28 337.307 137.28 337.302 137.276 337.302C136.971 337.161 136.667 337.015 136.362 336.869L136.353 336.865C128.777 333.234 121.473 329.062 114.495 324.384C112.256 322.886 110.055 321.339 107.892 319.742C106.148 318.456 104.428 317.139 102.734 315.789C94.2929 309.08 86.4815 301.616 79.3962 293.489H79.3918V293.485C78.8927 292.915 78.4068 292.35 77.9122 291.776V291.771C77.8415 291.692 77.7753 291.612 77.709 291.533C77.3954 291.166 77.0907 290.804 76.7859 290.433V290.429C76.3708 289.938 75.9644 289.447 75.5669 288.953C75.4786 288.847 75.3947 288.746 75.3108 288.64H75.3064V288.635C74.9795 288.238 74.6571 287.836 74.3391 287.434C74.1757 287.235 74.0167 287.032 73.8577 286.829H73.8533V286.825C72.8905 285.61 71.9468 284.384 71.0223 283.146V283.141C70.7661 282.801 70.5143 282.461 70.267 282.116H70.2626C69.0789 280.518 67.9262 278.9 66.8044 277.263V277.258C66.3804 276.644 65.9608 276.026 65.5456 275.403C65.1305 274.78 64.7197 274.156 64.3134 273.531H64.309C63.8894 272.886 63.4743 272.238 63.0635 271.587C63.0414 271.552 63.0193 271.521 63.0017 271.49C62.5953 270.85 62.1949 270.205 61.8004 269.556C61.4824 269.039 61.1688 268.527 60.864 268.01C60.652 267.661 60.4445 267.316 60.2413 266.963C60.1662 266.844 60.1 266.725 60.0337 266.61C59.5655 265.81 59.1062 265.011 58.6469 264.207C58.1125 263.262 57.5825 262.308 57.0657 261.354C56.8537 260.961 56.6417 260.563 56.4342 260.166C56.3591 260.038 56.2928 259.91 56.2266 259.777C55.9792 259.309 55.7319 258.841 55.489 258.368C55.2461 257.9 55.0032 257.428 54.7647 256.955C54.5262 256.482 54.2877 256.01 54.0536 255.533C53.8769 255.175 53.7003 254.813 53.528 254.455C53.5101 254.425 53.4939 254.394 53.4794 254.362C53.3999 254.195 53.316 254.031 53.2409 253.863C53.2233 253.838 53.2099 253.809 53.2012 253.779C53.0201 253.408 52.8434 253.042 52.6712 252.671C52.4415 252.194 52.2207 251.712 51.9999 251.231C51.8409 250.895 51.6907 250.555 51.5361 250.215C51.3153 249.738 51.0989 249.257 50.8869 248.771C50.6616 248.272 50.4452 247.768 50.2288 247.265C50.1714 247.137 50.1184 247.013 50.0654 246.885C49.9638 246.655 49.8666 246.426 49.7694 246.196C49.5089 245.587 49.2527 244.968 49.001 244.354C48.7139 243.661 48.4341 242.966 48.1618 242.27C47.9012 241.62 47.648 240.97 47.4021 240.318L47.3094 240.079V240.075C43.4718 229.989 40.5682 219.572 38.6351 208.955V208.951C37.5329 202.889 36.7486 196.774 36.2855 190.63C36.259 190.295 36.2369 189.959 36.2148 189.623C35.9233 185.467 35.7805 181.295 35.7864 177.107C35.7864 175.247 35.8159 173.397 35.8748 171.555C37.0199 133.05 50.7457 95.9807 74.9531 66.0153C76.0175 64.6948 77.101 63.3904 78.2037 62.1022C110.684 24.0927 158.975 0 212.893 0C275.932 0 331.281 32.9348 362.661 82.5379C364.295 85.1084 365.859 87.726 367.351 90.3907C382.247 116.862 390.049 146.733 390 177.107Z" fill="#F2F2F2"/>
<path d="M298.655 316.12C298.019 317.878 297.385 319.636 296.752 321.393C296.632 321.729 296.509 322.06 296.39 322.396C294.773 326.874 293.155 331.354 291.536 335.836C291.023 336.092 290.507 336.344 289.99 336.595C289.561 336.803 289.129 337.011 288.7 337.214C288.581 337.271 288.466 337.329 288.347 337.382C287.989 337.549 287.631 337.717 287.274 337.881C286.885 338.066 286.492 338.243 286.103 338.42C285.666 338.618 285.233 338.813 284.796 339.007C284.569 338.415 284.439 337.79 284.412 337.156C284.393 336.162 284.51 335.169 284.761 334.206C285.145 332.616 285.754 331.057 286.156 329.463C286.178 329.388 286.196 329.308 286.214 329.233C287.11 325.426 286.696 321.429 285.039 317.887C284.041 315.775 282.61 313.854 281.987 311.602C281.446 309.487 281.686 307.247 282.663 305.295C283.025 304.538 283.481 303.828 284.019 303.184C284.147 303.02 284.284 302.866 284.425 302.711C285.724 301.284 287.45 300.316 289.345 299.951C292.971 299.306 296.76 301.236 298.788 304.266C299.618 305.483 300.125 306.892 300.258 308.36C300.479 311.014 299.561 313.616 298.655 316.12Z" fill="#E4E4E4"/>
<path d="M288.643 334.06C287.812 332.528 286.421 331.185 286.156 329.463C285.295 323.933 283.219 319.967 279.779 317.719C278.78 317.07 278.621 315.634 278.007 314.601C277.734 314.137 277.455 313.673 277.168 313.218C276.705 312.463 276.222 311.723 275.72 310.997C274.768 309.594 273.719 308.26 272.579 307.004C272.107 306.479 271.608 305.971 271.091 305.489L271.087 305.485C270.764 305.176 270.437 304.88 270.097 304.593C269.965 304.478 269.828 304.363 269.687 304.248L269.678 304.239C269.081 303.722 268.456 303.238 267.805 302.791C266.308 301.779 264.616 301.077 262.881 301.638C262.198 301.872 261.541 302.174 260.92 302.539C260.602 302.72 260.288 302.91 259.974 303.1C259.762 303.228 259.55 303.356 259.338 303.488C259.166 303.59 258.994 303.692 258.822 303.789C257.488 304.557 256.148 305.311 254.803 306.05C254.608 306.161 254.414 306.267 254.215 306.373H254.211C254.074 306.452 253.932 306.527 253.791 306.602C253.522 306.752 253.248 306.903 252.978 307.048C252.17 307.486 251.36 307.918 250.549 308.347C250.134 308.568 249.715 308.78 249.295 308.992C249.101 309.089 248.906 309.186 248.716 309.288H248.712C248.641 309.323 248.575 309.358 248.504 309.394C247.93 309.689 247.365 309.994 246.817 310.325C245.229 311.282 243.848 312.548 242.758 314.049C242.546 314.34 242.343 314.64 242.158 314.95C241.914 315.349 241.693 315.762 241.495 316.186C241.358 316.473 241.23 316.76 241.115 317.052V317.056C240.03 319.848 239.878 322.916 240.683 325.801V325.806C240.736 326.004 240.793 326.199 240.859 326.393C240.965 326.72 241.084 327.047 241.217 327.365C241.363 327.719 241.528 328.066 241.712 328.403V328.407C242.694 330.084 243.921 331.605 245.351 332.921L245.395 332.965C245.572 333.137 245.753 333.314 245.929 333.486C246.027 333.579 246.128 333.672 246.234 333.76C247.762 335.072 250.231 336.066 251.627 337.413C252.373 338.133 252.811 338.95 252.638 339.97C252.179 342.677 252.281 344.431 252.749 345.557C254.021 348.631 258.013 347.067 260.747 347.672C261.039 347.593 261.33 347.509 261.617 347.425C267.799 345.665 273.879 343.563 279.827 341.127C281.492 340.447 283.153 339.74 284.796 339.007C285.233 338.813 285.666 338.618 286.103 338.42C286.492 338.243 286.885 338.066 287.273 337.881C287.631 337.717 287.989 337.55 288.347 337.382C288.466 337.329 288.581 337.271 288.7 337.214C289.128 337.011 289.561 336.803 289.99 336.596C289.553 335.743 289.098 334.9 288.643 334.06Z" fill="#E4E4E4"/>
<path d="M256.329 291.181C257.257 288.378 255.98 286.528 252.696 285.546C252.583 285.445 252.447 285.373 252.3 285.337C252.153 285.302 251.999 285.303 251.853 285.343C251.707 285.382 251.572 285.457 251.463 285.562C251.353 285.666 251.271 285.797 251.225 285.941L248.357 294.439C245.357 293.671 243.157 294.197 242.679 297.164C243.863 294.142 242.749 292.246 239.419 291.437C239.31 291.33 239.177 291.251 239.03 291.208C238.883 291.166 238.728 291.162 238.579 291.195C238.43 291.229 238.292 291.3 238.178 291.402C238.063 291.503 237.977 291.632 237.926 291.776L236.039 299.43C233.742 302.89 232.614 306.995 232.821 311.143C233.027 315.291 234.557 319.264 237.186 322.479C239.815 325.694 243.405 327.982 247.429 329.008C251.454 330.034 255.701 329.744 259.549 328.18C263.396 326.616 266.641 323.86 268.808 320.317C270.975 316.774 271.95 312.63 271.59 308.492C271.23 304.355 269.554 300.441 266.807 297.326C264.061 294.211 260.388 292.057 256.329 291.181H256.329Z" fill="#E4E4E4"/>
<path d="M254.503 315.4C254.115 315.608 253.661 315.653 253.24 315.526C252.819 315.399 252.466 315.11 252.257 314.723C252.228 314.668 252.221 314.603 252.24 314.543C252.258 314.483 252.299 314.433 252.354 314.403C252.41 314.373 252.474 314.367 252.534 314.385C252.594 314.403 252.645 314.444 252.675 314.499C252.824 314.775 253.076 314.981 253.377 315.072C253.677 315.162 254.001 315.13 254.278 314.981C254.554 314.833 254.761 314.581 254.852 314.28C254.942 313.98 254.91 313.656 254.762 313.379C254.733 313.323 254.727 313.259 254.745 313.199C254.763 313.139 254.804 313.088 254.859 313.059C254.915 313.029 254.979 313.023 255.039 313.041C255.099 313.059 255.15 313.1 255.18 313.155C255.387 313.542 255.432 313.997 255.306 314.418C255.179 314.838 254.89 315.192 254.503 315.4Z" fill="white"/>
<path d="M252.767 311.916C253.69 311.421 254.283 310.732 254.093 310.377C253.902 310.023 253 310.136 252.078 310.631C251.156 311.126 250.562 311.815 250.753 312.17C250.943 312.524 251.845 312.411 252.767 311.916Z" fill="white"/>
<path d="M242.964 312.517C243.089 311.912 243.345 311.342 243.714 310.847C244.083 310.352 244.557 309.944 245.101 309.652C245.645 309.36 246.247 309.191 246.863 309.157C247.48 309.123 248.096 309.225 248.669 309.455C248.958 308.574 248.978 307.627 248.728 306.734C248.478 305.841 247.969 305.042 247.265 304.439C246.561 303.835 245.694 303.454 244.773 303.343C243.853 303.232 242.92 303.397 242.093 303.816C241.266 304.236 240.582 304.891 240.127 305.699C239.672 306.507 239.468 307.432 239.539 308.357C239.609 309.281 239.953 310.164 240.526 310.893C241.098 311.623 241.874 312.166 242.756 312.454C242.825 312.477 242.894 312.497 242.964 312.517Z" fill="white"/>
<path d="M244.365 310.815C245.255 310.815 245.977 310.093 245.977 309.202C245.977 308.311 245.255 307.589 244.365 307.589C243.474 307.589 242.752 308.311 242.752 309.202C242.752 310.093 243.474 310.815 244.365 310.815Z" fill="#3F3D56"/>
<path d="M254.128 306.713C254.252 306.108 254.508 305.538 254.877 305.043C255.247 304.548 255.72 304.14 256.264 303.848C256.808 303.556 257.41 303.387 258.027 303.353C258.643 303.319 259.26 303.421 259.833 303.651C260.121 302.77 260.141 301.823 259.891 300.93C259.641 300.037 259.132 299.238 258.428 298.635C257.724 298.031 256.857 297.65 255.937 297.539C255.016 297.428 254.083 297.593 253.256 298.013C252.429 298.432 251.745 299.087 251.29 299.895C250.836 300.703 250.631 301.628 250.702 302.553C250.773 303.477 251.116 304.36 251.689 305.089C252.262 305.819 253.038 306.362 253.919 306.65C253.988 306.673 254.058 306.694 254.128 306.713Z" fill="white"/>
<path d="M256.12 304.921C257.011 304.921 257.733 304.199 257.733 303.308C257.733 302.417 257.011 301.695 256.12 301.695C255.23 301.695 254.508 302.417 254.508 303.308C254.508 304.199 255.23 304.921 256.12 304.921Z" fill="#3F3D56"/>
<path d="M264.214 303.197L258.707 308.808L259.263 309.353L264.769 303.742L264.214 303.197Z" fill="white"/>
<path d="M265.963 305.912L259.31 310.1L259.725 310.759L266.378 306.571L265.963 305.912Z" fill="white"/>
<path d="M246.894 315.147L239.174 316.633L239.321 317.398L247.041 315.912L246.894 315.147Z" fill="white"/>
<path d="M247.637 316.364L240.469 319.592L240.789 320.302L247.957 317.074L247.637 316.364Z" fill="white"/>
<path d="M20.2957 196.579C5.19506 182.989 -3.9485 161.377 1.67068 141.854C14.3517 159.945 33.023 172.967 54.3812 178.617C62.626 180.766 72.02 182.298 77.0361 189.185C80.1572 193.47 80.882 199.133 80.1433 204.383C79.4044 209.633 77.3393 214.591 75.293 219.482L75.4013 220.801C55.4596 216.92 35.3963 210.17 20.2957 196.579Z" fill="#E6E6E6"/>
<path d="M2.09249 141.915C5.93044 158.105 14.9655 173.174 27.6432 183.988C30.3841 186.326 33.368 188.46 36.7151 189.839C39.988 191.158 43.5545 191.577 47.0439 191.051C50.3074 190.627 53.5963 189.815 56.9061 190.191C60.3947 190.588 63.3093 192.543 65.3454 195.358C67.8366 198.802 68.9418 202.935 69.8821 207.015C70.9261 211.545 71.9387 216.267 74.9295 219.969C75.2919 220.418 74.5747 220.954 74.2128 220.506C69.0094 214.065 69.7212 205.148 65.9526 198.03C64.1941 194.709 61.4241 191.898 57.6089 191.2C54.2726 190.59 50.8803 191.424 47.5797 191.883C44.114 192.364 40.761 192.248 37.4362 191.073C34.035 189.872 30.9614 187.851 28.1728 185.593C21.8874 180.426 16.4534 174.303 12.07 167.449C7.02387 159.653 3.34844 151.052 1.20275 142.017C1.07017 141.458 1.96078 141.36 2.09249 141.915L2.09249 141.915Z" fill="white"/>
<path d="M23.3369 180.691C21.2031 182.576 18.4686 183.641 15.622 183.696C12.7753 183.751 10.0018 182.792 7.7968 180.991C7.35188 180.625 7.8997 179.916 8.3452 180.283C10.3954 181.964 12.9791 182.856 15.6297 182.8C18.2804 182.743 20.8236 181.741 22.8002 179.974C23.2302 179.59 23.7645 180.309 23.3369 180.691V180.691Z" fill="white"/>
<path d="M45.4176 191.485C45.8294 185.679 44.0378 179.931 40.4001 175.388C40.0394 174.938 40.7565 174.402 41.1168 174.851C44.8934 179.586 46.7457 185.571 46.3039 191.612C46.2614 192.188 45.3753 192.057 45.4176 191.485Z" fill="white"/>
<path d="M8.1948 159.457C9.17241 158.9 9.99631 158.109 10.5925 157.154C11.1887 156.2 11.5385 155.112 11.6105 153.989C11.6457 153.413 12.5318 153.544 12.4968 154.116C12.4115 155.357 12.0237 156.557 11.3673 157.613C10.711 158.669 9.80601 159.548 8.73153 160.174C8.63519 160.241 8.51678 160.27 8.40037 160.253C8.28396 160.236 8.17829 160.176 8.10482 160.084C8.03423 159.989 8.00408 159.869 8.02093 159.752C8.03778 159.635 8.10026 159.529 8.1948 159.457Z" fill="white"/>
<path d="M64.7342 114.388C64.7225 114.748 64.7107 115.108 64.705 115.473C64.5722 120.318 64.8332 125.165 65.4854 129.967C65.5299 130.339 65.5806 130.715 65.6358 131.085C67.3304 142.638 71.1552 153.776 76.9156 163.932C79.2116 167.972 81.8115 171.831 84.6929 175.476C88.6725 180.509 93.3879 185.65 95.4127 191.532C95.6308 192.143 95.8109 192.767 95.9518 193.4L77.0021 220.566C76.928 220.606 76.8599 220.651 76.7857 220.691L76.0787 221.811C75.9169 221.633 75.753 221.445 75.5913 221.268C75.497 221.165 75.407 221.056 75.3127 220.954C75.2512 220.883 75.1899 220.813 75.1304 220.753C75.1099 220.729 75.0895 220.706 75.0751 220.687C75.0156 220.627 74.9667 220.565 74.9134 220.509C73.9942 219.463 73.0807 218.408 72.173 217.345C72.1668 217.34 72.1668 217.34 72.1648 217.33C65.2693 209.212 58.9908 200.447 54.2424 191.007C54.0996 190.723 53.9505 190.435 53.8163 190.139C51.6996 185.872 49.9351 181.439 48.5405 176.885C47.7848 174.389 47.1561 171.856 46.6566 169.296C45.3786 162.68 45.1494 155.903 45.9772 149.216C47.6295 135.884 53.5271 123.229 63.933 115.008C64.1993 114.798 64.4616 114.594 64.7342 114.388Z" fill="#E6E6E6"/>
<path d="M65.0364 114.689C58.3533 129.927 56.4948 147.398 60.1063 163.666C60.8871 167.183 61.9852 170.682 63.8274 173.799C65.6463 176.823 68.2418 179.304 71.3442 180.986C74.2053 182.612 77.3203 183.944 79.7364 186.237C82.2831 188.654 83.4332 191.969 83.3643 195.443C83.2799 199.692 81.6736 203.658 79.9679 207.482C78.0741 211.727 76.0398 216.107 76.1988 220.864C76.218 221.44 75.3226 221.436 75.3034 220.861C75.0268 212.585 80.9635 205.894 82.2399 197.942C82.8355 194.232 82.3164 190.319 79.6902 187.465C77.3937 184.969 74.1827 183.593 71.2715 181.972C68.2147 180.27 65.6075 178.158 63.6599 175.218C61.6675 172.212 60.4302 168.747 59.5629 165.266C57.6551 157.356 57.0028 149.196 57.6299 141.083C58.2943 131.821 60.5383 122.741 64.2647 114.235C64.4956 113.708 65.2657 114.166 65.0364 114.689L65.0364 114.689Z" fill="white"/>
<path d="M58.6533 158.44C55.8147 158.66 52.9902 157.864 50.6842 156.194C48.3782 154.524 46.741 152.089 46.0648 149.323C45.9299 148.763 46.7939 148.527 46.929 149.088C47.5539 151.665 49.0792 153.933 51.2297 155.484C53.3802 157.034 56.0142 157.765 58.6563 157.544C59.2305 157.497 59.2243 158.393 58.6533 158.44Z" fill="white"/>
<path d="M69.7849 180.352C73.609 175.965 75.639 170.297 75.4699 164.479C75.4527 163.903 76.3481 163.907 76.3653 164.482C76.5299 170.537 74.4055 176.431 70.4159 180.988C70.0354 181.422 69.4064 180.784 69.7849 180.352L69.7849 180.352Z" fill="white"/>
<path d="M59.3472 132.37C60.4633 132.513 61.5976 132.377 62.6483 131.974C63.6989 131.571 64.633 130.913 65.3666 130.06C65.7414 129.621 66.3701 130.26 65.9976 130.695C65.1827 131.634 64.1502 132.359 62.9904 132.807C61.8306 133.255 60.5788 133.412 59.3443 133.265C59.2268 133.261 59.1152 133.212 59.0323 133.129C58.9494 133.045 58.9014 132.933 58.8981 132.816C58.8991 132.697 58.9468 132.584 59.0309 132.5C59.115 132.417 59.2287 132.37 59.3472 132.37V132.37Z" fill="white"/>
<path d="M237.845 116.199C240.477 101.64 236.102 85.1193 224.16 76.3856C224.927 92.4568 219.986 108.282 210.209 121.06C206.421 125.975 201.696 131.046 201.88 137.249C201.994 141.108 204.102 144.692 206.869 147.385C209.636 150.078 213.036 152.011 216.396 153.914L216.922 154.722C226.672 143.594 235.212 130.759 237.845 116.199Z" fill="#E6E6E6"/>
<path d="M223.944 76.6091C229.005 87.7608 230.424 100.224 227.999 112.228C227.522 114.821 226.64 117.323 225.385 119.642C224.089 121.861 222.223 123.693 219.979 124.947C217.911 126.158 215.655 127.157 213.918 128.85C213.041 129.73 212.36 130.785 211.92 131.946C211.48 133.108 211.29 134.349 211.363 135.589C211.465 138.682 212.672 141.555 213.951 144.324C215.37 147.397 216.893 150.567 216.822 154.033C216.814 154.453 217.466 154.441 217.474 154.022C217.597 147.993 213.211 143.177 212.206 137.398C211.737 134.702 212.078 131.848 213.963 129.744C215.612 127.905 217.937 126.873 220.042 125.664C222.248 124.473 224.129 122.76 225.52 120.674C226.89 118.427 227.867 115.963 228.41 113.388C229.724 107.61 230.121 101.661 229.588 95.7595C229.016 89.0208 227.296 82.4295 224.502 76.2708C224.329 75.8897 223.772 76.2305 223.944 76.6091L223.944 76.6091Z" fill="white"/>
<path d="M229.007 108.408C231.076 108.542 233.126 107.935 234.789 106.698C236.453 105.46 237.622 103.671 238.088 101.65C238.181 101.241 237.549 101.077 237.456 101.487C237.026 103.369 235.936 105.036 234.385 106.185C232.834 107.335 230.923 107.892 228.997 107.756C228.578 107.727 228.591 108.38 229.007 108.408Z" fill="white"/>
<path d="M221.109 124.471C218.282 121.312 216.75 117.204 216.818 112.966C216.826 112.546 216.173 112.557 216.166 112.976C216.104 117.387 217.707 121.659 220.655 124.939C220.937 125.252 221.389 124.782 221.109 124.471Z" fill="white"/>
<path d="M228.255 89.4302C227.443 89.5453 226.616 89.4572 225.847 89.1736C225.078 88.89 224.392 88.4199 223.849 87.8055C223.572 87.4896 223.121 87.9602 223.396 88.2741C223.998 88.9501 224.757 89.4684 225.606 89.7836C226.455 90.0988 227.368 90.2013 228.265 90.0822C228.351 90.078 228.432 90.0415 228.491 89.9799C228.551 89.9184 228.585 89.8365 228.586 89.7508C228.584 89.6645 228.548 89.5824 228.486 89.5224C228.424 89.4623 228.341 89.4292 228.255 89.4301L228.255 89.4302Z" fill="white"/>
<path d="M175.602 88.6992C175.769 88.9014 175.937 89.1035 176.103 89.3111C178.34 92.0409 180.352 94.948 182.118 98.0036C182.258 98.2377 182.397 98.4771 182.53 98.7147C186.707 106.122 189.473 114.24 190.686 122.657C191.166 126.006 191.39 129.387 191.357 132.771C191.311 137.444 190.889 142.507 192.346 146.796C192.493 147.245 192.668 147.685 192.869 148.112L215.895 155.301C215.956 155.291 216.015 155.286 216.076 155.276L216.982 155.605C216.996 155.431 217.006 155.25 217.02 155.075C217.029 154.974 217.032 154.872 217.041 154.771C217.045 154.703 217.048 154.635 217.056 154.573C217.057 154.551 217.059 154.528 217.058 154.511C217.066 154.45 217.066 154.392 217.072 154.336C217.135 153.324 217.19 152.309 217.239 151.292C217.24 151.287 217.24 151.287 217.237 151.28C217.586 143.531 217.291 135.684 215.815 128.132C215.771 127.905 215.728 127.672 215.673 127.442C214.989 124.041 214.028 120.702 212.799 117.458C212.121 115.684 211.353 113.945 210.499 112.249C208.284 107.87 205.394 103.866 201.934 100.385C195.037 93.4462 185.997 88.7908 176.34 88.6989C176.093 88.6968 175.851 88.6961 175.602 88.6992Z" fill="#E6E6E6"/>
<path d="M175.563 89.0076C186.318 94.8644 194.954 103.961 200.245 115.006C201.426 117.363 202.228 119.892 202.622 122.499C202.923 125.052 202.536 127.638 201.5 129.99C200.578 132.202 199.378 134.358 199.01 136.756C198.84 137.986 198.931 139.238 199.279 140.431C199.627 141.623 200.222 142.728 201.027 143.674C202.971 146.083 205.665 147.65 208.352 149.091C211.336 150.69 214.461 152.304 216.491 155.114C216.737 155.454 217.25 155.053 217.005 154.713C213.473 149.825 207.071 148.621 202.789 144.612C200.792 142.741 199.345 140.257 199.584 137.442C199.793 134.981 201.028 132.757 201.981 130.525C203.026 128.246 203.496 125.745 203.352 123.242C203.092 120.623 202.388 118.068 201.271 115.685C198.842 110.28 195.578 105.291 191.599 100.9C187.085 95.8639 181.743 91.6368 175.804 88.4018C175.437 88.2017 175.197 88.8088 175.563 89.0076L175.563 89.0076Z" fill="white"/>
<path d="M198.751 111.349C200.483 110.21 201.754 108.492 202.337 106.502C202.92 104.512 202.776 102.38 201.932 100.486C201.76 100.103 201.157 100.353 201.33 100.736C202.119 102.498 202.253 104.484 201.706 106.336C201.16 108.188 199.969 109.784 198.349 110.835C197.998 111.064 198.401 111.577 198.751 111.349Z" fill="white"/>
<path d="M202.115 128.93C197.956 128.109 194.26 125.751 191.762 122.327C191.515 121.987 191.001 122.389 191.248 122.728C193.854 126.287 197.706 128.732 202.035 129.577C202.448 129.657 202.525 129.009 202.115 128.93Z" fill="white"/>
<path d="M186.724 96.6493C186.145 97.2297 185.431 97.6575 184.647 97.894C183.862 98.1305 183.031 98.1684 182.228 98.0043C181.816 97.919 181.739 98.5667 182.148 98.6515C183.036 98.8287 183.954 98.7856 184.821 98.5262C185.689 98.2669 186.48 97.799 187.125 97.1635C187.19 97.1087 187.233 97.0308 187.243 96.9458C187.254 96.8608 187.232 96.775 187.181 96.7058C187.128 96.638 187.05 96.5941 186.964 96.5835C186.878 96.5729 186.792 96.5965 186.723 96.6493L186.724 96.6493Z" fill="white"/>
<path d="M57.9792 166.956C61.167 166.956 64.2242 168.223 66.4784 170.477C68.7325 172.731 69.9989 175.788 69.9989 178.976V178.976C69.9984 181.764 69.0288 184.466 67.256 186.618C65.4832 188.77 63.0174 190.239 60.2808 190.773V210.432H52.6086V166.956H57.9792Z" fill="#3F3D56"/>
<path d="M352.398 282.115V286.231C350.653 288.462 348.856 290.648 347.005 292.79C346.806 293.024 346.603 293.254 346.395 293.488C346.082 293.854 345.759 294.216 345.437 294.579V282.115H352.398Z" fill="#CACACA"/>
<path d="M331.975 273.529C330.437 273.531 328.962 274.143 327.874 275.231C326.786 276.319 326.174 277.794 326.172 279.332V287.684C326.174 289.223 326.786 290.698 327.874 291.786C328.962 292.874 330.437 293.486 331.975 293.488H346.396C346.603 293.254 346.806 293.024 347.005 292.79C348.856 290.648 350.653 288.462 352.398 286.231C352.513 286.085 352.627 285.94 352.738 285.794C353.736 284.518 354.717 283.219 355.679 281.912C356.43 280.887 357.177 279.854 357.905 278.811C357.91 278.807 357.914 278.807 357.914 278.802C359.133 277.071 360.321 275.313 361.478 273.529H331.975Z" fill="#3F3D56"/>
<path d="M369.106 202.041C368.219 201.735 367.288 201.58 366.35 201.582H363.978C363.114 201.583 362.255 201.712 361.43 201.966C359.688 202.514 358.167 203.602 357.086 205.073C356.005 206.543 355.421 208.321 355.419 210.146V279.818C355.419 280.079 355.432 280.335 355.454 280.587C355.492 281.034 355.568 281.477 355.679 281.912C356.43 280.887 357.177 279.854 357.905 278.811C357.91 278.807 357.914 278.807 357.914 278.802C359.133 277.071 360.321 275.313 361.478 273.529C362.101 272.571 362.719 271.603 363.324 270.632C367.697 263.617 371.57 256.302 374.914 248.743V210.146C374.912 208.358 374.351 206.616 373.309 205.162C372.268 203.709 370.798 202.618 369.106 202.041Z" fill="#3F3D56"/>
<path d="M76.787 282.115V290.431C74.7995 288.055 72.8783 285.626 71.0233 283.144C70.7672 282.804 70.5154 282.459 70.2637 282.115H76.787Z" fill="#CACACA"/>
<path d="M90.2489 273.529H64.3101C65.1271 274.788 65.9589 276.032 66.8054 277.261C67.9273 278.9 69.08 280.517 70.2637 282.115C70.5154 282.459 70.7672 282.804 71.0233 283.144C72.8827 285.626 74.804 288.055 76.787 290.431C77.158 290.882 77.5334 291.328 77.9133 291.774C78.3991 292.348 78.8923 292.919 79.3928 293.488H90.2489C91.7871 293.486 93.2616 292.873 94.3488 291.785C95.436 290.697 96.0471 289.222 96.0479 287.684V279.332C96.0471 277.794 95.4361 276.319 94.3488 275.231C93.2616 274.143 91.7871 273.531 90.2489 273.529Z" fill="#3F3D56"/>
<path d="M62.1989 202.549C60.976 201.915 59.619 201.584 58.2416 201.582H55.8743C54.7541 201.581 53.6447 201.801 52.6104 202.231C51.0434 202.879 49.7035 203.976 48.7601 205.385C47.8167 206.794 47.3122 208.45 47.3104 210.146V240.077C51.7699 251.801 57.4687 263.015 64.31 273.529C65.1271 274.788 65.9589 276.032 66.8054 277.261V210.146C66.8043 208.58 66.3743 207.044 65.5623 205.705C64.7502 204.366 63.587 203.274 62.1989 202.549Z" fill="#3F3D56"/>
<path d="M158.686 331.905L166.467 330.119L163.284 299.26L151.801 301.895L158.686 331.905Z" fill="#9E616A"/>
<path d="M165.764 305.13C165.605 304.586 165.497 304.029 165.442 303.465C165.377 302.798 165.247 302.14 165.053 301.499C164.832 300.916 164.559 300.355 164.236 299.821C164.082 299.538 163.918 299.256 163.772 298.969C163.626 298.682 163.499 298.385 163.393 298.081C158.839 284.632 152.484 266.356 148.076 255.659C145.483 249.366 129.539 247.272 114.496 246.738C112.663 246.671 110.844 246.627 109.064 246.605C108.45 246.596 107.84 246.587 107.235 246.583C105.689 246.574 104.183 246.574 102.735 246.592C102.545 246.592 102.355 246.592 102.165 246.596C101.109 246.605 100.086 246.62 99.0954 246.64C92.2849 246.773 87.2809 247.082 86.3887 247.14L78.4432 242.144L76.893 241.168L76.7296 242.144L75.4797 249.591L73.3464 262.297L78.695 263.799L82.1664 264.771L102.735 270.539L107.107 271.767L107.134 271.775L114.496 271.762L134.627 271.727L135.599 274.302C135.25 274.844 135.02 275.454 134.925 276.091C134.83 276.729 134.872 277.379 135.048 277.999C135.224 278.619 135.53 279.194 135.946 279.687C136.361 280.18 136.877 280.578 137.458 280.856L138.213 281.214L147.413 305.558C147.441 307.76 148.129 309.903 149.388 311.711C149.542 311.936 149.71 312.157 149.887 312.373L150.09 312.616L153.627 319.537L155.734 319.051L164.7 316.997L164.744 316.909C164.749 316.896 164.863 316.653 165.031 316.229V316.216C165.733 314.462 167.288 309.67 165.764 305.13Z" fill="#2F2E41"/>
<path d="M187.622 333.957C187.287 332.474 186.662 331.071 185.783 329.83C184.904 328.589 183.788 327.534 182.499 326.726C181.21 325.919 179.775 325.374 178.275 325.123C176.775 324.872 175.24 324.92 173.758 325.265L167.544 322.461L165.804 323.684L158.587 328.746L157.991 328.883L156.057 329.324L158.729 340.971L187.711 334.324L187.622 333.957Z" fill="#2F2E41"/>
<path d="M149.18 315.999L146.552 337.305L146.464 338.003L146.075 341.178C144.56 340.56 143.05 339.92 141.557 339.262C140.161 338.648 138.776 338.015 137.401 337.362V316.004L149.18 315.999Z" fill="#9E616A"/>
<path d="M92.1549 169.529C100.954 169.529 108.087 162.396 108.087 153.597C108.087 144.798 100.954 137.665 92.1549 137.665C83.3559 137.665 76.2228 144.798 76.2228 153.597C76.2228 162.396 83.3559 169.529 92.1549 169.529Z" fill="#9E616A"/>
<path d="M150.871 324.13C150.43 323.525 149.971 322.894 149.944 322.288C149.842 320.155 149.736 318.044 149.626 315.977C149.547 314.533 149.467 313.106 149.388 311.711C149.379 311.534 149.365 311.357 149.357 311.185C149.22 308.875 149.904 306.437 150.562 304.074C150.779 303.301 150.995 302.52 151.189 301.738C151.675 299.996 151.88 298.187 151.795 296.381C150.664 282.075 145.611 268.622 143.346 266.356C139.901 262.911 124.323 254.953 114.496 250.112C112.752 249.251 111.188 248.491 109.907 247.873C108.772 247.321 107.858 246.883 107.235 246.583C106.758 246.358 106.449 246.212 106.343 246.159L106.29 246.133L102.735 246.53L102.165 246.596L99.0291 246.95L78.6287 249.237L75.4797 249.591L71.0233 250.094L66.9998 250.545L66.8496 250.558L66.8231 250.708C66.8231 250.713 66.8143 250.744 66.8054 250.801C66.1135 255.167 66.1135 259.614 66.8054 263.98C67.3266 266.944 68.3115 269.956 70.0605 272.491C70.299 272.835 70.5463 273.167 70.8113 273.485C70.8203 273.501 70.8322 273.516 70.8466 273.529C70.904 273.6 70.9615 273.67 71.0233 273.741V273.745C73.0238 276.072 75.7092 277.706 78.695 278.414C79.1367 278.533 79.5871 278.63 80.0509 278.71C84.9931 279.584 90.5757 280.388 96.0479 281.095C98.3136 281.386 100.562 281.66 102.735 281.916C107.085 282.428 111.148 282.861 114.496 283.206C119.187 283.683 122.481 283.979 123.215 284.04L131.407 322.262C130.764 323.349 130.508 324.622 130.68 325.874C130.851 327.125 131.441 328.282 132.353 329.156L133.024 329.806L133.801 333.445L136.363 336.872L136.685 337.305H147.987L148.049 337.23C148.089 337.177 152.064 332.071 151.795 325.99C151.768 325.362 151.331 324.766 150.871 324.13Z" fill="#2F2E41"/>
<path d="M150.563 196.033C149.707 195.799 148.81 195.755 147.936 195.905C147.061 196.055 146.23 196.395 145.501 196.901C144.773 197.407 144.164 198.067 143.717 198.834C143.271 199.6 142.998 200.456 142.918 201.339L129.68 205.477L130.232 214.135L148.845 208.029C150.338 208.065 151.793 207.552 152.933 206.587C154.074 205.623 154.821 204.273 155.032 202.794C155.244 201.315 154.906 199.81 154.082 198.564C153.259 197.318 152.006 196.417 150.563 196.033Z" fill="#9E616A"/>
<path d="M141.926 210.359L132.032 214.104L131.779 214.595C131.479 215.177 131.067 215.695 130.566 216.119C130.066 216.542 129.487 216.863 128.862 217.062C128.238 217.262 127.581 217.337 126.927 217.282C126.274 217.228 125.638 217.045 125.055 216.745L102.818 225.161C102.818 225.161 92.8865 215.223 85.816 206.354L88.2258 191.532C88.7839 188.093 89.9702 184.786 91.7253 181.777C106.226 184.956 114.549 205.227 114.549 205.227L140.682 200.24L141.926 210.359Z" fill="#00B0FF"/>
<path d="M89.8908 168.678C85.9022 169.755 81.5049 168.323 78.3922 165.606C75.2795 162.89 73.3324 159.04 72.2104 155.064C71.3888 152.152 70.9992 148.919 72.2958 146.185C73.5924 143.451 77.0822 141.607 79.7745 142.988C78.1136 141.053 78.9434 137.852 80.8831 136.197C82.8229 134.541 85.4865 134.067 88.0234 133.807C91.705 133.431 95.508 133.389 99.0114 134.581C102.515 135.774 105.698 138.382 106.794 141.917C107.914 142.438 109.175 142.573 110.38 142.301C111.585 142.029 112.666 141.365 113.453 140.413C113.656 141.507 113.493 142.636 112.989 143.628C112.486 144.619 111.669 145.417 110.666 145.897L116.034 144.157C116.957 146.111 115.34 148.53 113.271 149.155C111.203 149.781 108.97 149.097 107.007 148.193C105.044 147.289 103.142 146.146 101.009 145.794C98.8772 145.441 96.3726 146.126 95.3864 148.049C94.8698 149.056 94.8429 150.236 94.543 151.327C94.243 152.419 93.4833 153.55 92.3549 153.64C91.642 153.696 90.944 153.316 90.2331 153.394C89.7968 153.48 89.395 153.691 89.077 154.002C88.7589 154.313 88.5384 154.709 88.4424 155.144C88.2654 156.015 88.2632 156.913 88.436 157.785L89.7996 168.207L89.8908 168.678Z" fill="#2F2E41"/>
<path d="M109.907 247.873L109.064 246.605L102.907 237.37L102.783 237.189L104.687 227.313L105.279 224.23L106.573 217.522L106.197 202.165L105.928 191.3L105.888 189.595L104.523 185.435C103.876 183.489 102.837 181.697 101.47 180.169C100.102 178.642 98.4358 177.411 96.5735 176.553L87.3869 172.348C86.3058 171.856 85.0735 171.814 83.961 172.23C82.8485 172.646 81.947 173.488 81.4548 174.569C81.4137 174.659 81.3756 174.751 81.3406 174.844C80.0818 175.016 74.6185 175.935 69.9854 179.53C66.7397 181.999 64.4739 185.539 63.5902 189.52C63.5813 189.551 63.5769 189.582 63.5681 189.613C62.9542 192.356 62.4948 196.684 62.1989 202.549C62.0002 206.427 61.875 210.97 61.8235 216.179C61.7411 224.861 62.2294 233.539 63.2854 242.158C63.387 242.979 63.493 243.796 63.6034 244.618C63.6962 245.307 64.3586 245.965 64.9991 246.596C65.5865 247.175 66.1916 247.775 66.2755 248.319C66.3506 248.796 66.0458 249.295 65.6836 249.816C65.6395 249.882 65.5909 249.948 65.5467 250.015C65.0962 250.655 64.6325 251.322 64.7517 252.024C65.03 253.605 65.1934 255.213 65.348 256.768C65.5206 258.908 65.8304 261.036 66.2755 263.136C66.4301 263.781 66.6067 264.431 66.8055 265.08C67.2692 266.604 67.8301 268.123 68.3778 269.607C68.8504 270.897 69.3406 272.222 69.7558 273.529C69.8353 273.772 69.9103 274.01 69.981 274.249L70.0164 274.372L70.1444 274.394H70.1533C70.3272 274.084 70.5346 273.794 70.7716 273.529C70.7823 273.512 70.7957 273.497 70.8113 273.485C70.8732 273.41 70.9438 273.33 71.0233 273.246C71.9906 272.191 74.0929 270.296 78.695 267.103C79.7241 266.392 80.8768 265.619 82.1665 264.771C86.8967 261.675 93.504 257.642 102.735 252.435C105.049 251.128 107.533 249.745 110.186 248.288L109.907 247.873Z" fill="#00B0FF"/>
<path d="M159.449 345.03C158.376 343.952 157.1 343.098 155.695 342.517C154.291 341.936 152.785 341.638 151.265 341.642L146.464 338.003L145.832 337.521L141.557 339.262C143.05 339.92 144.56 340.56 146.075 341.178C150.814 343.113 155.653 344.841 160.592 346.363C160.245 345.891 159.863 345.445 159.449 345.03Z" fill="#2F2E41"/>
<path d="M266.08 331.604L260.067 328.728L268.326 303.595L277.201 307.84L266.08 331.604Z" fill="#FFB6B6"/>
<path d="M306.39 327.553C304.641 328.644 302.87 329.704 301.077 330.733V330.746L301.05 330.751L301.041 330.755L300.361 330.923L299.385 328.344L297.133 322.394L290.993 306.185L300.538 303.831L301.077 306.018L305.113 322.39L306.271 327.072L306.39 327.553Z" fill="#FFB6B6"/>
<path d="M282.048 222.366C282.905 223.759 284.273 224.761 285.86 225.159C287.446 225.557 289.126 225.319 290.539 224.496C290.823 224.324 291.093 224.129 291.345 223.912L310.354 234.821L309.529 223.623L291.604 214.981C290.628 214.001 289.355 213.372 287.984 213.194C286.614 213.015 285.222 213.297 284.028 213.994C282.662 214.814 281.677 216.144 281.291 217.69C280.905 219.237 281.149 220.873 281.97 222.24C281.995 222.282 282.021 222.324 282.048 222.366Z" fill="#FFB6B6"/>
<path d="M302.182 230.714L305.542 232.761L320.633 241.964C321.624 242.584 322.727 243.002 323.879 243.196C325.032 243.389 326.211 243.354 327.349 243.092C328.488 242.83 329.564 242.346 330.516 241.668C331.468 240.99 332.276 240.131 332.896 239.14L332.901 239.132C334.019 237.291 334.414 235.102 334.011 232.986L327.303 199.476C327.056 198.16 326.527 196.914 325.753 195.822C324.979 194.729 323.978 193.817 322.82 193.147C321.661 192.477 320.371 192.065 319.038 191.94C317.705 191.814 316.361 191.978 315.097 192.42C312.973 193.166 311.214 194.694 310.176 196.692C309.138 198.689 308.901 201.008 309.512 203.175L316.525 226.956L305.774 221.944L302.182 230.714Z" fill="#00B0FF"/>
<path d="M364.062 263.755C364.058 263.742 364.049 263.693 364.035 263.618L364.022 263.569C363.991 263.41 363.956 263.234 363.916 263.039C363.015 258.564 361.857 254.145 360.449 249.803C359.615 247.144 358.509 244.577 357.15 242.144C357.106 242.065 357.057 241.985 357.009 241.906L356.845 241.641L355.472 242.144L355.419 242.162L334.537 249.816L328.499 252.029L328.309 252.099L327.28 256.295L312.842 254.427L301.076 252.903L297.698 252.466C296.233 252.275 294.745 252.378 293.32 252.767C291.895 253.157 290.563 253.826 289.399 254.736C288.185 255.678 287.17 256.851 286.414 258.189C285.658 259.527 285.176 261.001 284.996 262.527C284.951 262.863 284.925 263.203 284.912 263.538L283.891 301.597V301.645L284.364 302.59L294.235 322.394H301.076L305.113 322.39H308.395L301.571 305.125L301.726 304.891C302.368 303.907 302.772 302.787 302.908 301.62C303.044 300.453 302.907 299.27 302.507 298.165L303.276 295.939C304.87 291.341 304.115 289.133 303.161 286.342C302.304 284.072 301.801 281.684 301.668 279.262L301.509 276.113C305.515 276.815 309.247 277.597 312.842 278.383C314.044 278.643 315.233 278.907 316.411 279.173C319.763 279.92 323.001 280.64 326.172 281.24C332.594 282.464 338.746 283.21 345.066 282.746C345.19 282.738 345.313 282.729 345.437 282.715C346.974 282.592 348.52 282.393 350.083 282.115C350.962 281.956 351.846 281.775 352.738 281.563C352.985 281.501 353.237 281.439 353.484 281.377C354.171 281.196 354.833 280.931 355.454 280.587C356.338 280.093 357.161 279.497 357.905 278.811C357.91 278.807 357.914 278.807 357.914 278.802C359.133 277.071 360.321 275.313 361.478 273.529C362.101 272.57 362.719 271.603 363.324 270.632C364.208 268.207 364.543 265.76 364.062 263.755Z" fill="#2F2E41"/>
<path d="M364.208 256.604C364.141 256.322 364.058 256.035 363.969 255.756C363.268 253.649 362.451 251.582 361.522 249.564C360.48 247.268 359.23 244.808 357.742 242.144C357.022 240.855 356.248 239.513 355.419 238.121C355.004 237.423 354.572 236.712 354.125 235.988C354.107 235.954 354.088 235.922 354.067 235.89L353.939 235.678L333.278 238.443L325.584 239.472L325.125 243.306L325.015 244.255C325.01 244.255 325.01 244.255 325.015 244.26L324.705 246.848V246.852L324.295 250.271L324.259 250.266L312.842 248.787L301.076 247.263L294.756 246.446C293.292 246.255 291.804 246.358 290.379 246.747C288.954 247.137 287.621 247.806 286.457 248.716C285.243 249.658 284.228 250.831 283.472 252.169C282.716 253.507 282.234 254.981 282.054 256.507C282.014 256.816 281.988 257.134 281.975 257.448L276.012 271.577C272.444 280.026 270.172 288.966 269.272 298.094L264.9 312.073L265.523 312.13L274.789 312.991L277.236 313.221L282.624 305.355C283.238 304.458 283.821 303.535 284.364 302.59C285.258 301.047 286.054 299.447 286.745 297.803L298.4 270.066C299.301 270.221 300.193 270.368 301.076 270.508C305.162 271.17 309.084 271.711 312.842 272.129C325.063 273.494 335.645 273.6 345.066 272.442C347.712 272.12 350.269 271.696 352.738 271.17C353.643 270.98 354.537 270.776 355.419 270.556C355.626 270.508 355.829 270.459 356.033 270.406C357.858 269.936 359.536 269.015 360.913 267.728C362.291 266.441 363.323 264.829 363.916 263.039C364.624 260.966 364.726 258.733 364.208 256.604Z" fill="#2F2E41"/>
<path d="M320.273 173.188C328.166 173.188 334.565 166.647 334.565 158.578C334.565 150.509 328.166 143.968 320.273 143.968C312.38 143.968 305.982 150.509 305.982 158.578C305.982 166.647 312.38 173.188 320.273 173.188Z" fill="#FFB6B6"/>
<path d="M354.209 236.478C354.187 236.314 354.16 236.151 354.125 235.988C353.785 234.194 352.901 232.437 352.049 230.732C351.236 229.106 350.463 227.57 350.145 226.041C349.832 224.535 350.017 223.025 350.198 221.567C350.393 219.986 350.596 218.352 350.141 216.766C347.834 208.669 344.665 200.842 340.689 193.42C339.686 190.157 337.763 187.252 335.151 185.053C332.538 182.855 329.347 181.457 325.96 181.027C326.355 180.289 326.52 179.449 326.432 178.616C326.377 178.077 326.215 177.555 325.957 177.08C325.698 176.605 325.348 176.185 324.926 175.846C324.521 175.52 324.055 175.277 323.556 175.131C323.056 174.986 322.533 174.941 322.016 174.998L315.373 175.745C314.308 175.878 313.339 176.427 312.677 177.272C312.014 178.116 311.712 179.188 311.835 180.254C311.873 180.582 311.947 180.905 312.056 181.217C305.891 189.07 302.724 196.225 302.433 202.991V202.995C302.397 203.777 302.402 204.56 302.446 205.341C302.585 207.867 303.134 210.353 304.071 212.703C305.177 215.418 306.658 217.965 308.47 220.269C308.841 220.737 309.225 221.196 309.623 221.647C309.994 222.088 310.409 222.552 310.868 223.038L312.03 224.858L313.112 226.558L318.898 239.91L321.844 239.812L322.254 242.749L322.351 243.434L324.259 250.267L324.401 250.779L327.011 249.538L342.584 242.144L354.226 236.615L354.209 236.478Z" fill="#00B0FF"/>
<path opacity="0.2" d="M304.246 212.632C305.574 215.885 307.44 218.89 309.767 221.522C310.166 221.998 310.587 222.466 311.027 222.934L313.288 226.481C321.622 220.234 328.374 195.639 328.374 195.639L318.971 193.81L304.246 212.632Z" fill="black"/>
<path d="M298.553 174.553C299.376 175.967 299.615 177.647 299.219 179.235C298.823 180.823 297.823 182.193 296.432 183.055C296.146 183.226 295.847 183.372 295.537 183.494L296.203 205.402L286.715 199.429L287.538 179.541C287.134 178.217 287.18 176.797 287.668 175.503C288.156 174.208 289.059 173.111 290.236 172.384C291.597 171.561 293.229 171.312 294.773 171.692C296.317 172.072 297.647 173.05 298.47 174.411C298.498 174.458 298.526 174.505 298.553 174.553Z" fill="#FFB6B6"/>
<path d="M297.037 197.132L286.604 198.616L287.052 220.221C287.078 221.762 287.498 223.271 288.271 224.605C289.045 225.938 290.146 227.051 291.472 227.839C293.09 228.791 294.975 229.192 296.841 228.98C298.707 228.768 300.454 227.955 301.818 226.664L326.449 202.972C328.182 201.328 329.22 199.083 329.348 196.697C329.476 194.312 328.685 191.968 327.138 190.148C325.622 188.354 323.455 187.235 321.114 187.038C318.773 186.841 316.45 187.582 314.656 189.098C314.586 189.157 314.516 189.218 314.448 189.279C314.205 189.497 313.973 189.728 313.755 189.97L297.49 208.681L297.037 197.132Z" fill="#00B0FF"/>
<path d="M306.655 327.001L306.27 327.072L301.076 328.03L299.385 328.344L296.722 328.834L297.667 332.645C298.802 332.032 299.924 331.4 301.041 330.755L301.05 330.751L301.076 330.746V330.733C302.87 329.708 304.641 328.648 306.39 327.553C306.513 327.478 306.637 327.403 306.761 327.319L306.655 327.001Z" fill="#2F2E41"/>
<path d="M268 327.5L261.495 324.382L260.474 323.892L258.845 327.893L247.468 330.397C246.905 330.521 246.397 330.821 246.017 331.254C245.637 331.686 245.405 332.229 245.356 332.803C245.307 333.377 245.442 333.951 245.742 334.443C246.043 334.934 246.493 335.316 247.026 335.534L258.142 340.07L261.671 336.894L260.806 341.156L264.993 342.866L269.582 328.26L268 327.5Z" fill="#2F2E41"/>
<path d="M358.516 152.242C356.087 149.409 354.932 145.65 352.99 142.433C351.048 139.216 347.668 136.337 344.098 137.086C341.637 137.602 339.735 139.773 338.772 142.195C337.809 144.616 337.629 147.286 337.46 149.902C337.52 144.526 333.978 139.315 329.1 137.6C324.221 135.884 318.383 137.798 315.317 142.116C313.98 140.876 312.234 140.17 310.41 140.132C308.586 140.094 306.812 140.726 305.424 141.909C302.682 144.359 302.075 149.024 304.091 152.15C306.108 155.276 310.475 156.44 313.68 154.706L314.813 155.749C314.175 157.979 315.412 160.614 317.49 161.453C319.176 162.134 321.556 162.021 322.187 163.79C322.628 165.026 321.804 166.346 320.927 167.295C320.051 168.245 319.01 169.226 318.905 170.541C318.746 172.524 320.796 173.913 322.659 174.332C327.151 175.341 332.136 173.26 334.725 169.296C334.775 169.219 334.829 169.143 334.888 169.066C336.34 167.208 337.399 165.074 337.999 162.793C338.599 160.512 338.728 158.133 338.377 155.801C338.231 154.885 338.378 154.203 339.01 153.986C341.74 153.049 349.391 155.017 351.706 156.796C354.022 158.575 355.876 160.93 358.106 162.824C360.336 164.718 363.178 166.179 366.01 165.663C368.278 165.25 370.207 163.604 371.505 161.618C372.803 159.632 373.549 157.317 374.218 155.016C369.203 157.913 362.34 156.7 358.516 152.242Z" fill="#2F2E41"/>
<path d="M312.841 239.329V323.333C311.242 324.433 309.623 325.503 307.983 326.544V244.899C307.983 242.531 307.188 240.61 306.211 240.606H232.679C231.699 240.61 230.908 242.531 230.904 244.899V353.309C229.923 353.406 228.943 353.499 227.962 353.578C227.556 353.614 227.145 353.645 226.739 353.676C226.505 353.243 226.275 352.806 226.045 352.364V239.329C226.045 238.676 226.072 238.017 226.116 237.368C226.513 231.856 228.488 227.828 230.798 227.819H308.089C308.368 227.821 308.645 227.88 308.901 227.992C310.836 228.813 312.364 232.417 312.748 237.077C312.81 237.819 312.845 238.574 312.841 239.329Z" fill="#E4E4E4"/>
<path d="M194.859 239.329V352.973C194.793 353.079 194.727 353.181 194.661 353.287C193 353.119 191.347 352.926 189.701 352.708V244.899C189.701 242.531 188.857 240.61 187.819 240.606H109.773C108.735 240.61 107.892 242.531 107.892 244.899V319.743C106.147 318.457 104.428 317.14 102.733 315.79V239.329C102.733 238.676 102.76 238.017 102.808 237.368C103.228 231.856 105.326 227.828 107.781 227.819H189.811C190.107 227.82 190.399 227.879 190.672 227.992C192.726 228.813 194.352 232.417 194.762 237.077C194.829 237.819 194.859 238.574 194.859 239.329Z" fill="#E4E4E4"/>
<path d="M168.704 201.562L173.819 224.067L177.087 227.648H179.445L169.727 186.729L169.246 193.681V193.685L168.704 201.562Z" fill="#3F3D56"/>
<path d="M185.736 228.797C185.721 228.763 185.702 228.73 185.679 228.7C185.632 228.594 185.564 228.498 185.48 228.417L184.884 227.821L181.748 224.681C181.518 224.456 181.209 224.329 180.887 224.328H180.874L178.661 224.341L176.757 224.354L174.098 224.372L155.99 224.487L144.087 224.562C143.765 224.566 143.457 224.696 143.23 224.925C143.003 225.154 142.875 225.463 142.873 225.785C142.875 225.964 142.914 226.14 142.988 226.302L143.217 226.792L143.699 227.821L144.326 229.168L144.635 229.831C144.734 230.042 144.89 230.22 145.087 230.345C145.283 230.47 145.511 230.537 145.744 230.537H184.614C184.819 230.534 185.019 230.479 185.198 230.38C185.377 230.28 185.528 230.138 185.639 229.966C185.75 229.794 185.817 229.598 185.834 229.394C185.851 229.19 185.817 228.985 185.736 228.797H185.736Z" fill="#3F3D56"/>
<path opacity="0.17" d="M144.327 229.167L144.634 229.832C144.733 230.042 144.891 230.22 145.087 230.345C145.283 230.47 145.511 230.537 145.744 230.538H184.616C184.82 230.534 185.021 230.48 185.199 230.381C185.378 230.281 185.529 230.139 185.64 229.967C185.751 229.795 185.817 229.599 185.834 229.395C185.851 229.191 185.817 228.987 185.736 228.799C185.722 228.764 185.703 228.731 185.68 228.702L144.327 229.167Z" fill="black"/>
<path opacity="0.17" d="M169.246 193.681V193.685L177.568 227.648H179.445L169.727 186.729L169.246 193.681Z" fill="black"/>
<path d="M182.3 98.6393L181.081 98.4759C180.747 98.4323 180.408 98.5228 180.14 98.7277L179.412 99.2886L171.298 109.438C171.03 109.645 170.856 109.95 170.813 110.286L170.358 113.74L159.033 199.904C158.993 200.223 159.073 200.546 159.259 200.809L164.594 215.517L164.753 215.746L165.097 216.236C165.275 216.485 165.535 216.664 165.831 216.74L166.603 216.934C166.779 216.978 166.962 216.984 167.14 216.952C167.318 216.92 167.488 216.851 167.637 216.749C167.787 216.648 167.913 216.516 168.008 216.362C168.102 216.208 168.163 216.036 168.185 215.857L169.567 205.354V205.349L170.45 198.61L171.197 192.925V192.921L183.404 100.07C183.448 99.7351 183.357 99.3961 183.152 99.1279C182.946 98.8596 182.642 98.6842 182.306 98.6401L182.3 98.6393Z" fill="#3F3D56"/>
<path opacity="0.17" d="M179.41 99.2889L164.593 215.518L164.754 215.746L165.097 216.235C165.275 216.484 165.534 216.663 165.831 216.739L166.605 216.933C166.78 216.977 166.962 216.983 167.14 216.951C167.318 216.919 167.487 216.85 167.636 216.748C167.785 216.647 167.911 216.515 168.006 216.361C168.101 216.207 168.162 216.035 168.186 215.856L183.403 100.072C183.447 99.7354 183.356 99.3955 183.149 99.1265C182.943 98.8575 182.638 98.6816 182.302 98.6373L181.08 98.4766C180.914 98.4542 180.745 98.465 180.584 98.5085C180.422 98.5519 180.271 98.627 180.139 98.7295L179.41 99.2889Z" fill="black"/>
<path d="M178.973 102.613L171.11 113.836L161.765 184.944L166.831 194.996L178.973 102.613Z" fill="#00B0FF"/>
<path d="M255.566 201.562L250.451 224.067L247.183 227.648H244.825L254.543 186.729L255.024 193.681V193.685L255.566 201.562Z" fill="#3F3D56"/>
<path d="M280.182 224.562L250.175 224.372L247.512 224.354L245.613 224.341L243.4 224.328H243.382C243.061 224.328 242.753 224.455 242.525 224.681L238.789 228.417C238.706 228.499 238.639 228.595 238.59 228.7C238.567 228.73 238.548 228.763 238.533 228.797C238.452 228.985 238.418 229.19 238.435 229.394C238.452 229.598 238.519 229.794 238.63 229.966C238.741 230.138 238.892 230.28 239.071 230.38C239.25 230.479 239.45 230.534 239.655 230.537H278.525C278.759 230.537 278.987 230.47 279.184 230.345C279.381 230.22 279.538 230.042 279.638 229.831L279.943 229.168L280.57 227.821L281.281 226.302C281.357 226.14 281.396 225.964 281.396 225.785C281.394 225.463 281.266 225.154 281.039 224.925C280.812 224.696 280.504 224.566 280.182 224.562Z" fill="#3F3D56"/>
<path opacity="0.17" d="M279.943 229.167L279.636 229.832C279.536 230.042 279.379 230.22 279.183 230.345C278.986 230.47 278.759 230.537 278.526 230.538H239.654C239.449 230.534 239.249 230.48 239.07 230.381C238.892 230.281 238.74 230.139 238.63 229.967C238.519 229.795 238.452 229.599 238.436 229.395C238.419 229.191 238.453 228.987 238.534 228.799C238.547 228.764 238.566 228.731 238.59 228.702L279.943 229.167Z" fill="black"/>
<path opacity="0.17" d="M255.024 193.681V193.685L246.702 227.648H244.825L254.543 186.729L255.024 193.681Z" fill="black"/>
<path d="M265.236 199.904L253.457 110.286C253.413 109.95 253.239 109.645 252.971 109.438L244.862 99.2886L244.133 98.7277C243.863 98.5233 243.524 98.4329 243.188 98.4759L241.969 98.6394C241.633 98.6827 241.328 98.8578 241.12 99.1262C240.913 99.3945 240.821 99.7342 240.865 100.07L253.072 192.925V192.93L253.819 198.61L254.706 205.354V205.363L256.084 215.857C256.106 216.036 256.167 216.209 256.262 216.363C256.358 216.517 256.485 216.649 256.637 216.749C256.785 216.851 256.954 216.92 257.131 216.952C257.308 216.984 257.491 216.978 257.666 216.934L258.439 216.74C258.735 216.664 258.994 216.485 259.172 216.236L259.516 215.746L259.675 215.517L265.01 200.809C265.198 200.547 265.278 200.223 265.236 199.904Z" fill="#3F3D56"/>
<path opacity="0.17" d="M244.86 99.2889L259.677 215.518L259.516 215.746L259.172 216.235C258.995 216.484 258.735 216.663 258.439 216.739L257.665 216.933C257.49 216.977 257.307 216.983 257.13 216.951C256.952 216.919 256.783 216.85 256.634 216.748C256.485 216.647 256.358 216.515 256.264 216.361C256.169 216.207 256.108 216.035 256.084 215.856L240.867 100.072C240.822 99.7354 240.914 99.3955 241.12 99.1265C241.327 98.8575 241.632 98.6816 241.968 98.6372L243.19 98.4766C243.356 98.4542 243.524 98.465 243.686 98.5085C243.847 98.5519 243.999 98.627 244.131 98.7295L244.86 99.2889Z" fill="black"/>
<path d="M245.296 102.613L253.159 113.836L262.505 184.944L257.438 194.996L245.296 102.613Z" fill="#00B0FF"/>
<path d="M99.1528 245.978C99.154 246.2 99.1348 246.422 99.0954 246.64C99.0777 246.746 99.0556 246.848 99.0291 246.95C98.814 247.771 98.3328 248.498 97.6608 249.016C96.9887 249.535 96.1637 249.816 95.3148 249.816H78.695V289.455C78.6957 290.293 78.421 291.108 77.9132 291.774C77.5334 291.328 77.158 290.882 76.787 290.431C74.7995 288.055 72.8783 285.626 71.0233 283.144V249.816H63.6034C62.614 249.815 61.6631 249.433 60.9494 248.747C60.2357 248.062 59.8142 247.128 59.7732 246.139C59.7322 245.151 60.0746 244.185 60.7291 243.443C61.3836 242.701 62.2995 242.24 63.2854 242.158C63.3914 242.149 63.4974 242.144 63.6034 242.144H95.3148C96.332 242.144 97.3078 242.548 98.0275 243.267C98.7472 243.985 99.152 244.961 99.1528 245.978Z" fill="#3F3D56"/>
<path d="M363.987 245.978C363.987 246.755 363.752 247.514 363.312 248.154C362.872 248.794 362.248 249.286 361.523 249.564C361.178 249.696 360.817 249.776 360.449 249.803C360.352 249.812 360.251 249.816 360.153 249.816H352.738V285.794C352.628 285.94 352.513 286.085 352.398 286.231C350.653 288.462 348.856 290.648 347.005 292.79C346.414 292.457 345.923 291.972 345.582 291.386C345.241 290.8 345.063 290.133 345.066 289.455V249.816H328.442C327.951 249.818 327.465 249.723 327.011 249.538C326.439 249.309 325.93 248.945 325.529 248.478C325.128 248.01 324.845 247.453 324.706 246.852V246.848C324.5 245.976 324.609 245.059 325.015 244.26C325.01 244.256 325.01 244.256 325.015 244.256C325.19 243.904 325.42 243.582 325.695 243.302C326.053 242.935 326.48 242.644 326.952 242.445C327.423 242.247 327.93 242.144 328.442 242.144H360.153C361.17 242.144 362.145 242.548 362.864 243.267C363.583 243.985 363.987 244.96 363.987 245.977L363.987 245.978Z" fill="#3F3D56"/>
<path d="M363.733 172.071C362.155 172.071 360.592 172.382 359.133 172.986C357.675 173.59 356.35 174.475 355.234 175.592C354.118 176.708 353.232 178.033 352.628 179.491C352.024 180.949 351.713 182.512 351.713 184.091V184.091C351.714 186.879 352.683 189.58 354.456 191.733C356.229 193.885 358.695 195.354 361.431 195.888V215.547H369.104V172.071H363.733Z" fill="#3F3D56"/>
<path d="M153.877 215.961C153.112 215.512 152.258 215.236 151.374 215.153C150.491 215.069 149.6 215.181 148.765 215.479C147.929 215.777 147.169 216.255 146.538 216.879C145.907 217.503 145.42 218.257 145.113 219.09L131.254 219.63L129.387 226.085L149.089 227.094C150.521 227.518 152.059 227.403 153.412 226.769C154.765 226.135 155.838 225.027 156.428 223.655C157.018 222.282 157.085 220.741 156.615 219.323C156.145 217.905 155.171 216.709 153.877 215.961H153.877Z" fill="#9E616A"/>
<path d="M142.494 227.79L128.258 227.613L126.456 227.588L97.4926 227.223C97.4926 227.223 89.6274 219.72 82.7788 211.994L83.7387 205.051C84.6751 198.237 88.0552 191.996 93.25 187.488C103.059 194.042 108.747 207.015 108.747 207.015L118.285 211.283C124.997 211.584 131.538 213.499 137.352 216.867L140.488 218.684L142.494 227.79Z" fill="#00B0FF"/>
<path d="M187.22 352.366H238.568C235.066 352.878 231.531 353.283 227.964 353.58H197.825C194.256 353.284 190.721 352.879 187.22 352.366Z" fill="#CCCCCC"/>
<path d="M197.544 326.515C198.538 317.547 203.969 308.65 212.469 305.622C209.225 314.883 209.361 324.994 212.853 334.164C214.213 337.696 216.093 341.483 214.906 345.076C214.168 347.313 212.312 349.041 210.226 350.134C208.141 351.226 205.817 351.765 203.522 352.293L203.074 352.674C199.31 344.473 196.55 335.484 197.544 326.515Z" fill="#CCCCCC"/>
<path d="M212.556 305.79C207.658 311.429 204.661 318.467 203.99 325.906C203.817 327.505 203.898 329.121 204.228 330.695C204.6 332.218 205.372 333.613 206.466 334.737C207.464 335.804 208.609 336.781 209.33 338.073C209.689 338.74 209.904 339.475 209.959 340.23C210.014 340.986 209.909 341.744 209.651 342.456C209.053 344.247 207.848 345.716 206.619 347.112C205.255 348.662 203.813 350.25 203.252 352.288C203.184 352.535 202.804 352.415 202.872 352.169C203.849 348.623 207.251 346.571 208.844 343.368C209.587 341.873 209.884 340.145 209.148 338.588C208.504 337.226 207.325 336.218 206.304 335.145C205.222 334.065 204.42 332.736 203.97 331.275C203.56 329.723 203.418 328.113 203.548 326.513C203.785 322.907 204.587 319.36 205.926 316.003C207.432 312.163 209.584 308.61 212.289 305.496C212.457 305.303 212.723 305.599 212.556 305.79H212.556Z" fill="white"/>
<path d="M204.065 323.498C202.832 323.216 201.74 322.505 200.983 321.492C200.226 320.479 199.854 319.23 199.933 317.968C199.936 317.917 199.96 317.869 199.998 317.834C200.037 317.8 200.087 317.782 200.138 317.783C200.19 317.785 200.239 317.807 200.274 317.844C200.31 317.881 200.33 317.931 200.33 317.983C200.254 319.158 200.601 320.321 201.308 321.263C202.015 322.205 203.035 322.863 204.185 323.119C204.435 323.175 204.313 323.554 204.065 323.498H204.065Z" fill="white"/>
<path d="M205.888 334.262C208.09 332.907 209.7 330.772 210.398 328.283C210.466 328.036 210.846 328.156 210.777 328.402C210.046 330.991 208.366 333.21 206.072 334.615C205.853 334.748 205.671 334.395 205.888 334.262Z" fill="white"/>
<path d="M207.806 312.535C208.261 312.744 208.76 312.836 209.258 312.804C209.757 312.772 210.24 312.617 210.664 312.352C210.881 312.215 211.063 312.569 210.848 312.705C210.378 312.995 209.844 313.166 209.293 313.203C208.742 313.239 208.191 313.14 207.687 312.914C207.637 312.897 207.597 312.862 207.573 312.815C207.548 312.769 207.543 312.715 207.557 312.665C207.573 312.615 207.608 312.573 207.655 312.549C207.702 312.525 207.756 312.52 207.806 312.535L207.806 312.535Z" fill="white"/>
<path d="M238.712 321.267C238.579 321.356 238.446 321.445 238.313 321.537C236.531 322.744 234.849 324.094 233.285 325.573C233.162 325.685 233.039 325.801 232.92 325.916C229.19 329.52 226.161 333.784 223.988 338.493C223.125 340.368 222.406 342.305 221.836 344.289C221.05 347.029 220.416 350.062 218.818 352.316C218.654 352.553 218.476 352.779 218.284 352.994L203.573 353.191C203.539 353.174 203.506 353.161 203.472 353.145L202.885 353.18C202.907 353.076 202.932 352.968 202.954 352.863C202.967 352.803 202.983 352.742 202.996 352.682C203.005 352.641 203.015 352.601 203.021 352.564C203.024 352.55 203.027 352.537 203.03 352.527C203.037 352.49 203.046 352.456 203.053 352.422C203.192 351.82 203.336 351.217 203.485 350.614C203.485 350.611 203.485 350.611 203.488 350.607C204.576 346.003 206.207 341.543 208.346 337.323C208.411 337.198 208.477 337.069 208.549 336.944C209.54 335.075 210.683 333.291 211.965 331.608C212.671 330.689 213.422 329.806 214.216 328.963C216.273 326.788 218.659 324.951 221.287 323.517C226.526 320.661 232.62 319.512 238.281 321.138C238.426 321.18 238.568 321.222 238.712 321.267Z" fill="#CCCCCC"/>
<path d="M238.682 321.454C231.376 323.007 224.745 326.822 219.731 332.358C218.63 333.531 217.722 334.87 217.038 336.325C216.418 337.765 216.194 339.344 216.391 340.899C216.545 342.353 216.871 343.822 216.669 345.287C216.555 346.036 216.283 346.752 215.873 347.389C215.462 348.025 214.922 348.568 214.287 348.981C212.731 350.051 210.884 350.498 209.063 350.873C207.04 351.289 204.933 351.689 203.257 352.978C203.054 353.134 202.824 352.81 203.027 352.654C205.941 350.411 209.893 350.821 213.093 349.222C214.587 348.476 215.864 347.276 216.214 345.589C216.52 344.114 216.185 342.599 216.016 341.128C215.802 339.614 215.962 338.071 216.482 336.633C217.09 335.147 217.945 333.775 219.013 332.577C221.373 329.84 224.149 327.491 227.239 325.617C230.753 323.458 234.611 321.916 238.646 321.058C238.896 321.005 238.93 321.401 238.682 321.454H238.682Z" fill="white"/>
<path d="M221.241 330.481C220.426 329.513 219.982 328.288 219.987 327.023C219.993 325.759 220.448 324.537 221.27 323.577C221.438 323.383 221.747 323.634 221.579 323.828C220.811 324.721 220.388 325.859 220.385 327.036C220.382 328.214 220.801 329.354 221.564 330.25C221.73 330.445 221.405 330.675 221.241 330.481Z" fill="white"/>
<path d="M216.216 340.172C218.789 340.416 221.36 339.681 223.416 338.113C223.62 337.958 223.85 338.282 223.647 338.437C221.505 340.064 218.828 340.824 216.15 340.565C215.895 340.54 215.962 340.147 216.216 340.172V340.172Z" fill="white"/>
<path d="M230.828 323.98C231.065 324.42 231.408 324.794 231.826 325.069C232.243 325.343 232.723 325.51 233.22 325.554C233.476 325.576 233.408 325.968 233.155 325.946C232.605 325.895 232.076 325.71 231.614 325.408C231.152 325.105 230.771 324.694 230.504 324.211C230.475 324.167 230.464 324.114 230.473 324.063C230.481 324.011 230.509 323.965 230.551 323.933C230.594 323.903 230.647 323.891 230.699 323.899C230.751 323.908 230.798 323.937 230.828 323.98Z" fill="white"/>
<path d="M246.343 333.762C248.927 333.762 251.021 331.667 251.021 329.083C251.021 326.5 248.927 324.405 246.343 324.405C243.759 324.405 241.664 326.5 241.664 329.083C241.664 331.667 243.759 333.762 246.343 333.762Z" fill="#CCCCCC"/>
<path d="M261.617 347.425C261.33 347.509 261.039 347.593 260.747 347.672C258.102 348.414 255.437 349.093 252.753 349.709C252.444 349.085 252.279 348.4 252.268 347.704C252.257 347.008 252.402 346.318 252.692 345.686C252.982 345.053 253.409 344.493 253.943 344.046C254.477 343.599 255.104 343.277 255.778 343.104C256.452 342.93 257.156 342.909 257.84 343.042C258.523 343.175 259.168 343.459 259.727 343.873C260.287 344.287 260.747 344.821 261.074 345.436C261.401 346.05 261.586 346.73 261.617 347.425Z" fill="#CCCCCC"/>
<path d="M288.347 337.382C287.989 337.55 287.631 337.717 287.273 337.881C286.885 338.066 286.492 338.243 286.103 338.42C285.666 338.618 285.233 338.813 284.796 339.007C283.153 339.74 281.492 340.447 279.827 341.127C279.805 341.092 279.783 341.052 279.761 341.012C279.178 339.919 279.052 338.639 279.411 337.453C279.77 336.268 280.585 335.273 281.676 334.687C282.768 334.101 284.048 333.972 285.234 334.328C286.421 334.684 287.418 335.496 288.007 336.587C288.142 336.842 288.256 337.108 288.347 337.382Z" fill="#CCCCCC"/>
<path d="M262.844 322.278C265.428 322.278 267.523 320.184 267.523 317.6C267.523 315.016 265.428 312.921 262.844 312.921C260.26 312.921 258.166 315.016 258.166 317.6C258.166 320.184 260.26 322.278 262.844 322.278Z" fill="#CCCCCC"/>
<path d="M219.928 61.2596C192.408 68.4984 161.916 72.9018 130.911 74.1075C126.367 74.3551 121.813 74.3241 117.272 74.0148C107.295 73.1756 98.7492 70.0398 89.2313 68.3262C84.6557 67.5047 79.5589 66.904 74.9524 66.0163C76.0168 64.6957 77.1003 63.3913 78.203 62.1032C88.136 62.9423 98.2236 65.6895 108.276 66.9659C125.364 69.1388 144.51 66.7141 157.464 60.734C163.749 57.8323 168.563 54.2106 174.826 51.2957C175.677 50.8584 176.6 50.5757 177.551 50.4609C179.534 50.2798 181.274 51.0793 182.692 51.7948C193.199 57.0991 208.454 61.4097 222.613 59.038C223.669 59.8639 221.664 60.8047 219.928 61.2596Z" fill="white"/>
<path d="M282.587 79.9265C282.716 79.9029 282.846 79.8845 282.975 79.8621C282.431 79.5249 281.919 79.1391 281.445 78.7092L282.587 79.9265Z" fill="white"/>
<path d="M367.351 90.3917C361.437 90.8643 355.492 91.2162 349.516 91.4473C344.972 91.6926 340.418 91.6617 335.878 91.3546C325.901 90.511 317.354 87.3796 307.837 85.666C299.114 84.0981 288.514 83.3428 282.975 79.8625C297.29 77.3848 312.121 82.4286 326.881 84.3056C338.821 85.7738 350.924 85.1761 362.66 82.539C364.294 85.1095 365.858 87.7271 367.351 90.3917Z" fill="white"/>
<path d="M238.629 217.704C224.774 170.15 216.62 121.12 216.62 71.5897V68H212.016V71.5896C212.016 121.12 203.862 170.15 190.008 217.704C189.338 220.006 188.999 222.392 189 224.789V224.789C189 225.696 189.179 226.594 189.526 227.431C189.873 228.269 190.381 229.03 191.022 229.672C191.664 230.313 192.425 230.821 193.263 231.168C194.1 231.515 194.998 231.694 195.905 231.694H205.112C205.112 232.903 205.35 234.1 205.812 235.217C206.275 236.334 206.953 237.349 207.808 238.204C208.663 239.059 209.678 239.737 210.795 240.2C211.912 240.662 213.109 240.901 214.318 240.901C215.527 240.901 216.724 240.662 217.841 240.2C218.958 239.737 219.973 239.059 220.828 238.204C221.683 237.349 222.361 236.334 222.824 235.217C223.287 234.1 223.525 232.903 223.525 231.694H230.689V251.537C229.678 251.567 228.717 251.982 228.003 252.697C227.289 253.413 226.876 254.375 226.849 255.385C226.821 256.396 227.182 257.379 227.857 258.132C228.531 258.885 229.468 259.351 230.476 259.435C231.483 259.519 232.485 259.214 233.274 258.583C234.064 257.952 234.582 257.043 234.723 256.041C234.863 255.04 234.615 254.023 234.029 253.199C233.443 252.375 232.564 251.807 231.572 251.611V231.694H232.731C234.563 231.694 236.319 230.967 237.614 229.672C238.909 228.377 239.636 226.62 239.636 224.789V224.789C239.638 222.391 239.298 220.006 238.629 217.704Z" fill="white"/>
</g>
<defs>
<clipPath id="clip0_7_878">
<rect width="390" height="354.213" fill="white"/>
</clipPath>
</defs>
</svg>
