<svg width="93" height="93" viewBox="0 0 93 93" fill="none" xmlns="http://www.w3.org/2000/svg">
<circle cx="46.5" cy="46.5" r="46.5" fill="white"/>
<path d="M73.4499 40.9813C73.9491 39.8826 74.2291 38.6812 74.2291 37.4286C74.2291 31.9866 68.9941 27.5714 62.5416 27.5714C60.1432 27.5714 57.9031 28.1875 56.0526 29.2348C52.6803 24.3062 46.3861 21 39.1666 21C28.4044 21 19.6875 28.3518 19.6875 37.4286C19.6875 37.7058 19.6997 37.983 19.7118 38.2603C12.8941 40.283 8 45.7661 8 52.2143C8 60.3772 15.8525 67 25.5312 67H70.3333C78.9406 67 85.9166 61.1165 85.9166 53.8571C85.9166 47.5013 80.5598 42.1929 73.4499 40.9813ZM57.2701 50.0888L44.4382 60.9112C43.6833 61.5478 42.4416 61.5478 41.6867 60.9112L28.8549 50.0888C27.6252 49.0518 28.5018 47.2857 30.2306 47.2857H38.1927V35.7857C38.1927 34.8821 39.0692 34.1429 40.1406 34.1429H45.9843C47.0557 34.1429 47.9322 34.8821 47.9322 35.7857V47.2857H55.8943C57.6231 47.2857 58.4997 49.0518 57.2701 50.0888Z" fill="#009BC0"/>
</svg>
