<svg width="695" height="521" viewBox="0 0 695 521" fill="none" xmlns="http://www.w3.org/2000/svg">
<g clip-path="url(#clip0_7_808)">
<path opacity="0.3" d="M472.667 33.4897H423.075V52.7553H472.667V33.4897Z" fill="#00B0FF"/>
<path opacity="0.3" d="M555.092 0.666748H505.5V19.9323H555.092V0.666748Z" fill="#00B0FF"/>
<path opacity="0.3" d="M558.512 60.2476H508.92V79.5132H558.512V60.2476Z" fill="#00B0FF"/>
<path opacity="0.3" d="M399.818 82.3672H350.226V101.633H399.818V82.3672Z" fill="#00B0FF"/>
<path opacity="0.3" d="M384.086 161.57H334.494V180.836H384.086V161.57Z" fill="#00B0FF"/>
<path opacity="0.3" d="M458.986 159.786H409.395V179.052H458.986V159.786Z" fill="#00B0FF"/>
<path d="M505.5 10.178L472.667 42.6761L508.92 69.8802" stroke="#3F3D56" stroke-width="0.81761" stroke-miterlimit="10"/>
<path d="M423.075 42.6765L375.022 82.3672" stroke="#3F3D56" stroke-width="0.81761" stroke-miterlimit="10"/>
<path d="M359.29 161.555L375.022 101.633L434.191 159.786" stroke="#3F3D56" stroke-width="0.81761" stroke-miterlimit="10"/>
<path opacity="0.3" d="M138.173 53.3367H88.5815V72.6023H138.173V53.3367Z" fill="#00B0FF"/>
<path opacity="0.3" d="M220.599 20.5139H171.007V39.7795H220.599V20.5139Z" fill="#00B0FF"/>
<path opacity="0.3" d="M224.019 80.0945H174.427V99.3601H224.019V80.0945Z" fill="#00B0FF"/>
<path opacity="0.3" d="M65.3246 102.214H15.7327V121.48H65.3246V102.214Z" fill="#00B0FF"/>
<path opacity="0.3" d="M49.5919 181.417H0V200.683H49.5919V181.417Z" fill="#00B0FF"/>
<path opacity="0.3" d="M124.493 179.634H74.9009V198.899H124.493V179.634Z" fill="#00B0FF"/>
<path d="M171.007 30.0251L138.174 62.5233L174.427 89.7274" stroke="#3F3D56" stroke-width="0.81761" stroke-miterlimit="10"/>
<path d="M88.5814 62.5237L40.5286 102.214" stroke="#3F3D56" stroke-width="0.81761" stroke-miterlimit="10"/>
<path d="M24.7961 181.402L40.5284 121.48L99.6969 179.633" stroke="#3F3D56" stroke-width="0.81761" stroke-miterlimit="10"/>
<path d="M224.019 89.7273H280.259" stroke="#3F3D56" stroke-width="0.81761" stroke-miterlimit="10"/>
<path d="M313.319 79.8674H255.013V99.0744H313.319V79.8674Z" fill="#00B0FF"/>
<path d="M313.395 89.4709H350.226" stroke="#3F3D56" stroke-width="0.81761" stroke-miterlimit="10"/>
<path d="M254.734 89.4707L220.599 30.0254" stroke="#3F3D56" stroke-width="0.81761" stroke-miterlimit="10"/>
<path d="M424.101 520.667C573.246 520.667 694.151 492.576 694.151 457.924C694.151 423.272 573.246 395.181 424.101 395.181C274.957 395.181 154.051 423.272 154.051 457.924C154.051 492.576 274.957 520.667 424.101 520.667Z" fill="#F2F2F2"/>
<path d="M549.296 251.388L522.963 389.02H517.262L516.635 388.003L514.819 385.055L537.623 256.485L541.084 254.973L549.296 251.388Z" fill="#47465A"/>
<path opacity="0.1" d="M541.084 254.973L516.635 388.003L514.819 385.055L537.623 256.485L541.084 254.973Z" fill="black"/>
<path d="M588.932 438.862L582.162 441.138L580.516 441.693L578.344 436.596L541.084 259.295L544.958 258.389L553.097 256.485L588.932 438.862Z" fill="#47465A"/>
<path opacity="0.1" d="M582.162 441.138L580.516 441.693L578.344 436.596L541.084 259.295L544.958 258.389L582.162 441.138Z" fill="black"/>
<path d="M266.144 251.388L260.172 429.799L253.327 431.385L252.842 431.498L250.941 427.817L254.742 253.087L258.399 252.543L266.144 251.388Z" fill="#47465A"/>
<path opacity="0.1" d="M258.399 252.544L253.327 431.385L252.842 431.499L250.941 427.817L254.742 253.087L258.399 252.544Z" fill="black"/>
<path d="M301.708 492.952L294.627 494.226L293.834 494.367L291.663 489.553L257.185 256.485L258.179 256.171L263.429 254.503L301.708 492.952Z" fill="#47465A"/>
<path opacity="0.1" d="M294.627 494.226L293.834 494.367L291.663 489.553L257.185 256.485L258.179 256.171L294.627 494.226Z" fill="black"/>
<path d="M451.564 236.945L477.925 272.083C478.829 273.287 480.014 274.228 481.367 274.817C482.72 275.406 484.195 275.621 485.651 275.443L593.866 262.223C595.947 261.969 597.866 260.926 599.258 259.293C600.651 257.661 601.42 255.552 601.42 253.366V227.317L451.564 236.945Z" fill="#7A799C"/>
<path d="M540.338 242.609H547.668V253.645C547.668 254.398 547.381 255.121 546.87 255.654C546.359 256.186 545.666 256.486 544.944 256.486H543.061C542.339 256.486 541.646 256.186 541.135 255.654C540.625 255.121 540.338 254.398 540.338 253.645V242.609Z" fill="#47465A"/>
<path d="M257.185 259.317L283.546 294.455C284.45 295.659 285.635 296.601 286.988 297.189C288.341 297.778 289.816 297.993 291.272 297.816L399.488 284.595C401.568 284.341 403.487 283.298 404.88 281.666C406.272 280.033 407.041 277.924 407.041 275.738V249.689L257.185 259.317Z" fill="#7A799C"/>
<path d="M345.959 264.981H353.289V276.017C353.289 276.77 353.002 277.493 352.491 278.026C351.98 278.558 351.287 278.858 350.565 278.858H348.682C347.96 278.858 347.267 278.558 346.756 278.026C346.246 277.493 345.959 276.77 345.959 276.017V264.981H345.959Z" fill="#47465A"/>
<path d="M287.471 277.113L609.358 238.001C610.369 237.878 611.316 237.419 612.057 236.69C612.798 235.962 613.294 235.004 613.471 233.958C613.649 232.912 613.499 231.835 613.043 230.885C612.586 229.935 611.849 229.165 610.94 228.687L553.36 198.479C542.019 192.53 529.285 190.083 516.656 191.426L230.684 221.843C229.662 221.955 228.69 222.364 227.881 223.025C227.071 223.686 226.456 224.572 226.107 225.58C225.757 226.589 225.687 227.679 225.904 228.728C226.121 229.776 226.617 230.739 227.334 231.507L260.636 267.148C264.082 270.837 268.293 273.653 272.945 275.38C277.596 277.107 282.566 277.7 287.471 277.113Z" fill="#47465A"/>
<path d="M644.771 232.7L641.328 230.715C641.328 230.715 637.611 233.569 634.583 245.594C631.555 257.618 640.242 245.724 640.242 245.724L644.043 237.512L644.771 232.7Z" fill="#47465A"/>
<path d="M607.936 342.859C607.936 342.859 604.407 360.134 602.778 364.948C601.98 367.305 598.125 369.46 593.852 371.108C590.063 372.58 586.141 373.648 582.146 374.294C577.53 374.86 518.348 365.232 489.571 358.718C470.185 354.332 467.679 349.299 468.108 346.484C468.246 345.646 468.631 344.874 469.21 344.275C469.21 344.275 497.716 324.169 507.76 314.54C517.805 304.912 537.623 312.558 559.341 316.522C581.06 320.487 607.936 342.859 607.936 342.859Z" fill="#47465A"/>
<path d="M641.328 230.715C641.328 230.715 654.63 239.777 609.836 258.468C609.836 258.468 585.49 272.788 588.659 331.777C588.809 334.429 589.583 337.002 590.913 339.269C595.535 347.198 605.438 367.271 588.932 369.763V374.294C588.932 374.294 618.795 358.718 622.053 345.408C625.311 332.098 636.17 258.185 641.599 251.388C647.029 244.592 650.558 233.83 641.328 230.715Z" fill="#47465A"/>
<path opacity="0.1" d="M593.852 371.108C590.063 372.58 586.141 373.648 582.146 374.294C577.53 374.86 518.348 365.232 489.571 358.718C470.185 354.332 467.679 349.299 468.108 346.484C480.851 351.029 522.23 365.455 537.08 366.648C554.726 368.064 588.438 372 590.993 369.324C591.976 368.293 592.983 369.38 593.852 371.108Z" fill="black"/>
<path d="M438.804 488.987L464.595 366.081C464.595 366.081 469.21 353.054 479.798 353.621L489.571 358.718C489.571 358.718 473.282 354.754 469.753 367.78C466.224 380.807 443.691 488.987 443.691 488.987H438.804Z" fill="#47465A"/>
<path d="M500.702 432.915L511.018 357.869H515.633L505.045 432.915H500.702Z" fill="#47465A"/>
<path d="M599.52 506.261L589.747 389.02C589.747 389.02 589.747 379.108 594.633 374.294C599.52 369.479 615.295 355.746 615.295 355.746C615.295 355.746 619.338 354.753 622.596 364.382C625.854 374.01 648.386 470.296 648.386 470.296L644.043 472.278L616.08 361.267L596.805 380.241C596.805 380.241 593.005 387.321 594.905 393.834C596.805 400.347 603.864 506.261 603.864 506.261H599.52Z" fill="#47465A"/>
<path d="M569.386 371.462L593.819 378.825L599.249 373.444L585.132 371.462H569.386Z" fill="#47465A"/>
<path d="M352.177 164.761L356.139 226.75L442.741 217.971L439.295 157.374C439.249 156.562 439.047 155.769 438.703 155.039C438.358 154.31 437.877 153.66 437.288 153.128C436.699 152.596 436.013 152.192 435.272 151.94C434.531 151.688 433.749 151.593 432.973 151.662L357.517 158.282C355.991 158.416 354.575 159.17 353.577 160.382C352.578 161.594 352.075 163.166 352.177 164.761Z" fill="#7A799C"/>
<path d="M471.789 235.812L385.459 245.637L382.201 246.007L356.954 229.016V225.334L442.74 217.275L471.789 235.812Z" fill="#7A799C"/>
<path opacity="0.1" d="M385.459 245.637L382.201 246.007L356.954 229.016V225.72L385.459 245.637Z" fill="black"/>
<path d="M358.04 164.165L361.026 219.387L437.04 212.025L434.325 158.218L358.04 164.165Z" fill="#9493B6"/>
<path opacity="0.1" d="M403.376 234.68L412.607 241.194L440.569 238.361L431.067 232.131L403.376 234.68Z" fill="black"/>
<path d="M365.641 226.75L377.314 235.812L451.972 228.45L438.669 219.387L365.641 226.75Z" fill="#9493B6"/>
<path d="M553.233 143.067H498.123V200.555H553.233V143.067Z" fill="#FF6584"/>
<path opacity="0.1" d="M553.233 143.067H498.123V200.555H553.233V143.067Z" fill="black"/>
<path d="M517.102 169.671C517.102 169.671 524.876 191.635 517.102 195.69C509.328 199.745 544.96 195.69 544.96 195.69L555.002 187.242C555.002 187.242 532.327 180.484 535.566 164.941C538.805 149.397 517.102 169.671 517.102 169.671Z" fill="#FBBEBE"/>
<path opacity="0.1" d="M517.102 169.671C517.102 169.671 524.876 191.635 517.102 195.69C509.328 199.745 544.96 195.69 544.96 195.69L555.002 187.242C555.002 187.242 532.327 180.484 535.566 164.941C538.805 149.397 517.102 169.671 517.102 169.671Z" fill="black"/>
<path d="M453.288 389.984C453.288 389.984 482.442 432.898 477.583 444.725C472.724 456.551 475.315 463.985 465.598 468.04C455.88 472.095 453.288 479.529 461.71 479.191C470.133 478.853 481.146 476.488 482.766 473.447C484.385 470.406 488.273 455.876 493.779 453.848C499.286 451.821 509.652 444.049 502.201 434.588C494.751 425.126 475.979 390.277 477.429 386.752C478.879 383.226 453.288 389.984 453.288 389.984Z" fill="#FBBEBE"/>
<path d="M514.187 305.171C514.187 305.171 453.936 309.225 438.388 324.431C422.839 339.637 451.993 396.405 455.232 397.08C458.471 397.756 483.738 395.053 482.766 387.619C481.794 380.185 464.626 349.774 464.626 349.774C464.626 349.774 486.977 341.326 499.286 339.299C511.595 337.271 525.2 327.81 525.2 327.81L514.187 305.171Z" fill="#9493B6"/>
<path d="M486.653 295.709C486.653 295.709 487.625 333.217 496.695 334.568C505.765 335.92 496.695 305.846 496.695 305.846L496.371 294.358L486.653 295.709Z" fill="#FBBEBE"/>
<path d="M514.187 197.379C514.187 197.379 497.343 192.311 494.103 205.827C490.864 219.343 489.892 265.974 489.892 265.974L484.062 303.143C484.062 303.143 494.751 299.764 497.019 301.454L510.624 283.545L514.187 197.379Z" fill="#00B0FF"/>
<path opacity="0.1" d="M514.187 197.379C514.187 197.379 497.343 192.311 494.103 205.827C490.864 219.343 489.892 265.974 489.892 265.974L484.062 303.143C484.062 303.143 494.751 299.764 497.019 301.454L510.624 283.545L514.187 197.379Z" fill="black"/>
<path d="M537.203 397.18C537.203 397.18 548.523 420.396 555.326 420.058C562.128 419.72 568.607 415.327 571.846 429.181C575.085 443.035 571.198 439.318 575.085 447.428C578.972 455.538 579.62 469.73 572.17 473.109C564.72 476.488 557.917 476.826 557.593 473.109C557.269 469.392 564.072 469.392 556.297 456.214C548.523 443.035 532.003 419.044 525.2 416.679C518.398 414.313 537.203 397.18 537.203 397.18Z" fill="#FBBEBE"/>
<path d="M566.663 291.316C566.663 291.316 589.986 331.865 574.761 343.692C559.537 355.518 514.187 378.158 514.187 378.158C514.187 378.158 538.481 395.391 539.777 401.135C541.073 406.88 528.116 422.423 523.581 422.761C519.046 423.099 505.765 407.217 491.512 403.163C477.259 399.108 468.513 370.048 484.062 359.235C499.61 348.422 514.187 330.513 514.187 330.513L509.654 304.498L566.663 291.316Z" fill="#9493B6"/>
<path d="M546.446 156.094C546.446 170.463 532.335 182.342 518.56 182.342C511.944 182.342 505.6 179.601 500.923 174.722C496.245 169.842 493.617 163.224 493.617 156.324C493.617 149.423 496.245 142.805 500.923 137.926C505.6 133.046 511.944 130.305 518.56 130.305C532.335 130.305 546.446 141.724 546.446 156.094Z" fill="#FBBEBE"/>
<path d="M524.876 193.662C524.876 193.662 547.227 183.525 547.227 182.174C547.227 180.822 560.184 185.215 563.1 187.918C566.015 190.621 567.635 190.283 569.578 195.69C571.522 201.096 559.86 251.444 559.86 251.444C559.86 251.444 566.339 290.303 569.902 294.02C573.465 297.737 541.072 303.143 541.072 303.143C541.072 303.143 519.693 307.198 516.13 308.887C512.567 310.577 506.088 312.942 507.384 308.887C508.68 304.833 514.187 301.792 504.793 296.723C504.793 296.723 508.032 280.166 504.793 272.732C501.553 265.298 486.653 238.266 498.638 218.667C510.623 199.069 516.13 191.973 516.13 191.973C516.13 191.973 520.341 195.69 524.876 193.662Z" fill="#00B0FF"/>
<path d="M532.003 285.91C532.003 285.91 506.736 297.6 499.124 298.682C491.512 299.764 468.513 305.846 481.146 311.253C493.779 316.659 512.891 308.55 512.891 308.55L539.777 296.723L532.003 285.91Z" fill="#FBBEBE"/>
<path opacity="0.1" d="M559.205 192.626C559.205 192.626 568.536 187.918 571.127 204.475C573.718 221.033 582.788 273.408 571.127 281.179C559.466 288.951 532.58 301.454 532.58 301.454C532.58 301.454 516.707 290.303 524.157 286.248C531.608 282.193 549.424 270.704 552.015 266.65C554.607 262.595 557.225 217.334 552.69 209.901C548.155 202.467 559.205 192.626 559.205 192.626Z" fill="black"/>
<path d="M558.565 188.594C558.565 188.594 571.522 187.918 574.113 204.475C576.705 221.032 585.775 273.408 574.113 281.179C562.452 288.951 535.566 301.454 535.566 301.454C535.566 301.454 519.693 290.303 527.144 286.248C534.594 282.193 552.41 270.704 555.001 266.649C557.593 262.595 553.058 220.357 548.523 212.923C543.988 205.489 558.565 188.594 558.565 188.594Z" fill="#00B0FF"/>
<path d="M512.416 112.525C508.439 113.089 504.174 114.607 502.173 118.236C501.194 120.012 500.877 122.095 500.123 123.986C498.041 129.206 492.986 132.323 489.336 136.502C484.58 141.948 482.218 150.155 485.023 156.917C486.109 159.535 487.873 161.778 489.211 164.266C492.943 171.208 493.143 179.545 493.249 187.504L493.457 203.152C493.489 205.541 493.515 207.979 492.825 210.258C492.135 212.537 490.595 214.671 488.411 215.39C490.821 216.262 493.441 216.268 495.855 215.408C498.269 214.549 500.338 212.872 501.734 210.645C502.032 212.615 501.862 214.632 501.239 216.519C500.616 218.405 499.559 220.103 498.161 221.464C504.099 220.005 509.079 215.499 512.217 210.041C515.354 204.583 516.809 198.234 517.461 191.906C517.806 188.559 517.927 185.098 516.914 181.902C516.2 179.652 514.955 177.634 513.772 175.609C510.725 170.388 507.981 164.836 506.998 158.81C506.016 152.785 507.002 146.174 510.753 141.478C512.193 139.663 514.007 138.211 516.059 137.23C518.112 136.248 520.35 135.762 522.608 135.808C524.865 135.899 527.062 136.593 528.989 137.823C530.915 139.053 532.507 140.779 533.611 142.835C534.478 144.536 535.711 146.842 537.467 146.244C537.792 146.101 538.11 145.938 538.418 145.757C540.376 144.828 542.6 146.662 543.463 148.717C546.187 155.201 541.169 162.278 540.651 169.336C540.168 175.901 543.677 182.093 547.872 187.014C555.117 195.479 564.58 201.544 575.093 204.46C573.554 204.056 572.174 203.161 571.144 201.901C575.419 202.08 579.698 201.706 583.884 200.787C579.326 197.204 574.736 193.591 570.931 189.154C567.126 184.717 564.112 179.348 563.291 173.457C562.19 165.55 565.013 156.988 561.785 149.742C558.834 143.118 551.516 139.416 548.843 132.664C546.129 125.806 544.369 119.849 537.181 116.863C529.336 113.605 520.892 111.321 512.416 112.525Z" fill="#FF6584"/>
</g>
<defs>
<clipPath id="clip0_7_808">
<rect width="694.151" height="520" fill="white" transform="translate(0 0.666748)"/>
</clipPath>
</defs>
</svg>
