<?xml version="1.0" encoding="UTF-8" standalone="no"?>
<!DOCTYPE svg PUBLIC "-//W3C//DTD SVG 1.1//EN" "http://www.w3.org/Graphics/SVG/1.1/DTD/svg11.dtd">
<svg version="1.1" xmlns="http://www.w3.org/2000/svg" xmlns:xlink="http://www.w3.org/1999/xlink" preserveAspectRatio="xMidYMid meet" viewBox="128.4736842186011 105.31578937160211 36.118601079580685 33.055412346218816" width="32.12" height="29.06"><defs><path d="M130.06 129.24C132.12 125.68 134.16 122.11 136.23 118.55C137.9 115.69 141.52 115.7 143.2 118.56C145.27 122.11 147.33 125.68 149.37 129.25C150.7 131.59 149.64 134.38 147.2 135.1C146.53 135.3 145.94 135.24 145.34 134.77C143.66 133.46 141.92 132.2 140.22 130.89C139.82 130.59 139.56 130.6 139.18 130.91C137.48 132.21 135.74 133.47 134.05 134.8C133.48 135.24 132.92 135.31 132.28 135.13C130.63 134.71 129.47 133.12 129.48 131.3C129.44 130.55 129.69 129.88 130.06 129.24Z" id="kx88hu9Mb"></path><path d="M148.91 108.79C151.29 112.89 153.7 116.97 156.01 121.1C157.67 124.09 159.46 127.01 161.11 130C162.22 132.01 161.33 134.28 159.38 135.11C157.74 135.81 155.6 135.05 154.71 133.51C152.22 129.18 149.68 124.89 147.21 120.54C145.48 117.49 143.7 114.48 141.98 111.43C140.65 109.04 142.81 105.81 145.35 106.38C147.23 106.07 148.1 107.41 148.91 108.79Z" id="b1Pv6bsIgP"></path></defs><g><g><use xlink:href="#kx88hu9Mb" opacity="1" fill="#009bc0" fill-opacity="1"></use><g><use xlink:href="#kx88hu9Mb" opacity="1" fill-opacity="0" stroke="#000000" stroke-width="1" stroke-opacity="0"></use></g></g><g><use xlink:href="#b1Pv6bsIgP" opacity="1" fill="#1b3854" fill-opacity="1"></use><g><use xlink:href="#b1Pv6bsIgP" opacity="1" fill-opacity="0" stroke="#000000" stroke-width="1" stroke-opacity="0"></use></g></g></g></svg>