<svg width="44" height="43" viewBox="0 0 44 43" fill="none" xmlns="http://www.w3.org/2000/svg">
<g opacity="0.1">
<path d="M2.92677 22.5532C3.27442 21.8859 3.82332 21.4353 4.4649 21.0635C8.02606 19.0058 11.5778 16.9427 15.1484 14.8903C18.0313 13.2462 21.1618 15.0661 21.1795 18.3849C21.1928 22.4939 21.2008 26.6122 21.1751 30.7237C21.1622 33.4211 18.8447 35.3036 16.3757 34.7085C15.6938 34.5412 15.2125 34.2004 14.9288 33.4956C14.1283 31.5113 13.248 29.5563 12.4326 27.5759C12.2367 27.1105 12.0052 26.9895 11.5231 27.0633C9.40031 27.3474 7.2671 27.5625 5.14282 27.8709C4.42037 27.9696 3.90739 27.7489 3.43892 27.2772C2.21995 26.0828 2.00766 24.1235 2.92677 22.5532Z" fill="#009BC0"/>
<path d="M29.1341 8.91281C30.9213 9.57979 31.0047 11.1753 31.0097 12.7759C31.0238 17.5143 31.0716 22.2595 31.0035 26.9882C30.9518 30.4053 31.0363 33.8256 30.9697 37.2467C30.9279 39.5373 29.0172 41.0636 26.9175 40.8074C25.1468 40.5903 23.6729 38.8586 23.6783 37.0878C23.6843 32.097 23.627 27.1073 23.6628 22.1084C23.6907 18.6021 23.6553 15.0968 23.6927 11.5959C23.7367 8.86621 27.2138 7.14992 29.1341 8.91281Z" fill="#132230"/>
</g>
</svg>
