<svg width="62" height="50" viewBox="0 0 62 50" fill="none" xmlns="http://www.w3.org/2000/svg">
<path fill-rule="evenodd" clip-rule="evenodd" d="M41.4569 0C35.7899 0 31.3433 5.14969 31.3433 11.2741C31.3433 17.3924 35.7899 22.5416 41.4569 22.5416C47.1297 22.5416 51.5778 17.3929 51.5778 11.2741C51.5778 5.14957 47.1297 0 41.4569 0ZM41.4569 2.72972C45.4614 2.72972 48.848 6.45192 48.848 11.2741C48.848 16.0887 45.4614 19.8112 41.4569 19.8112C37.4606 19.8112 34.073 16.0881 34.073 11.2741C34.073 6.45192 37.4606 2.72972 41.4569 2.72972Z" fill="#009BC0"/>
<path fill-rule="evenodd" clip-rule="evenodd" d="M34.209 22.3554C32.3837 22.8761 30.6386 23.6039 29.0693 24.552C27.6513 23.6714 26.074 23.0037 24.4199 22.5258C24.289 22.4843 24.152 22.4624 24.0149 22.4615C23.5784 22.4682 23.1515 22.6976 22.9058 23.0588C21.7425 24.7324 20.0214 25.7248 18.086 25.7248C16.1593 25.7248 14.4162 24.7353 13.2448 23.0588C12.9226 22.5962 12.2943 22.372 11.7521 22.5257C8.85439 23.3544 6.19742 24.7728 4.22403 26.8762C2.25065 28.9796 1.01263 31.7965 0.982536 35.1084C0.954929 38.0076 1.01348 41.0467 1.08916 43.1696C1.112 43.7665 1.57276 44.3191 2.15536 44.449C10.5336 46.3435 15.9222 47.0232 22.1597 46.4753C22.3259 46.8775 22.6952 47.1893 23.1193 47.2859C38.1704 50.6887 44.7504 50.6887 59.8015 47.2859C60.3841 47.1555 60.8449 46.6029 60.8677 46.0065C60.9567 43.5495 61.0515 40.0305 61.0172 36.6868C60.9829 32.9108 59.554 29.7198 57.3065 27.3242C55.0584 24.9281 52.0297 23.3031 48.7116 22.3549C48.0772 22.185 47.5022 22.5139 47.219 22.888C45.8367 24.8701 43.7714 26.0657 41.461 26.0657C39.1582 26.0657 37.0848 24.87 35.703 22.888C35.2822 22.3516 34.8177 22.1922 34.2103 22.3549L34.209 22.3554ZM34.081 25.2346C35.9097 27.399 38.541 28.7964 41.4602 28.7964C44.3841 28.7964 47.0106 27.3988 48.8394 25.2346C51.4173 26.0966 53.6773 27.4479 55.3228 29.2015C57.152 31.1511 58.2596 33.5854 58.2872 36.7082C58.3162 39.5375 58.2548 42.5271 58.1805 44.8551C44.3918 47.9128 38.5429 47.9094 24.7615 44.8551C24.662 42.0287 24.6116 39.1523 24.6335 36.7082C24.6611 33.5848 25.7696 31.1507 27.5979 29.2015C29.3747 27.367 31.7515 26.0258 34.081 25.2346ZM11.6456 25.405C13.2582 27.2613 15.5454 28.4546 18.0861 28.4546C20.6303 28.4546 22.9178 27.2827 24.5266 25.4264C25.2744 25.6834 25.9878 25.9771 26.6595 26.3222C26.2944 26.6434 25.9469 26.9704 25.6147 27.3246C23.368 29.7197 21.9387 32.9131 21.9039 36.6867C21.8782 39.1656 21.9292 41.5988 21.9891 43.7669C16.2973 44.2795 11.4932 43.7178 3.79792 42.0181C3.73699 40.0294 3.68987 37.5195 3.71272 35.1297C3.73699 32.4704 4.67468 30.4099 6.2292 28.7529C7.60283 27.2888 9.48559 26.1452 11.6456 25.405Z" fill="#3D3D3D"/>
<path fill-rule="evenodd" clip-rule="evenodd" d="M18.082 3.17352C13.0641 3.17352 9.14209 7.722 9.14209 13.1102C9.14209 18.4978 13.0646 23.0468 18.082 23.0468C23.0998 23.0468 27.0219 18.4983 27.0219 13.1102C27.0219 7.72249 23.0993 3.17352 18.082 3.17352ZM18.082 5.90324C21.4309 5.90324 24.2921 9.0252 24.2921 13.1102C24.2921 17.1946 21.4311 20.3171 18.082 20.3171C14.733 20.3171 11.8718 17.1951 11.8718 13.1102C11.8718 9.02569 14.7329 5.90324 18.082 5.90324Z" fill="#009BC0"/>
</svg>
