<svg width="54" height="54" viewBox="0 0 54 54" fill="none" xmlns="http://www.w3.org/2000/svg">
<path d="M16.9301 15.7083C15.201 15.7194 13.567 16.4995 12.4715 17.8373C11.4478 19.0686 11.0486 20.703 11.39 22.2672C11.39 22.3586 11.8363 22.4333 12.3685 22.4273V22.4277C12.7022 22.4576 13.0384 22.4229 13.3586 22.3247C13.7618 21.3901 14.5151 20.6511 15.4573 20.2658C16.3995 19.881 17.4551 19.881 18.3968 20.2658C19.339 20.6511 20.0928 21.39 20.4956 22.3247C20.8361 22.4197 21.191 22.4504 21.5431 22.4161C22.0813 22.4161 22.5217 22.353 22.5504 22.256C22.8718 20.6799 22.4494 19.0438 21.4058 17.8202C20.3024 16.4856 18.6619 15.7115 16.9301 15.7083L16.9301 15.7083Z" fill="#009BC0"/>
<path d="M39.8579 22.4158C40.3961 22.4158 40.8364 22.3527 40.8652 22.2557C41.1865 20.6795 40.7642 19.0435 39.7206 17.8199C38.6167 16.4905 36.9787 15.7212 35.2505 15.7212C33.5226 15.7212 31.8841 16.4905 30.7808 17.8199C29.7571 19.0512 29.3579 20.6856 29.6988 22.2498C29.6988 22.3412 30.1452 22.4159 30.6773 22.4099L30.6777 22.4103C31.0111 22.4402 31.3476 22.4055 31.6678 22.3073C32.0706 21.3727 32.8243 20.6333 33.7666 20.2484C34.7087 19.8636 35.7639 19.8636 36.7061 20.2484C37.6483 20.6333 38.402 21.3726 38.8048 22.3073C39.1462 22.4087 39.5031 22.4454 39.858 22.4159L39.8579 22.4158Z" fill="#009BC0"/>
<path d="M45.5812 7.95294C40.6535 2.96454 33.9649 0.110126 26.9538 0.00311973C19.9433 -0.103876 13.1708 2.545 8.09337 7.38091C3.12295 12.1218 0.219791 18.6293 0.0122175 25.4953C-0.0165269 26.3309 0.366737 26.9948 0.939224 26.9948C1.51171 26.9948 1.94089 26.3768 1.99794 25.6098V25.3923C2.58441 19.209 5.53466 13.4908 10.234 9.43029C14.8531 5.44562 20.8304 3.39554 26.9227 3.70695C32.9007 4.03112 38.5247 6.6421 42.6312 10.9985C46.7373 15.3549 49.0109 21.1233 48.9813 27.1097C48.9522 33.0961 46.6219 38.8425 42.4731 43.1585C38.3243 47.4742 32.6748 50.0296 26.694 50.2951C20.6098 50.5335 14.6669 48.4228 10.0964 44.4001C5.43613 40.3 2.539 34.5591 2.00918 28.3747C1.93453 27.6022 1.45984 26.9954 0.938816 26.9954C0.417788 26.9954 -0.0113506 27.6422 0.00022898 28.4949V28.7125C0.267713 35.5772 3.22165 42.0622 8.22477 46.7696C13.3449 51.5648 20.1426 54.1586 27.1557 53.9925C34.1686 53.8268 40.8366 50.9145 45.7239 45.8825C50.6887 40.8099 53.4573 33.9872 53.4306 26.8892C53.4038 19.7913 50.5837 12.9897 45.5809 7.95416L45.5812 7.95294Z" fill="#3D3D3D"/>
<path d="M21.9329 35.5795C20.4558 35.0126 19.0649 34.2421 17.8009 33.2904C17.6979 33.2389 17.3258 33.4908 16.9481 33.8629C16.5704 34.2349 16.3129 34.6182 16.3756 34.7156V34.7152C17.321 36.4055 18.6624 37.8412 20.2849 38.8992C22.033 39.9931 24.0544 40.5736 26.1167 40.5736C28.1796 40.5736 30.2004 39.9931 31.9486 38.8992C33.5675 37.8292 34.9061 36.3864 35.8522 34.6925C35.9153 34.6011 35.669 34.2346 35.2797 33.8569C34.8905 33.4793 34.5356 33.2329 34.4441 33.2844C33.1773 34.2386 31.7825 35.0095 30.3006 35.574C28.9591 36.0531 27.5467 36.3026 26.1222 36.3122C24.6941 36.3086 23.2773 36.061 21.9327 35.5796L21.9329 35.5795Z" fill="#3D3D3D"/>
</svg>
