<svg width="54" height="54" viewBox="0 0 54 54" fill="none" xmlns="http://www.w3.org/2000/svg">
<path d="M51.8707 16.4749C51.4364 17.3997 50.9619 18.3391 50.4597 19.2758C51.1451 21.3534 51.5818 23.5463 51.6875 25.8288H46.614C46.0248 26.7584 45.5012 27.559 45.0948 28.1765H51.6899C51.4878 32.466 50.1943 36.4622 48.0765 39.9161H40.4603C41.2 37.4651 41.7071 34.7652 41.9889 31.9053L40.3313 29.5128C40.2936 29.4613 40.1128 29.196 39.8431 28.7943C39.6812 32.8208 39.0095 36.6197 37.9203 39.9141H28.1738V28.1745H39.4274C39.019 27.557 38.4978 26.7563 37.9082 25.8267H28.1742V14.0871H31.602C31.2686 13.3336 31.0222 12.5514 30.8551 11.7394H28.1741V2.46525C29.435 2.69519 30.6464 3.30128 31.7851 4.20259C32.3837 3.00066 33.1513 1.90398 34.1073 0.976741C31.8389 0.359252 29.4653 0 27 0C12.0888 0 0 12.0888 0 27C0 41.9132 12.0888 54 27 54C41.9132 54 54 41.9132 54 27C54.0004 23.2671 53.2418 19.71 51.8708 16.4749L51.8707 16.4749ZM19.4612 3.43219C17.402 5.46315 15.6481 8.30181 14.3381 11.7391H7.55518C10.5794 7.89539 14.7021 4.96084 19.4608 3.43219H19.4612ZM5.9255 14.0871H13.5374C12.4856 17.5806 11.8705 21.5674 11.7718 25.8267H2.30974C2.51137 21.5369 3.80529 17.5363 5.9255 14.0871ZM2.30974 28.1742H11.7718C11.8704 32.4334 12.4856 36.4197 13.5397 39.9138H5.9254C3.80287 36.4601 2.51128 32.4639 2.30964 28.1742H2.30974ZM7.55468 42.2614H14.34C15.6501 45.6986 17.4039 48.5373 19.4631 50.5682C14.7017 49.0443 10.5789 46.1095 7.55448 42.2614H7.55468ZM25.8257 51.5355C22.2827 50.8921 19.106 47.3774 16.9532 42.2614H25.8257V51.5355ZM25.8257 39.9136H16.0818C14.9337 36.4457 14.2294 32.4334 14.1189 28.174H25.8253L25.8257 39.9136ZM25.8257 25.8265H14.1193C14.2297 21.5649 14.9341 17.555 16.0822 14.0869H25.8257V25.8265ZM25.8257 11.7394H16.9528C19.1059 6.62101 22.2823 3.10869 25.8253 2.46521L25.8257 11.7394ZM28.1734 51.5355V42.2614H37.0459C34.8908 47.3797 31.7164 50.892 28.1734 51.5355ZM34.5362 50.5682C36.5954 48.5397 38.3493 45.701 39.6617 42.2613H46.4494C43.4204 46.1093 39.293 49.0443 34.5367 50.5682H34.5362Z" fill="#3D3D3D"/>
<path d="M32.98 10.4899C33.1278 11.7295 33.5059 12.8848 34.0881 13.9271C36.6193 20.0313 42.2613 28.1742 42.2613 28.1742C42.2613 28.1742 47.9032 20.0317 50.4342 13.9301C51.0163 12.8854 51.3944 11.7302 51.5422 10.4905C51.613 10.0935 51.6527 9.72519 51.6527 9.39147C51.6527 4.20509 47.4478 0.000183105 42.2614 0.000183105C37.075 0.000183105 32.8701 4.20509 32.8701 9.39147C32.8701 9.72517 32.9098 10.0935 32.9802 10.4905L32.98 10.4899ZM42.2612 4.69542C44.8535 4.69542 46.9571 6.79904 46.9571 9.39127C46.9571 11.9835 44.8535 14.0871 42.2612 14.0871C39.669 14.0871 37.5654 11.9835 37.5654 9.39127C37.5654 6.79904 39.669 4.69542 42.2612 4.69542Z" fill="#009BC0"/>
</svg>
