<svg width="48" height="54" viewBox="0 0 48 54" fill="none" xmlns="http://www.w3.org/2000/svg">
<path d="M34.1381 33.3352L33.8432 33.1703C33.9001 32.6811 33.9001 32.1871 33.8432 31.6978L34.1358 31.5346H34.1354C34.5131 31.3276 34.7902 30.9757 34.9033 30.5601C35.0139 30.1528 34.9514 29.7181 34.7313 29.3583L33.5828 27.4554V27.455C33.3618 27.1003 33.0139 26.8431 32.6098 26.7368C32.2058 26.6305 31.7762 26.6831 31.4096 26.8837L31.0744 27.0692V27.0688C30.6421 26.7603 30.1771 26.5011 29.6875 26.2957V25.9852V25.9856C29.6827 25.564 29.5112 25.1616 29.2102 24.8662C28.9096 24.5708 28.504 24.4064 28.0825 24.4092H25.7811C25.3595 24.4064 24.9539 24.5708 24.6534 24.8662C24.3524 25.1616 24.1808 25.5641 24.176 25.9856V26.2961V26.2957C23.6868 26.5007 23.2222 26.7599 22.7911 27.0688L22.4551 26.8833V26.8837C22.0884 26.6835 21.6589 26.6313 21.2553 26.7372C20.8512 26.8435 20.5033 27.1007 20.2827 27.455L19.1323 29.3579V29.3583C18.9129 29.7185 18.8512 30.1536 18.9611 30.5609C19.0745 30.9753 19.3504 31.326 19.7262 31.5338L20.0212 31.6979H20.0216C19.9929 31.9423 19.9786 32.1883 19.9786 32.4347C19.979 32.6804 19.9933 32.926 20.0216 33.1704L19.7274 33.3344C19.3508 33.5418 19.0745 33.8925 18.9611 34.3074C18.8508 34.7146 18.9129 35.1497 19.1335 35.51L20.282 37.4129C20.5033 37.7672 20.8517 38.0236 21.2557 38.1294C21.6598 38.2357 22.0889 38.184 22.4559 37.9845L22.7911 37.799C23.2223 38.1084 23.6868 38.3675 24.1761 38.5721V38.879C24.1809 39.3006 24.3525 39.7035 24.653 39.9988C24.954 40.2946 25.3596 40.459 25.7812 40.4566H28.079C28.5009 40.459 28.9066 40.2946 29.2071 39.9988C29.5081 39.7035 29.6796 39.3006 29.684 38.879V38.5685C30.1741 38.3639 30.6391 38.1048 31.0709 37.7954L31.4061 37.9802C31.7724 38.1812 32.2019 38.2337 32.6063 38.1278C33.0104 38.0216 33.3587 37.7644 33.5793 37.4093L34.727 35.508V35.5084C34.9475 35.1482 35.0104 34.7127 34.8998 34.3047C34.7871 33.8918 34.5124 33.5423 34.1382 33.3353L34.1381 33.3352ZM32.1015 32.4347C32.1011 32.6548 32.0852 32.8746 32.0534 33.0927C32.0132 33.4048 32.0681 33.7221 32.2114 34.0024C32.3547 34.283 32.5793 34.5135 32.8559 34.664L33.0816 34.7898L32.1382 36.3511L31.8492 36.1906V36.1902C31.5713 36.0418 31.2572 35.9745 30.9427 35.9976C30.6286 36.0203 30.3273 36.1317 30.0737 36.3188C29.7206 36.5784 29.336 36.7918 28.9288 36.9538C28.6298 37.0676 28.3723 37.2687 28.1892 37.531C28.0056 37.793 27.9057 38.1043 27.9017 38.4243V38.6767H25.9558V38.4243C25.9519 38.1043 25.852 37.793 25.6684 37.5306C25.4853 37.2687 25.2273 37.0676 24.9284 36.9538C24.5215 36.7914 24.137 36.578 23.7835 36.3188C23.5307 36.1309 23.2298 36.0187 22.9157 35.996C22.6012 35.9733 22.2871 36.0406 22.01 36.1902L21.7202 36.3507L20.7767 34.7894L20.9989 34.6656C21.2759 34.5147 21.5013 34.283 21.6442 34.0016C21.7875 33.7201 21.8424 33.402 21.8014 33.0891C21.7377 32.6536 21.7377 32.211 21.8014 31.7754C21.8412 31.4629 21.7863 31.146 21.643 30.8654C21.4997 30.5847 21.2751 30.3542 20.9989 30.2034L20.7744 30.0783L21.717 28.5171L22.006 28.6767H22.0056C22.2831 28.8264 22.5972 28.8937 22.9117 28.8714C23.2262 28.8487 23.5275 28.7368 23.7811 28.5493C24.1342 28.2902 24.5192 28.0772 24.926 27.9144C25.2246 27.8005 25.4825 27.5995 25.6652 27.3371C25.8484 27.0748 25.9483 26.7635 25.9523 26.4438V26.1922H27.9005V26.4438C27.9053 26.7635 28.006 27.0744 28.1899 27.3363C28.3738 27.5979 28.6322 27.7981 28.9315 27.9108C29.3388 28.074 29.7237 28.2882 30.0772 28.5485C30.3308 28.7348 30.6322 28.8459 30.9463 28.8682C31.2603 28.8905 31.5744 28.8236 31.8519 28.6751L32.1409 28.5147L33.0824 30.0784L32.8611 30.2014V30.2018C32.5832 30.3515 32.3571 30.5824 32.2126 30.8634C32.0681 31.1449 32.0123 31.463 32.0525 31.7762C32.0848 31.9944 32.1011 32.2141 32.1015 32.4347H32.1015Z" fill="#3D3D3D"/>
<path d="M40.1725 41.8926C39.8242 41.5447 39.2597 41.5447 38.9118 41.8926L38.2812 42.5232L35.7282 39.9702C38.3624 36.901 39.2107 32.6832 37.9679 28.8344C36.7255 24.9856 33.5707 22.0601 29.639 21.1107C25.7075 20.1616 21.5653 21.3252 18.704 24.1831C15.8425 27.041 14.6725 31.1815 15.6164 35.1141C16.5598 39.0468 19.481 42.2057 23.3278 43.4537C27.1749 44.7021 31.3943 43.8593 34.4667 41.23L37.0208 43.7837L36.3902 44.4143C36.0419 44.7623 36.0419 45.3267 36.3902 45.6751L43.9563 53.2412C44.3046 53.5895 44.8691 53.5895 45.2174 53.2412L47.7393 50.7193L47.7389 50.7197C48.0873 50.3713 48.0873 49.8068 47.7389 49.4585L40.1725 41.8926ZM33.8672 39.3699C31.7111 41.5264 28.6745 42.5574 25.651 42.1597C22.6275 41.7621 19.9611 39.9806 18.436 37.3401C16.9109 34.6991 16.7012 31.4993 17.8679 28.6816C19.0347 25.8643 21.4455 23.7496 24.3911 22.9602C27.3365 22.1708 30.4819 22.7962 32.9014 24.6524C35.3206 26.5083 36.7394 29.3846 36.7394 32.4339C36.7474 35.037 35.7132 37.5346 33.8672 39.3698L33.8672 39.3699ZM44.5862 51.3516L38.2808 45.0463L39.5416 43.7843L45.8469 50.0897L44.5862 51.3516Z" fill="#009BC0"/>
<path d="M26.9302 28.8683C25.9843 28.8683 25.077 29.2441 24.4079 29.9129C23.7391 30.5817 23.3633 31.489 23.3633 32.4352C23.3633 33.3811 23.7391 34.2884 24.4079 34.9571C25.0771 35.6263 25.9843 36.0021 26.9302 36.0021C27.876 36.0021 28.7833 35.6263 29.4525 34.9571C30.1213 34.2883 30.4971 33.3811 30.4971 32.4352C30.4971 31.489 30.1213 30.5817 29.4525 29.9129C28.7833 29.2441 27.876 28.8683 26.9302 28.8683ZM26.9302 34.2187C26.4572 34.2187 26.0034 34.0308 25.669 33.696C25.3346 33.3616 25.1467 32.9082 25.1467 32.4352C25.1467 31.9619 25.3346 31.5085 25.669 31.1741C26.0034 30.8397 26.4572 30.6518 26.9302 30.6518C27.4031 30.6518 27.8569 30.8397 28.1913 31.1741C28.5257 31.5085 28.7136 31.9619 28.7136 32.4352C28.7136 32.9082 28.5257 33.3616 28.1913 33.696C27.8569 34.0308 27.4031 34.2187 26.9302 34.2187Z" fill="#3D3D3D"/>
<path d="M9.80895 0.891722V2.67517H0.891722C0.399288 2.67517 0 3.07446 0 3.56689V49.0447C0 49.2812 0.0939498 49.5081 0.261147 49.6753C0.428345 49.8425 0.655258 49.9365 0.891722 49.9365H36.5606V48.153H1.78344V4.45861H9.80895V6.24206C9.80895 6.47852 9.9029 6.70544 10.0701 6.87263C10.2373 7.03983 10.4642 7.13378 10.7007 7.13378H31.2103C31.4467 7.13378 31.6737 7.03983 31.8409 6.87263C32.0081 6.70543 32.102 6.47852 32.102 6.24206V4.45861H41.0192V39.2358H42.8027V3.56689C42.8027 3.33043 42.7087 3.10351 42.5415 2.93631C42.3743 2.76912 42.1474 2.67517 41.9109 2.67517H32.102V0.891722C32.102 0.655258 32.0081 0.428343 31.8409 0.261147C31.6737 0.0939519 31.4467 0 31.2103 0H10.7007C10.2082 0 9.80895 0.399288 9.80895 0.891722ZM11.5924 1.78344H30.3186V5.35033H11.5924V1.78344Z" fill="#3D3D3D"/>
<path d="M6.24219 10.7007H36.5607V12.4841H6.24219V10.7007Z" fill="#3D3D3D"/>
<path d="M6.24219 16.051H25.8601V17.8345H6.24219V16.051Z" fill="#3D3D3D"/>
<path d="M6.24219 21.4014H16.0511V23.1848H6.24219V21.4014Z" fill="#3D3D3D"/>
<path d="M12.4842 26.7516H7.13391C6.64148 26.7516 6.24219 27.1509 6.24219 27.6434V32.9937C6.24219 33.2302 6.33614 33.4571 6.50333 33.6243C6.67053 33.7915 6.89745 33.8854 7.13391 33.8854H12.4842C12.7207 33.8854 12.9476 33.7915 13.1148 33.6243C13.282 33.4571 13.376 33.2302 13.376 32.9937V27.6434C13.376 27.4069 13.282 27.18 13.1148 27.0128C12.9476 26.8456 12.7207 26.7516 12.4842 26.7516ZM11.5925 32.102H8.02563V28.5351H11.5925V32.102Z" fill="#3D3D3D"/>
<path d="M6.24219 37.4523H13.376V39.2358H6.24219V37.4523Z" fill="#3D3D3D"/>
<path d="M6.24219 42.8027H16.9429V44.5861H6.24219V42.8027Z" fill="#3D3D3D"/>
</svg>
