<svg width="50" height="43" viewBox="0 0 50 43" fill="none" xmlns="http://www.w3.org/2000/svg">
<path d="M30 26.9591H20C18.6195 26.9591 17.5 28.1559 17.5 29.6318V40.3224C17.5 41.7982 18.6195 42.995 20 42.995H30C31.3805 42.995 32.5 41.7982 32.5 40.3224V29.6318C32.5 28.1559 31.3805 26.9591 30 26.9591ZM15 2.9052C15 1.42939 13.8805 0.232544 12.5 0.232544H2.5C1.11953 0.232544 0 1.42939 0 2.9052V13.5958C0 15.0716 1.11953 16.2685 2.5 16.2685H9.97812L15.6938 26.9624C16.5609 25.3705 18.1562 24.2864 20 24.2864H20.0219L15 14.8912V10.9232H32.5V5.57785H15V2.9052ZM47.5 0.232544H37.5C36.1195 0.232544 35 1.42939 35 2.9052V13.5958C35 15.0716 36.1195 16.2685 37.5 16.2685H47.5C48.8805 16.2685 50 15.0716 50 13.5958V2.9052C50 1.42939 48.8805 0.232544 47.5 0.232544Z" fill="#009BC0"/>
</svg>
