<svg width="359" height="221" viewBox="0 0 359 221" fill="none" xmlns="http://www.w3.org/2000/svg">
<rect width="359" height="220.865" fill="white"/>
<path d="M160.997 89.9839C157.573 89.9839 154.485 89.2479 151.733 87.7759C148.981 86.2719 146.821 84.2079 145.253 81.5839C143.685 78.9279 142.901 75.9679 142.901 72.7039C142.901 69.4399 143.685 66.4959 145.253 63.8719C146.821 61.2159 148.981 59.1519 151.733 57.6799C154.485 56.1759 157.573 55.4239 160.997 55.4239C164.421 55.4239 167.509 56.1759 170.261 57.6799C173.013 59.1519 175.173 61.1999 176.741 63.8239C178.309 66.4479 179.093 69.4079 179.093 72.7039C179.093 75.9999 178.309 78.9599 176.741 81.5839C175.173 84.2079 173.013 86.2719 170.261 87.7759C167.509 89.2479 164.421 89.9839 160.997 89.9839ZM160.997 84.5119C163.237 84.5119 165.253 84.0159 167.045 83.0239C168.837 81.9999 170.245 80.5919 171.269 78.7999C172.293 76.9759 172.805 74.9439 172.805 72.7039C172.805 70.4639 172.293 68.4479 171.269 66.6559C170.245 64.8319 168.837 63.4239 167.045 62.4319C165.253 61.4079 163.237 60.8959 160.997 60.8959C158.757 60.8959 156.741 61.4079 154.949 62.4319C153.157 63.4239 151.749 64.8319 150.725 66.6559C149.701 68.4479 149.189 70.4639 149.189 72.7039C149.189 74.9439 149.701 76.9759 150.725 78.7999C151.749 80.5919 153.157 81.9999 154.949 83.0239C156.741 84.0159 158.757 84.5119 160.997 84.5119ZM209.947 63.8719V89.5039H204.235V86.2399C203.275 87.3919 202.075 88.2879 200.635 88.9279C199.195 89.5359 197.643 89.8399 195.979 89.8399C192.555 89.8399 189.851 88.8959 187.867 87.0079C185.915 85.0879 184.939 82.2559 184.939 78.5119V63.8719H190.939V77.6959C190.939 79.9999 191.451 81.7279 192.475 82.8799C193.531 83.9999 195.019 84.5599 196.939 84.5599C199.083 84.5599 200.779 83.9039 202.027 82.5919C203.307 81.2479 203.947 79.3279 203.947 76.8319V63.8719H209.947ZM223.515 67.6159C225.243 64.9279 228.283 63.5839 232.635 63.5839V69.2959C232.123 69.1999 231.659 69.1519 231.243 69.1519C228.907 69.1519 227.083 69.8399 225.771 71.2159C224.459 72.5599 223.803 74.5119 223.803 77.0719V89.5039H217.803V63.8719H223.515V67.6159ZM111.359 114.904C114.271 114.904 116.799 115.384 118.943 116.344C121.119 117.304 122.783 118.68 123.935 120.472C125.087 122.264 125.663 124.392 125.663 126.856C125.663 129.288 125.087 131.416 123.935 133.24C122.783 135.032 121.119 136.408 118.943 137.368C116.799 138.328 114.271 138.808 111.359 138.808H103.775V148.504H97.5355V114.904H111.359ZM111.071 133.528C113.791 133.528 115.855 132.952 117.263 131.8C118.671 130.648 119.375 129 119.375 126.856C119.375 124.712 118.671 123.064 117.263 121.912C115.855 120.76 113.791 120.184 111.071 120.184H103.775V133.528H111.071ZM136.796 126.616C138.524 123.928 141.564 122.584 145.916 122.584V128.296C145.404 128.2 144.94 128.152 144.524 128.152C142.188 128.152 140.364 128.84 139.052 130.216C137.74 131.56 137.084 133.512 137.084 136.072V148.504H131.084V122.872H136.796V126.616ZM162.292 148.84C159.7 148.84 157.364 148.28 155.284 147.16C153.204 146.04 151.572 144.488 150.388 142.504C149.236 140.488 148.66 138.216 148.66 135.688C148.66 133.16 149.236 130.904 150.388 128.92C151.572 126.936 153.204 125.384 155.284 124.264C157.364 123.144 159.7 122.584 162.292 122.584C164.916 122.584 167.268 123.144 169.348 124.264C171.428 125.384 173.044 126.936 174.196 128.92C175.38 130.904 175.972 133.16 175.972 135.688C175.972 138.216 175.38 140.488 174.196 142.504C173.044 144.488 171.428 146.04 169.348 147.16C167.268 148.28 164.916 148.84 162.292 148.84ZM162.292 143.704C164.5 143.704 166.324 142.968 167.764 141.496C169.204 140.024 169.924 138.088 169.924 135.688C169.924 133.288 169.204 131.352 167.764 129.88C166.324 128.408 164.5 127.672 162.292 127.672C160.084 127.672 158.26 128.408 156.82 129.88C155.412 131.352 154.708 133.288 154.708 135.688C154.708 138.088 155.412 140.024 156.82 141.496C158.26 142.968 160.084 143.704 162.292 143.704ZM179.069 158.152C176.541 158.152 174.621 157.656 173.309 156.664L175.037 152.2C175.933 152.872 177.101 153.208 178.541 153.208C179.661 153.208 180.509 152.856 181.085 152.152C181.693 151.48 181.997 150.472 181.997 149.128V122.872H187.997V148.984C187.997 151.832 187.213 154.072 185.645 155.704C184.077 157.336 181.885 158.152 179.069 158.152ZM184.973 118.648C183.885 118.648 182.973 118.312 182.237 117.64C181.501 116.936 181.133 116.072 181.133 115.048C181.133 114.024 181.501 113.176 182.237 112.504C182.973 111.8 183.885 111.448 184.973 111.448C186.061 111.448 186.973 111.784 187.709 112.456C188.445 113.096 188.813 113.912 188.813 114.904C188.813 115.96 188.445 116.856 187.709 117.592C187.005 118.296 186.093 118.648 184.973 118.648ZM219.962 135.832C219.962 136.248 219.93 136.84 219.866 137.608H199.754C200.106 139.496 201.018 141 202.49 142.12C203.994 143.208 205.85 143.752 208.058 143.752C210.874 143.752 213.194 142.824 215.018 140.968L218.234 144.664C217.082 146.04 215.626 147.08 213.866 147.784C212.106 148.488 210.122 148.84 207.914 148.84C205.098 148.84 202.618 148.28 200.474 147.16C198.33 146.04 196.666 144.488 195.482 142.504C194.33 140.488 193.754 138.216 193.754 135.688C193.754 133.192 194.314 130.952 195.434 128.968C196.586 126.952 198.17 125.384 200.186 124.264C202.202 123.144 204.474 122.584 207.002 122.584C209.498 122.584 211.722 123.144 213.674 124.264C215.658 125.352 217.194 126.904 218.282 128.92C219.402 130.904 219.962 133.208 219.962 135.832ZM207.002 127.384C205.082 127.384 203.45 127.96 202.106 129.112C200.794 130.232 199.994 131.736 199.706 133.624H214.25C213.994 131.768 213.21 130.264 211.898 129.112C210.586 127.96 208.954 127.384 207.002 127.384ZM237.485 148.84C234.829 148.84 232.445 148.28 230.333 147.16C228.221 146.04 226.573 144.488 225.389 142.504C224.205 140.488 223.613 138.216 223.613 135.688C223.613 133.16 224.205 130.904 225.389 128.92C226.573 126.936 228.205 125.384 230.285 124.264C232.397 123.144 234.797 122.584 237.485 122.584C240.013 122.584 242.221 123.096 244.109 124.12C246.029 125.144 247.469 126.616 248.429 128.536L243.821 131.224C243.085 130.04 242.157 129.16 241.037 128.584C239.949 127.976 238.749 127.672 237.437 127.672C235.197 127.672 233.341 128.408 231.869 129.88C230.397 131.32 229.661 133.256 229.661 135.688C229.661 138.12 230.381 140.072 231.821 141.544C233.293 142.984 235.165 143.704 237.437 143.704C238.749 143.704 239.949 143.416 241.037 142.84C242.157 142.232 243.085 141.336 243.821 140.152L248.429 142.84C247.437 144.76 245.981 146.248 244.061 147.304C242.173 148.328 239.981 148.84 237.485 148.84ZM269.352 147.112C268.648 147.688 267.784 148.12 266.76 148.408C265.768 148.696 264.712 148.84 263.592 148.84C260.776 148.84 258.6 148.104 257.064 146.632C255.528 145.16 254.76 143.016 254.76 140.2V127.864H250.536V123.064H254.76V117.208H260.76V123.064H267.624V127.864H260.76V140.056C260.76 141.304 261.064 142.264 261.672 142.936C262.28 143.576 263.16 143.896 264.312 143.896C265.656 143.896 266.776 143.544 267.672 142.84L269.352 147.112ZM282.208 148.84C280.128 148.84 278.096 148.568 276.112 148.024C274.128 147.48 272.544 146.792 271.36 145.96L273.664 141.4C274.816 142.168 276.192 142.792 277.792 143.272C279.424 143.72 281.024 143.944 282.592 143.944C286.176 143.944 287.968 143 287.968 141.112C287.968 140.216 287.504 139.592 286.576 139.24C285.68 138.888 284.224 138.552 282.208 138.232C280.096 137.912 278.368 137.544 277.024 137.128C275.712 136.712 274.56 135.992 273.568 134.968C272.608 133.912 272.128 132.456 272.128 130.6C272.128 128.168 273.136 126.232 275.152 124.792C277.2 123.32 279.952 122.584 283.408 122.584C285.168 122.584 286.928 122.792 288.688 123.208C290.448 123.592 291.888 124.12 293.008 124.792L290.704 129.352C288.528 128.072 286.08 127.432 283.36 127.432C281.6 127.432 280.256 127.704 279.328 128.248C278.432 128.76 277.984 129.448 277.984 130.312C277.984 131.272 278.464 131.96 279.424 132.376C280.416 132.76 281.936 133.128 283.984 133.48C286.032 133.8 287.712 134.168 289.024 134.584C290.336 135 291.456 135.704 292.384 136.696C293.344 137.688 293.824 139.096 293.824 140.92C293.824 143.32 292.784 145.24 290.704 146.68C288.624 148.12 285.792 148.84 282.208 148.84Z" fill="#1B3854"/>
<path d="M109 93.25H99C97.6195 93.25 96.5 94.6494 96.5 96.375V108.875C96.5 110.601 97.6195 112 99 112H109C110.38 112 111.5 110.601 111.5 108.875V96.375C111.5 94.6494 110.38 93.25 109 93.25ZM94 65.125C94 63.3994 92.8805 62 91.5 62H81.5C80.1195 62 79 63.3994 79 65.125V77.625C79 79.3506 80.1195 80.75 81.5 80.75H88.9781L94.6938 93.2539C95.5609 91.3926 97.1562 90.125 99 90.125H99.0219L94 79.1396V74.5H111.5V68.25H94V65.125ZM126.5 62H116.5C115.12 62 114 63.3994 114 65.125V77.625C114 79.3506 115.12 80.75 116.5 80.75H126.5C127.88 80.75 129 79.3506 129 77.625V65.125C129 63.3994 127.88 62 126.5 62Z" fill="#00B0FF"/>
</svg>
