<svg width="588" height="320" viewBox="0 0 588 320" fill="none" xmlns="http://www.w3.org/2000/svg">
<g clip-path="url(#clip0_424_1652)">
<path d="M133.114 278.119C133.001 290.98 132.059 303.821 130.294 316.56C130.232 317.008 130.165 317.455 130.102 317.902L9.66082 317.229C9.30719 316.785 8.95912 316.335 8.62188 315.88C7.49742 314.374 6.44354 312.826 5.47607 311.224C0.825991 303.505 -1.30286 294.469 0.830455 288.234L0.868655 288.137C1.32916 286.772 2.05481 285.511 3.00394 284.427C7.86787 278.952 17.7022 279.864 26.6267 284.284C18.622 275.522 12.2482 264.465 11.7639 254.596C11.2891 244.97 16.3226 238.093 21.782 232.249C21.9611 232.056 22.1402 231.868 22.3194 231.681C22.4063 231.584 22.4984 231.493 22.5851 231.396C26.8446 226.943 31.8105 222.552 38.9983 223.083C46.8814 223.667 55.6214 230.27 61.7495 237.964C67.8777 245.653 71.95 254.388 76.0777 262.912C80.2108 271.431 84.6824 280.168 91.3146 287.45C82.3317 276.088 75.0891 263.16 72.4137 250.587C69.7383 238.014 72.0929 225.939 80.0987 220.017C82.5292 218.275 85.3417 217.14 88.3007 216.708C88.6461 216.65 88.9969 216.604 89.3533 216.563C96.7645 215.719 105.613 218.282 113.142 224.409C121.433 231.156 127.181 241.156 130.041 250.65C132.901 260.144 133.206 269.284 133.114 278.119Z" fill="#F2F2F2"/>
<path d="M54.314 317.478L52.0109 317.465C51.2796 317.008 50.5449 316.556 49.8067 316.109C49.3498 315.821 48.8875 315.543 48.4249 315.26C40.7856 310.594 33.0986 306.119 25.3637 301.834C17.6359 297.546 9.86924 293.455 2.06371 289.561C1.85681 289.471 1.68801 289.311 1.58664 289.11C1.48527 288.908 1.45774 288.677 1.50884 288.458C1.5172 288.429 1.53016 288.402 1.54722 288.377C1.65609 288.173 1.89942 288.088 2.25455 288.262C3.21195 288.742 4.17488 289.222 5.13221 289.713C12.9591 293.673 20.7523 297.831 28.512 302.186C36.2663 306.54 43.9764 311.085 51.6424 315.823C51.8035 315.921 51.965 316.024 52.1261 316.122C52.8572 316.574 53.583 317.026 54.314 317.478Z" fill="white"/>
<path d="M84.0091 317.644L82.585 317.636C82.2637 317.187 81.9481 316.737 81.6269 316.288C74.0802 305.705 66.535 295.122 58.9915 284.54C46.638 267.214 34.2883 249.888 21.9422 232.563C21.869 232.47 21.8146 232.363 21.782 232.249C21.6764 231.865 21.9582 231.641 22.3193 231.68C22.4716 231.702 22.6175 231.756 22.7472 231.839C22.877 231.921 22.9876 232.03 23.0718 232.159C29.9978 241.875 36.9221 251.588 43.8446 261.297C56.1337 278.536 68.4211 295.773 80.7067 313.008C81.4882 314.102 82.2696 315.202 83.0511 316.296C83.3722 316.745 83.6934 317.195 84.0091 317.644Z" fill="white"/>
<path d="M115.737 309.376C115.664 311.776 115.505 314.138 115.298 316.478C115.257 316.926 115.217 317.373 115.177 317.821L113.683 317.812C113.728 317.365 113.774 316.917 113.814 316.47C114.13 313.089 114.354 309.671 114.384 306.159C114.424 296.423 113.475 286.709 111.553 277.165C109.509 266.888 106.574 256.809 102.782 247.042C98.8022 236.74 94.0037 226.774 88.4327 217.239C88.3277 217.083 88.281 216.896 88.3008 216.709C88.3624 216.284 88.9294 216.157 89.3534 216.564C89.4371 216.644 89.5092 216.735 89.5675 216.835C90.2568 218.02 90.9335 219.209 91.5976 220.401C96.9632 229.99 101.556 239.991 105.332 250.309C108.928 260.108 111.664 270.203 113.508 280.477C115.235 290.009 115.982 299.692 115.737 309.376Z" fill="white"/>
<path d="M532.964 247.74C532.964 241.964 511.223 237.281 484.404 237.281C457.585 237.281 435.844 241.964 435.844 247.74C435.844 251.442 444.782 254.693 458.256 256.552V313.857C458.256 315.145 458.768 316.38 459.679 317.29C460.589 318.201 461.824 318.713 463.112 318.713C464.4 318.713 465.635 318.201 466.546 317.29C467.457 316.38 467.968 315.145 467.968 313.857V257.584C473.102 257.982 478.634 258.199 484.404 258.199C490.174 258.199 495.706 257.982 500.84 257.584V313.857C500.84 315.145 501.351 316.38 502.262 317.29C503.173 318.201 504.408 318.713 505.696 318.713C506.984 318.713 508.219 318.201 509.129 317.29C510.04 316.38 510.552 315.145 510.552 313.857V256.552C524.026 254.693 532.964 251.442 532.964 247.74Z" fill="#CCCCCC"/>
<path d="M489.773 152.004C501.326 152.004 510.691 142.639 510.691 131.086C510.691 119.533 501.326 110.168 489.773 110.168C478.22 110.168 468.855 119.533 468.855 131.086C468.855 142.639 478.22 152.004 489.773 152.004Z" fill="#2F2E41"/>
<path d="M437.717 310.062H428.557L424.2 274.734H437.718L437.717 310.062Z" fill="#A0616A"/>
<path d="M422.015 307.445H439.679V318.567H410.894C410.894 317.106 411.182 315.66 411.74 314.311C412.299 312.962 413.119 311.736 414.151 310.703C415.184 309.67 416.41 308.851 417.759 308.292C419.109 307.733 420.555 307.445 422.015 307.445Z" fill="#2F2E41"/>
<path d="M423.42 304.95L414.68 302.207L421.099 267.195L433.997 271.242L423.42 304.95Z" fill="#A0616A"/>
<path d="M409.222 297.752L426.076 303.041L422.746 313.652L395.281 305.033C395.718 303.64 396.426 302.346 397.363 301.226C398.3 300.106 399.449 299.181 400.744 298.505C402.038 297.829 403.453 297.415 404.908 297.285C406.363 297.156 407.829 297.315 409.222 297.752Z" fill="#2F2E41"/>
<path d="M426.399 290.855C425.998 290.855 425.6 290.783 425.225 290.641L418.487 288.115C417.73 287.829 417.102 287.28 416.716 286.569C416.33 285.858 416.212 285.033 416.384 284.242C418.081 276.615 423.862 250.646 427.028 236.717C430.783 220.195 485.556 217.125 487.886 217.002L488.078 216.992L494.239 224.735C496.466 231.891 495.76 237.473 492.142 241.326C481.584 252.567 450.061 245.592 446.302 244.709L429.547 288.69C429.303 289.327 428.871 289.875 428.309 290.262C427.747 290.648 427.081 290.855 426.399 290.855Z" fill="#2F2E41"/>
<path d="M436.111 296.086C435.71 296.086 435.312 296.013 434.937 295.872L428.199 293.345C427.442 293.059 426.814 292.511 426.428 291.8C426.042 291.089 425.924 290.263 426.096 289.473C427.793 281.845 433.575 255.876 436.74 241.947C440.495 225.425 495.268 222.355 497.598 222.233L497.79 222.223L503.951 229.966C506.178 237.122 505.472 242.704 501.854 246.557C491.296 257.797 459.773 250.822 456.014 249.94L439.259 293.921C439.015 294.558 438.583 295.106 438.021 295.492C437.459 295.879 436.793 296.086 436.111 296.086Z" fill="#2F2E41"/>
<path d="M416.616 188.49C416.864 188.821 417.085 189.171 417.277 189.537L454.124 193.419L459.428 186.147L471.449 192.717L461.031 210.364L415.842 198.842C414.702 199.954 413.251 200.692 411.681 200.958C410.111 201.225 408.497 201.007 407.054 200.334C405.611 199.661 404.407 198.565 403.603 197.191C402.798 195.817 402.43 194.231 402.549 192.643C402.668 191.055 403.267 189.541 404.267 188.302C405.268 187.063 406.621 186.158 408.148 185.708C409.675 185.257 411.303 185.282 412.816 185.779C414.329 186.276 415.654 187.221 416.616 188.49L416.616 188.49Z" fill="#A0616A"/>
<path d="M502.241 232.929C501.708 232.927 501.184 232.799 500.71 232.555C493.342 228.808 478.995 222.32 465.691 220.962C465.236 220.918 464.795 220.778 464.397 220.553C463.998 220.328 463.652 220.022 463.379 219.655C463.1 219.284 462.901 218.86 462.794 218.409C462.687 217.957 462.674 217.489 462.756 217.032C463.956 210.387 466.71 193.464 466.355 179.902C466.251 175.731 467.568 171.65 470.091 168.328C472.614 165.006 476.192 162.641 480.238 161.622C482.673 160.98 485.146 160.492 487.643 160.162C490.513 159.799 493.428 160.113 496.155 161.078C498.882 162.044 501.345 163.635 503.346 165.724C505.348 167.812 506.832 170.341 507.681 173.106C508.529 175.872 508.718 178.798 508.232 181.65C505.86 195.705 503.468 215.335 505.547 229.039C505.642 229.653 505.566 230.282 505.326 230.855C505.086 231.428 504.692 231.924 504.188 232.288C503.623 232.702 502.942 232.927 502.241 232.929Z" fill="#00B0FF"/>
<path d="M467.037 197.181C466.578 197.18 466.124 197.085 465.703 196.902L456.104 192.747C455.287 192.392 454.643 191.728 454.315 190.899C453.988 190.07 454.001 189.145 454.354 188.327L461.774 171.187C462.222 170.151 462.869 169.213 463.68 168.428C464.49 167.642 465.447 167.024 466.496 166.608C467.545 166.192 468.666 165.987 469.795 166.005C470.923 166.023 472.037 166.262 473.073 166.711C474.109 167.159 475.046 167.807 475.831 168.618C476.617 169.428 477.234 170.386 477.65 171.435C478.065 172.485 478.269 173.606 478.251 174.734C478.232 175.863 477.992 176.977 477.543 178.012L470.123 195.152C469.862 195.754 469.431 196.267 468.883 196.627C468.335 196.987 467.693 197.18 467.037 197.181V197.181Z" fill="#00B0FF"/>
<path d="M489.009 154.331C499.143 154.331 507.358 146.116 507.358 135.982C507.358 125.848 499.143 117.633 489.009 117.633C478.875 117.633 470.66 125.848 470.66 135.982C470.66 146.116 478.875 154.331 489.009 154.331Z" fill="#A0616A"/>
<path d="M470.33 126.968C479.021 132.274 488.819 135.503 498.962 136.403L495.944 132.787C498.142 133.599 500.454 134.058 502.795 134.147C505.134 134.111 507.584 133.21 508.911 131.284C509.503 130.327 509.855 129.241 509.936 128.118C510.018 126.996 509.826 125.87 509.378 124.837C508.459 122.778 507.027 120.988 505.22 119.638C502.017 117.104 498.236 115.402 494.216 114.683C490.195 113.964 486.059 114.252 482.177 115.519C479.513 116.315 477.128 117.845 475.294 119.934C473.555 122.08 470.206 123.992 471.097 126.607L470.33 126.968Z" fill="#2F2E41"/>
<path d="M492.094 112.161C486.307 106.292 479.303 101.764 471.577 98.8936C466.617 97.0562 461.219 95.921 456.034 96.9645C450.849 98.0079 445.945 101.595 444.499 106.682C443.316 110.842 444.537 115.321 446.373 119.237C448.208 123.153 450.659 126.785 452.144 130.847C453.658 134.992 454.114 139.449 453.469 143.815C452.824 148.18 451.099 152.315 448.45 155.845C445.802 159.375 442.314 162.187 438.302 164.027C434.291 165.866 429.884 166.675 425.481 166.38C430.576 167.063 435.272 169.457 440.252 170.731C445.231 172.005 451.109 171.919 454.809 168.352C458.725 164.577 458.803 158.44 458.614 153.005C458.332 144.925 458.051 136.845 457.77 128.766C457.626 124.645 457.503 120.393 458.989 116.547C460.475 112.701 464.007 109.333 468.13 109.368C471.254 109.395 474.02 111.288 476.526 113.155C479.032 115.021 481.684 117.013 484.796 117.291C487.909 117.568 491.463 115.265 491.23 112.149" fill="#2F2E41"/>
<path d="M458.16 228.217C456.944 228.216 455.743 227.945 454.645 227.423C453.546 226.902 452.577 226.144 451.807 225.203C451.037 224.262 450.485 223.162 450.191 221.982C449.897 220.803 449.869 219.572 450.108 218.38C450.347 217.188 450.847 216.064 451.573 215.088C452.299 214.113 453.232 213.311 454.305 212.739C455.378 212.168 456.565 211.841 457.78 211.784C458.994 211.726 460.206 211.939 461.329 212.406H461.329C461.666 212.549 461.994 212.715 462.309 212.903L495.733 197.896L496.672 188.831L511.08 188.445L510.985 203.538C510.967 205.286 510.386 206.982 509.328 208.374C508.27 209.766 506.792 210.779 505.112 211.264L466.024 222.391C465.948 222.649 465.858 222.903 465.755 223.152C465.128 224.65 464.073 225.93 462.722 226.831C461.371 227.732 459.784 228.214 458.16 228.217V228.217Z" fill="#A0616A"/>
<path d="M509.86 195.84C509.45 196.048 509.002 196.169 508.544 196.196L498.105 196.838C497.215 196.891 496.34 196.59 495.673 196C495.005 195.409 494.599 194.578 494.543 193.689L493.397 175.047C493.326 173.92 493.478 172.79 493.843 171.721C494.209 170.653 494.782 169.667 495.53 168.82C496.277 167.974 497.184 167.282 498.199 166.786C499.214 166.291 500.316 166 501.444 165.93C502.571 165.861 503.701 166.015 504.769 166.382C505.837 166.75 506.821 167.325 507.667 168.074C508.512 168.822 509.202 169.731 509.696 170.746C510.19 171.762 510.48 172.865 510.547 173.992L511.693 192.634C511.733 193.289 511.581 193.941 511.255 194.51C510.929 195.08 510.445 195.542 509.86 195.84L509.86 195.84Z" fill="#00B0FF"/>
<path d="M487.172 230.102H428.153C427.459 230.102 426.794 229.826 426.304 229.336C425.813 228.845 425.538 228.18 425.538 227.487C425.538 226.793 425.813 226.128 426.304 225.638C426.794 225.148 427.459 224.872 428.153 224.872H487.172C487.865 224.872 488.53 225.148 489.021 225.638C489.511 226.128 489.786 226.793 489.786 227.487C489.786 228.18 489.511 228.845 489.021 229.336C488.53 229.826 487.865 230.102 487.172 230.102Z" fill="#3F3D56"/>
<path d="M402.378 225.244V188.637C402.38 187.35 402.892 186.116 403.802 185.205C404.713 184.295 405.947 183.783 407.234 183.781H473.724C475.012 183.783 476.246 184.295 477.156 185.205C478.067 186.116 478.579 187.35 478.58 188.637V225.244C478.579 226.532 478.067 227.766 477.156 228.676C476.246 229.587 475.012 230.099 473.724 230.1H407.234C405.947 230.099 404.713 229.587 403.802 228.676C402.892 227.766 402.38 226.532 402.378 225.244Z" fill="#3F3D56"/>
<path d="M440.479 211.422C442.955 211.422 444.962 209.415 444.962 206.939C444.962 204.464 442.955 202.457 440.479 202.457C438.004 202.457 435.997 204.464 435.997 206.939C435.997 209.415 438.004 211.422 440.479 211.422Z" fill="white"/>
<path d="M206.777 163.86C206.171 162.944 205.373 162.171 204.436 161.597C203.5 161.023 202.449 160.661 201.358 160.537C200.267 160.412 199.162 160.529 198.121 160.878C197.079 161.227 196.127 161.8 195.331 162.557L171.608 150.312L173.083 164.107L195.385 173.62C196.745 174.872 198.517 175.583 200.366 175.616C202.215 175.649 204.011 175.003 205.416 173.8C206.82 172.597 207.734 170.921 207.985 169.089C208.236 167.257 207.806 165.396 206.777 163.86H206.777Z" fill="#FFB8B8"/>
<path d="M185.694 169.413C185.265 169.61 184.799 169.714 184.327 169.719C183.854 169.724 183.386 169.63 182.953 169.442L160.419 159.667C152.715 156.326 146.486 150.3 142.892 142.71L131.045 117.705C130.171 116.582 129.527 115.297 129.149 113.925C128.772 112.552 128.668 111.119 128.845 109.707C129.022 108.295 129.476 106.931 130.18 105.694C130.884 104.457 131.825 103.371 132.95 102.498C134.074 101.625 135.359 100.983 136.732 100.607C138.105 100.231 139.538 100.13 140.95 100.308C142.362 100.487 143.725 100.942 144.961 101.648C146.197 102.354 147.282 103.296 148.154 104.421L168.977 143.055L188.204 157.58C188.755 157.997 189.163 158.574 189.375 159.232C189.587 159.889 189.592 160.596 189.39 161.256L187.502 167.352C187.3 168.006 186.903 168.582 186.364 169.004C186.158 169.166 185.933 169.304 185.694 169.413Z" fill="#CCCCCC"/>
<path d="M130.524 88.2996C140.658 88.2996 148.873 80.0844 148.873 69.9506C148.873 59.8167 140.658 51.6016 130.524 51.6016C120.39 51.6016 112.175 59.8167 112.175 69.9506C112.175 80.0844 120.39 88.2996 130.524 88.2996Z" fill="#FFB8B8"/>
<path d="M137.956 310.656H147.115L151.472 275.328H137.954L137.956 310.656Z" fill="#FFB8B8"/>
<path d="M164.779 319.16L135.994 319.161L135.993 308.04L153.657 308.039C156.606 308.039 159.435 309.21 161.521 311.296C163.607 313.382 164.779 316.21 164.779 319.16L164.779 319.16Z" fill="#2F2E41"/>
<path d="M108.073 310.656H117.231L121.589 275.328H108.071L108.073 310.656Z" fill="#FFB8B8"/>
<path d="M134.896 319.16L106.11 319.161L106.11 308.04L123.774 308.039C126.723 308.039 129.552 309.21 131.638 311.296C133.724 313.382 134.896 316.21 134.896 319.16L134.896 319.16Z" fill="#2F2E41"/>
<path d="M104.875 300.544C104.559 300.184 104.324 299.76 104.186 299.302C104.047 298.843 104.008 298.361 104.072 297.886L120.107 177.617L159.948 184.383L164.2 181.832L153.205 295.944C153.113 296.714 152.759 297.429 152.201 297.969C151.644 298.508 150.917 298.839 150.145 298.905L138.081 299.91C137.601 299.95 137.119 299.887 136.666 299.724C136.213 299.562 135.8 299.304 135.455 298.968C135.11 298.632 134.842 298.226 134.668 297.777C134.494 297.329 134.418 296.848 134.445 296.368L137.569 242.023C137.574 241.931 137.545 241.84 137.487 241.768C137.43 241.696 137.347 241.647 137.256 241.633C137.165 241.618 137.071 241.637 136.993 241.687C136.916 241.737 136.859 241.815 136.835 241.904L121.383 299.205C121.19 299.918 120.767 300.548 120.181 300.997C119.594 301.447 118.876 301.691 118.137 301.692H107.404C106.925 301.692 106.451 301.59 106.015 301.392C105.579 301.194 105.19 300.905 104.875 300.544Z" fill="#2F2E41"/>
<path d="M132.466 186.035C132.009 185.621 131.421 185.38 130.804 185.354C130.188 185.328 129.582 185.519 129.092 185.894L121.127 192.089C120.693 192.427 120.184 192.654 119.642 192.749C119.101 192.844 118.544 192.805 118.021 192.635C117.499 192.465 117.026 192.169 116.644 191.773C116.262 191.378 115.983 190.895 115.832 190.366C111.925 176.683 103.073 142.241 105.254 117.999C106.49 104.259 118.355 93.8158 131.704 94.692C140.83 95.3004 146.834 100.565 149.549 110.339C156.215 134.337 163.54 178.356 164.941 186.937C165.052 187.603 164.958 188.286 164.674 188.898C164.389 189.51 163.926 190.021 163.345 190.365C159.576 192.628 155.27 193.84 150.875 193.875C145.556 193.875 139.179 192.023 132.466 186.035Z" fill="#CCCCCC"/>
<path d="M135.472 194.571C135.561 193.476 135.409 192.375 135.027 191.345C134.644 190.316 134.041 189.383 133.259 188.611C132.477 187.84 131.535 187.25 130.501 186.882C129.466 186.514 128.363 186.378 127.27 186.482L116.159 162.207L108.807 173.971L120.485 195.22C120.782 197.045 121.738 198.697 123.172 199.864C124.607 201.032 126.419 201.632 128.266 201.552C130.114 201.472 131.868 200.717 133.196 199.43C134.523 198.144 135.333 196.414 135.472 194.571H135.472Z" fill="#FFB8B8"/>
<path d="M115.456 185.931C114.996 185.821 114.565 185.615 114.191 185.328C113.816 185.04 113.506 184.677 113.281 184.262L101.582 162.665C97.5814 155.281 96.3988 146.695 98.2544 138.505L104.364 111.518C104.37 110.095 104.656 108.687 105.206 107.375C105.756 106.062 106.559 104.871 107.57 103.869C108.581 102.867 109.779 102.074 111.096 101.536C112.414 100.997 113.824 100.724 115.247 100.731C116.67 100.738 118.078 101.025 119.39 101.576C120.702 102.128 121.893 102.932 122.893 103.944C123.894 104.956 124.686 106.155 125.223 107.472C125.76 108.79 126.033 110.201 126.024 111.624L118.567 154.874L124.733 178.169C124.909 178.837 124.875 179.543 124.636 180.191C124.397 180.839 123.964 181.399 123.397 181.793L118.15 185.425C117.588 185.814 116.92 186.023 116.235 186.023C115.973 186.023 115.711 185.992 115.456 185.931Z" fill="#CCCCCC"/>
<path opacity="0.2" d="M124.536 129.863L117.812 158.252L127.524 182.159L120.8 158.999L124.536 129.863Z" fill="black"/>
<path d="M120.053 85.0365C118.421 85.0668 116.799 84.7734 115.281 84.1731C114.613 83.9157 113.919 83.7041 113.252 83.4465C107.364 81.1716 103.485 74.9007 103.346 68.5898C103.208 62.2789 106.476 56.1536 111.329 52.1168C116.182 48.0801 122.468 46.0076 128.762 45.5284C135.542 45.0121 143.176 46.7315 146.965 52.3778C147.973 53.8807 148.678 55.7042 148.081 57.5188C147.902 58.0664 147.582 58.5575 147.154 58.9427C145.462 60.448 143.775 59.3162 142.05 59.2162C139.68 59.0787 137.55 60.9976 136.785 63.2456C136.02 65.4935 136.357 67.9683 136.975 70.2611C137.445 71.6408 137.742 73.0738 137.858 74.527C137.908 75.2557 137.771 75.985 137.46 76.6459C137.149 77.3067 136.674 77.8772 136.081 78.3033C134.6 79.1987 132.654 78.6805 131.172 77.7865C129.69 76.8925 128.409 75.6495 126.808 74.9916C125.207 74.3337 123.056 74.4797 122.124 75.9384C121.828 76.4692 121.627 77.0479 121.532 77.6482C120.696 81.4544 120.888 81.2302 120.053 85.0365L120.053 85.0365Z" fill="#2F2E41"/>
<path d="M279.144 147.306C278.84 146.921 278.627 146.472 278.523 145.992C278.418 145.512 278.424 145.015 278.541 144.538C281.327 132.867 281.327 120.704 278.541 109.033C278.424 108.556 278.418 108.059 278.522 107.58C278.627 107.1 278.84 106.65 279.144 106.265C279.442 105.886 279.823 105.579 280.257 105.368C280.691 105.158 281.168 105.049 281.651 105.051H311.438C312.2 105.052 312.935 105.324 313.515 105.817C314.095 106.31 314.481 106.993 314.604 107.745C316.547 120.364 316.547 133.207 314.604 145.827C314.481 146.578 314.095 147.261 313.515 147.755C312.935 148.248 312.2 148.519 311.438 148.521H281.651C281.168 148.522 280.691 148.414 280.257 148.203C279.823 147.993 279.442 147.686 279.144 147.306Z" fill="#E6E6E6"/>
<path d="M233.064 42.2551C232.759 41.8701 232.547 41.4206 232.442 40.941C232.338 40.4614 232.344 39.9643 232.461 39.4875C235.247 27.8165 235.247 15.6535 232.461 3.98253C232.344 3.50575 232.338 3.00863 232.442 2.52903C232.547 2.04943 232.759 1.59999 233.064 1.21494C233.361 0.835078 233.742 0.528202 234.176 0.317663C234.611 0.107124 235.087 -0.00151528 235.57 1.59646e-05H265.358C266.119 0.00155005 266.855 0.273122 267.435 0.766405C268.014 1.25969 268.4 1.94266 268.524 2.69375C270.467 15.3136 270.467 28.1565 268.524 40.7763C268.4 41.5274 268.014 42.2104 267.435 42.7036C266.855 43.1969 266.119 43.4685 265.358 43.4701H235.57C235.087 43.4716 234.611 43.3629 234.176 43.1524C233.742 42.9419 233.361 42.635 233.064 42.2551Z" fill="#E6E6E6"/>
<path d="M306.361 77.3974C304.418 64.7776 304.418 51.9347 306.361 39.3149C306.484 38.5637 306.87 37.8807 307.449 37.3874C308.029 36.8941 308.765 36.6225 309.526 36.6211H339.314C339.796 36.6196 340.273 36.7282 340.708 36.9387C341.142 37.1493 341.522 37.4562 341.82 37.836C342.125 38.2211 342.337 38.6705 342.442 39.1501C342.546 39.6297 342.54 40.1268 342.424 40.6036C339.637 52.2746 339.637 64.4376 342.423 76.1086C342.54 76.5854 342.546 77.0825 342.442 77.5621C342.337 78.0417 342.125 78.4912 341.82 78.8762C341.522 79.2561 341.142 79.563 340.708 79.7735C340.273 79.984 339.796 80.0927 339.314 80.0912H309.526C308.765 80.0897 308.029 79.8182 307.449 79.3249C306.87 78.8316 306.484 78.1485 306.361 77.3974Z" fill="#00B0FF"/>
<path d="M181.656 76.0654C179.713 63.4455 179.713 50.6026 181.656 37.9828C181.779 37.2317 182.165 36.5487 182.745 36.0555C183.325 35.5622 184.06 35.2906 184.822 35.2891H214.609C215.092 35.2875 215.569 35.3962 216.003 35.6067C216.438 35.8173 216.818 36.1241 217.116 36.504C217.42 36.889 217.633 37.3385 217.738 37.8181C217.842 38.2977 217.836 38.7948 217.719 39.2716C214.933 50.9426 214.933 63.1056 217.719 74.7766C217.836 75.2534 217.842 75.7505 217.738 76.2301C217.633 76.7097 217.421 77.1591 217.116 77.5442C216.818 77.924 216.438 78.2309 216.003 78.4415C215.569 78.652 215.092 78.7606 214.609 78.7591H184.822C184.06 78.7576 183.325 78.486 182.745 77.9927C182.165 77.4994 181.779 76.8165 181.656 76.0654Z" fill="#FF6584"/>
<path d="M189.024 163.977C188.715 163.586 188.498 163.129 188.392 162.641C188.286 162.154 188.292 161.648 188.411 161.164C191.243 149.301 191.243 136.938 188.411 125.075C188.292 124.591 188.286 124.085 188.392 123.598C188.498 123.11 188.715 122.653 189.024 122.262C189.327 121.876 189.714 121.564 190.155 121.35C190.597 121.136 191.081 121.026 191.572 121.027H221.849C222.622 121.029 223.371 121.305 223.96 121.806C224.549 122.308 224.941 123.002 225.066 123.765C227.041 136.593 227.041 149.646 225.066 162.474C224.941 163.237 224.549 163.931 223.96 164.433C223.371 164.934 222.622 165.21 221.849 165.212H191.572C191.081 165.213 190.597 165.103 190.155 164.889C189.714 164.675 189.327 164.363 189.024 163.977Z" fill="#00B0FF"/>
<path d="M9.39962 319.845H587.11C587.346 319.845 587.573 319.752 587.739 319.585C587.906 319.418 588 319.192 588 318.956C588 318.72 587.906 318.494 587.739 318.327C587.573 318.16 587.346 318.066 587.11 318.066H9.39962C9.28259 318.066 9.16664 318.089 9.05842 318.133C8.9502 318.178 8.85184 318.243 8.76897 318.326C8.68609 318.409 8.62034 318.507 8.57547 318.615C8.53061 318.723 8.50751 318.839 8.50751 318.956C8.50751 319.073 8.53061 319.189 8.57547 319.297C8.62034 319.405 8.68609 319.503 8.76897 319.586C8.85184 319.668 8.9502 319.734 9.05842 319.778C9.16664 319.823 9.28259 319.846 9.39962 319.845Z" fill="#3F3D56"/>
<path d="M216.006 137.329H200.056C199.462 137.328 198.892 137.092 198.472 136.672C198.052 136.251 197.816 135.682 197.815 135.087V134.136C197.816 133.542 198.052 132.972 198.472 132.552C198.892 132.132 199.462 131.895 200.056 131.895H216.006C216.6 131.895 217.17 132.132 217.59 132.552C218.01 132.972 218.247 133.542 218.247 134.136V135.087C218.247 135.682 218.01 136.251 217.59 136.672C217.17 137.092 216.6 137.328 216.006 137.329Z" fill="white"/>
<path d="M216.006 146.704H200.056C199.462 146.703 198.892 146.467 198.472 146.047C198.052 145.626 197.816 145.057 197.815 144.462V143.511C197.816 142.917 198.052 142.347 198.472 141.927C198.892 141.507 199.462 141.27 200.056 141.27H216.006C216.6 141.27 217.17 141.507 217.59 141.927C218.01 142.347 218.247 142.917 218.247 143.511V144.462C218.247 145.057 218.01 145.626 217.59 146.047C217.17 146.467 216.6 146.703 216.006 146.704Z" fill="white"/>
<path d="M205.443 53.7251H189.811C189.217 53.7245 188.647 53.4881 188.227 53.068C187.807 52.6478 187.571 52.0781 187.57 51.4839V50.6084C187.571 50.0142 187.807 49.4445 188.227 49.0243C188.647 48.6042 189.217 48.3678 189.811 48.3672H205.443C206.037 48.3678 206.607 48.6042 207.027 49.0243C207.447 49.4445 207.684 50.0142 207.684 50.6084V51.4839C207.684 52.0781 207.447 52.6478 207.027 53.068C206.607 53.4881 206.037 53.7245 205.443 53.7251Z" fill="white"/>
<path d="M305.312 119.565H289.681C289.086 119.565 288.517 119.328 288.096 118.908C287.676 118.488 287.44 117.918 287.439 117.324V116.448C287.44 115.854 287.676 115.284 288.096 114.864C288.517 114.444 289.086 114.208 289.681 114.207H305.312C305.906 114.208 306.476 114.444 306.896 114.864C307.316 115.284 307.552 115.854 307.553 116.448V117.324C307.552 117.918 307.316 118.488 306.896 118.908C306.476 119.328 305.906 119.565 305.312 119.565Z" fill="white"/>
<path d="M305.312 130.632H289.681C289.086 130.631 288.517 130.395 288.096 129.975C287.676 129.554 287.44 128.985 287.439 128.391V127.515C287.44 126.92 287.676 126.351 288.096 125.931C288.517 125.51 289.086 125.274 289.681 125.273H305.312C305.906 125.274 306.476 125.51 306.896 125.931C307.316 126.351 307.552 126.92 307.553 127.515V128.391C307.552 128.985 307.316 129.554 306.896 129.975C306.476 130.395 305.906 130.631 305.312 130.632Z" fill="white"/>
<path d="M305.312 141.698H289.681C289.086 141.698 288.517 141.461 288.096 141.041C287.676 140.621 287.44 140.051 287.439 139.457V138.581C287.44 137.987 287.676 137.417 288.096 136.997C288.517 136.577 289.086 136.34 289.681 136.34H305.312C305.906 136.34 306.476 136.577 306.896 136.997C307.316 137.417 307.552 137.987 307.553 138.581V139.457C307.552 140.051 307.316 140.621 306.896 141.041C306.476 141.461 305.906 141.698 305.312 141.698Z" fill="white"/>
<path d="M205.443 62.9482H189.811C189.217 62.9475 188.647 62.7112 188.227 62.291C187.807 61.8708 187.571 61.3011 187.57 60.7069V59.8311C187.571 59.2369 187.807 58.6672 188.227 58.247C188.647 57.8268 189.217 57.5905 189.811 57.5898H205.443C206.037 57.5905 206.607 57.8268 207.027 58.247C207.447 58.6672 207.684 59.2369 207.684 59.8311V60.7069C207.684 61.3011 207.447 61.8708 207.027 62.291C206.607 62.7112 206.037 62.9475 205.443 62.9482Z" fill="white"/>
<path d="M259.365 16.3583H243.733C243.139 16.3577 242.57 16.1213 242.149 15.7012C241.729 15.281 241.493 14.7113 241.492 14.1171V13.2412C241.493 12.647 241.729 12.0773 242.149 11.6572C242.57 11.237 243.139 11.0006 243.733 11H259.365C259.959 11.0006 260.529 11.237 260.949 11.6572C261.369 12.0773 261.605 12.647 261.606 13.2412V14.1171C261.605 14.7113 261.369 15.281 260.949 15.7012C260.529 16.1213 259.959 16.3577 259.365 16.3583Z" fill="white"/>
<path d="M330.691 55.9794H315.06C314.465 55.9788 313.896 55.7424 313.476 55.3222C313.055 54.9021 312.819 54.3324 312.818 53.7382V52.8623C312.819 52.2681 313.055 51.6984 313.476 51.2783C313.896 50.8581 314.465 50.6217 315.06 50.6211H330.691C331.285 50.6217 331.855 50.8581 332.275 51.2783C332.695 51.6984 332.932 52.2681 332.932 52.8623V53.7382C332.932 54.3324 332.695 54.9021 332.275 55.3222C331.855 55.7424 331.285 55.9788 330.691 55.9794Z" fill="white"/>
</g>
<defs>
<clipPath id="clip0_424_1652">
<rect width="588" height="319.845" fill="white"/>
</clipPath>
</defs>
</svg>
