<svg width="220" height="221" viewBox="0 0 220 221" fill="none" xmlns="http://www.w3.org/2000/svg">
<g filter="url(#filter0_d_296_856)">
<path fill-rule="evenodd" clip-rule="evenodd" d="M110 123C122.15 123 132 113.15 132 101C132 88.8497 122.15 79 110 79C97.8497 79 88 88.8497 88 101C88 113.15 97.8497 123 110 123Z" fill="white"/>
</g>
<path d="M110 118.875C119.872 118.875 127.875 110.872 127.875 101C127.875 91.1279 119.872 83.125 110 83.125C100.128 83.125 92.125 91.1279 92.125 101C92.125 110.872 100.128 118.875 110 118.875Z" fill="#1B3854"/>
<path d="M114.804 96.5428C115.278 96.0691 116.046 96.0691 116.52 96.5428C116.993 97.0166 116.993 97.7848 116.52 98.2586L109.24 105.538C108.766 106.012 107.998 106.012 107.524 105.538L103.48 101.494C103.007 101.02 103.007 100.252 103.48 99.7781C103.954 99.3043 104.722 99.3043 105.196 99.7781L108.382 102.964L114.804 96.5428Z" fill="white"/>
<defs>
<filter id="filter0_d_296_856" x="0" y="0.625" width="220" height="220" filterUnits="userSpaceOnUse" color-interpolation-filters="sRGB">
<feFlood flood-opacity="0" result="BackgroundImageFix"/>
<feColorMatrix in="SourceAlpha" type="matrix" values="0 0 0 0 0 0 0 0 0 0 0 0 0 0 0 0 0 0 127 0" result="hardAlpha"/>
<feOffset dy="9.625"/>
<feGaussianBlur stdDeviation="44"/>
<feColorMatrix type="matrix" values="0 0 0 0 0 0 0 0 0 0 0 0 0 0 0 0 0 0 0.07 0"/>
<feBlend mode="normal" in2="BackgroundImageFix" result="effect1_dropShadow_296_856"/>
<feBlend mode="normal" in="SourceGraphic" in2="effect1_dropShadow_296_856" result="shape"/>
</filter>
</defs>
</svg>
