<svg width="57" height="57" viewBox="0 0 57 57" fill="none" xmlns="http://www.w3.org/2000/svg">
<rect width="57" height="57" rx="12" fill="#009BC0" fill-opacity="0.27"/>
<path d="M21.3571 22.25C21.3568 22.0153 21.4492 21.79 21.6143 21.6232L21.6232 21.6143C21.79 21.4492 22.0153 21.3568 22.25 21.3571H25.8214C26.0582 21.3571 26.2853 21.4512 26.4528 21.6187C26.6202 21.7861 26.7143 22.0132 26.7143 22.25C26.7143 22.4868 26.6202 22.7139 26.4528 22.8813C26.2853 23.0488 26.0582 23.1429 25.8214 23.1429H24.4054L26.4536 25.1893C26.6212 25.3569 26.7154 25.5843 26.7154 25.8214C26.7154 26.0585 26.6212 26.2859 26.4536 26.4536C26.2859 26.6212 26.0585 26.7154 25.8214 26.7154C25.5843 26.7154 25.3569 26.6212 25.1893 26.4536L23.1429 24.4054V25.8214C23.1429 26.0582 23.0488 26.2853 22.8813 26.4528C22.7139 26.6202 22.4868 26.7143 22.25 26.7143C22.0132 26.7143 21.7861 26.6202 21.6187 26.4528C21.4512 26.2853 21.3571 26.0582 21.3571 25.8214V22.25ZM21.425 35.0911C21.3802 34.9829 21.3571 34.867 21.3571 34.75V31.1786C21.3571 30.9418 21.4512 30.7147 21.6187 30.5472C21.7861 30.3798 22.0132 30.2857 22.25 30.2857C22.4868 30.2857 22.7139 30.3798 22.8813 30.5472C23.0488 30.7147 23.1429 30.9418 23.1429 31.1786V32.5946L25.1893 30.5464C25.2723 30.4634 25.3709 30.3976 25.4793 30.3526C25.5878 30.3077 25.704 30.2846 25.8214 30.2846C25.9388 30.2846 26.0551 30.3077 26.1635 30.3526C26.272 30.3976 26.3706 30.4634 26.4536 30.5464C26.5366 30.6294 26.6024 30.728 26.6474 30.8365C26.6923 30.9449 26.7154 31.0612 26.7154 31.1786C26.7154 31.296 26.6923 31.4122 26.6474 31.5207C26.6024 31.6291 26.5366 31.7277 26.4536 31.8107L24.4054 33.8571H25.8214C26.0582 33.8571 26.2853 33.9512 26.4528 34.1187C26.6202 34.2861 26.7143 34.5132 26.7143 34.75C26.7143 34.9868 26.6202 35.2139 26.4528 35.3813C26.2853 35.5488 26.0582 35.6429 25.8214 35.6429H22.2446C22.0685 35.6424 21.8965 35.5897 21.7503 35.4915C21.6041 35.3933 21.4903 35.2539 21.4232 35.0911H21.425ZM35.0911 21.425C35.1946 21.4679 35.2929 21.5321 35.3768 21.6143L35.3857 21.6232C35.5504 21.7902 35.6428 22.0154 35.6429 22.25V25.8214C35.6429 26.0582 35.5488 26.2853 35.3813 26.4528C35.2139 26.6202 34.9868 26.7143 34.75 26.7143C34.5132 26.7143 34.2861 26.6202 34.1187 26.4528C33.9512 26.2853 33.8571 26.0582 33.8571 25.8214V24.4054L31.8107 26.4536C31.6431 26.6212 31.4157 26.7154 31.1786 26.7154C30.9415 26.7154 30.7141 26.6212 30.5464 26.4536C30.3788 26.2859 30.2846 26.0585 30.2846 25.8214C30.2846 25.5843 30.3788 25.3569 30.5464 25.1893L32.5946 23.1429H31.1786C30.9418 23.1429 30.7147 23.0488 30.5472 22.8813C30.3798 22.7139 30.2857 22.4868 30.2857 22.25C30.2857 22.0132 30.3798 21.7861 30.5472 21.6187C30.7147 21.4512 30.9418 21.3571 31.1786 21.3571H34.75C34.867 21.3572 34.9829 21.3802 35.0911 21.425ZM35.3768 35.3857C35.2099 35.5506 34.9846 35.643 34.75 35.6429H31.1786C30.9418 35.6429 30.7147 35.5488 30.5472 35.3813C30.3798 35.2139 30.2857 34.9868 30.2857 34.75C30.2857 34.5132 30.3798 34.2861 30.5472 34.1187C30.7147 33.9512 30.9418 33.8571 31.1786 33.8571H32.5946L30.5464 31.8107C30.4634 31.7277 30.3976 31.6291 30.3526 31.5207C30.3077 31.4122 30.2846 31.296 30.2846 31.1786C30.2846 31.0612 30.3077 30.9449 30.3526 30.8365C30.3976 30.728 30.4634 30.6294 30.5464 30.5464C30.6294 30.4634 30.728 30.3976 30.8365 30.3526C30.9449 30.3077 31.0612 30.2846 31.1786 30.2846C31.296 30.2846 31.4122 30.3077 31.5207 30.3526C31.6291 30.3976 31.7277 30.4634 31.8107 30.5464L33.8571 32.5946V31.1786C33.8571 30.9418 33.9512 30.7147 34.1187 30.5472C34.2861 30.3798 34.5132 30.2857 34.75 30.2857C34.9868 30.2857 35.2139 30.3798 35.3813 30.5472C35.5488 30.7147 35.6429 30.9418 35.6429 31.1786V34.75C35.6428 34.9846 35.5504 35.2098 35.3857 35.3768L35.3768 35.3857ZM16 19.5714C16 18.6242 16.3763 17.7158 17.046 17.046C17.7158 16.3763 18.6242 16 19.5714 16H37.4286C38.3758 16 39.2842 16.3763 39.954 17.046C40.6237 17.7158 41 18.6242 41 19.5714V37.4286C41 38.3758 40.6237 39.2842 39.954 39.954C39.2842 40.6237 38.3758 41 37.4286 41H19.5714C18.6242 41 17.7158 40.6237 17.046 39.954C16.3763 39.2842 16 38.3758 16 37.4286V19.5714ZM19.5714 17.7857C19.0978 17.7857 18.6436 17.9739 18.3087 18.3087C17.9739 18.6436 17.7857 19.0978 17.7857 19.5714V37.4286C17.7857 37.9022 17.9739 38.3564 18.3087 38.6913C18.6436 39.0261 19.0978 39.2143 19.5714 39.2143H37.4286C37.9022 39.2143 38.3564 39.0261 38.6913 38.6913C39.0261 38.3564 39.2143 37.9022 39.2143 37.4286V19.5714C39.2143 19.0978 39.0261 18.6436 38.6913 18.3087C38.3564 17.9739 37.9022 17.7857 37.4286 17.7857H19.5714Z" fill="#1B3854"/>
</svg>
