<svg width="38" height="45" viewBox="0 0 38 45" fill="none" xmlns="http://www.w3.org/2000/svg">
<path d="M16.9819 22.5289L0.836926 7.17471C-0.278975 6.11346 -0.278975 4.3974 0.836926 3.34745L3.51984 0.795936C4.63574 -0.265312 6.44018 -0.265312 7.54421 0.795936L18.9881 11.6794L30.4321 0.795936C31.548 -0.265312 33.3524 -0.265312 34.4564 0.795936L37.1631 3.33616C38.279 4.3974 38.279 6.11346 37.1631 7.16342L21.0181 22.5176C19.9022 23.5902 18.0978 23.5902 16.9819 22.5289ZM21.0181 44.2055L37.1631 28.8512C38.279 27.79 38.279 26.0739 37.1631 25.024L34.4802 22.4725C33.3643 21.4112 31.5598 21.4112 30.4558 22.4725L19 33.3446L7.55608 22.4612C6.44018 21.3999 4.63574 21.3999 3.53171 22.4612L0.836926 25.0127C-0.278975 26.0739 -0.278975 27.79 0.836926 28.84L16.9819 44.1942C18.0978 45.2667 19.9022 45.2667 21.0181 44.2055Z" fill="black" fill-opacity="0.54"/>
</svg>
