<svg width="13" height="15" viewBox="0 0 13 15" fill="none" xmlns="http://www.w3.org/2000/svg">
<path d="M12.9609 13.6341L8.74084 8.86535C9.39571 7.90867 9.74996 6.73899 9.74996 5.50871C9.74996 4.03605 9.24133 2.6552 8.32159 1.61405C7.40184 0.572906 6.1766 0 4.87498 0C3.57336 0 2.34811 0.574742 1.42837 1.61405C0.506998 2.65336 0 4.03605 0 5.50871C0 6.97954 0.508623 8.36406 1.42837 9.40337C2.34811 10.4445 3.57173 11.0174 4.87498 11.0174C5.96372 11.0174 6.99722 10.6171 7.84384 9.87896L12.0639 14.6458C12.0763 14.6598 12.091 14.6709 12.1072 14.6785C12.1234 14.6861 12.1407 14.69 12.1582 14.69C12.1757 14.69 12.193 14.6861 12.2092 14.6785C12.2254 14.6709 12.2401 14.6598 12.2524 14.6458L12.9609 13.8471C12.9733 13.8331 12.9831 13.8165 12.9898 13.7982C12.9965 13.7799 13 13.7603 13 13.7406C13 13.7208 12.9965 13.7012 12.9898 13.6829C12.9831 13.6646 12.9733 13.648 12.9609 13.6341ZM7.44897 8.41731C6.75997 9.19404 5.84672 9.62188 4.87498 9.62188C3.90323 9.62188 2.98999 9.19404 2.30099 8.41731C1.61362 7.63875 1.23499 6.60678 1.23499 5.50871C1.23499 4.41064 1.61362 3.37684 2.30099 2.60011C2.98999 1.82338 3.90323 1.39554 4.87498 1.39554C5.84672 1.39554 6.7616 1.82155 7.44897 2.60011C8.13634 3.37868 8.51496 4.41064 8.51496 5.50871C8.51496 6.60678 8.13634 7.64058 7.44897 8.41731Z" fill="white"/>
</svg>
