<svg width="57" height="57" viewBox="0 0 57 57" fill="none" xmlns="http://www.w3.org/2000/svg">
<rect width="57" height="57" rx="12" fill="#009BC0" fill-opacity="0.27"/>
<path d="M23.2727 27.3636V21.6818C23.2727 18.2727 25.5455 16 28.9545 16C32.3636 16 34.6364 18.2727 34.6364 21.6818V27.3636H23.2727ZM28.9545 41C31.0642 41 33.0875 40.1619 34.5793 38.6702C36.071 37.1784 36.9091 35.1551 36.9091 33.0455C36.9091 30.9358 36.071 28.9125 34.5793 27.4207C33.0875 25.929 31.0642 25.0909 28.9545 25.0909C26.8449 25.0909 24.8216 25.929 23.3298 27.4207C21.8381 28.9125 21 30.9358 21 33.0455C21 35.1551 21.8381 37.1784 23.3298 38.6702C24.8216 40.1619 26.8449 41 28.9545 41V41ZM28.9545 31.9091V36.4545V31.9091ZM28.9545 33.0455C29.2559 33.0455 29.545 32.9257 29.7581 32.7126C29.9712 32.4995 30.0909 32.2105 30.0909 31.9091C30.0909 31.6077 29.9712 31.3187 29.7581 31.1056C29.545 30.8925 29.2559 30.7727 28.9545 30.7727C28.6532 30.7727 28.3641 30.8925 28.151 31.1056C27.9379 31.3187 27.8182 31.6077 27.8182 31.9091C27.8182 32.2105 27.9379 32.4995 28.151 32.7126C28.3641 32.9257 28.6532 33.0455 28.9545 33.0455V33.0455Z" stroke="#1B3854" stroke-width="2"/>
</svg>
