<svg width="48" height="48" viewBox="0 0 48 48" fill="none" xmlns="http://www.w3.org/2000/svg">
<path d="M47.2 27.9999C47.4121 27.9999 47.6157 27.9156 47.7657 27.7656C47.9157 27.6156 48 27.4121 48 27.1999V20.7999C48 20.5878 47.9157 20.3842 47.7657 20.2342C47.6157 20.0842 47.4121 19.9999 47.2 19.9999H42.7736C42.2875 17.7056 41.3825 15.5206 40.104 13.5542L43.2304 10.4207C43.5421 10.1085 43.5421 9.60281 43.2304 9.29033L38.7103 4.77029C38.3982 4.4585 37.8921 4.4585 37.58 4.77029L34.4457 7.89605C32.4793 6.61751 30.2943 5.71246 28 5.22642V0.8C28 0.587858 27.9157 0.384283 27.7657 0.234286C27.6157 0.084288 27.4121 0 27.2 0H20.8C20.3582 0 20 0.358217 20 0.8V5.22642C17.7057 5.71249 15.5207 6.61751 13.5543 7.89605L10.4208 4.76965C10.1086 4.45786 9.6029 4.45786 9.29042 4.76965L4.77038 9.28969C4.45859 9.60184 4.45859 10.1079 4.77038 10.42L7.89678 13.5536C6.61824 15.52 5.71282 17.7053 5.22642 20H0.8C0.358217 20 0 20.3582 0 20.8V27.2C0 27.4121 0.0842862 27.6157 0.234286 27.7657C0.384285 27.9157 0.587858 28 0.8 28H5.22642C5.71249 30.2943 6.61751 32.4793 7.89605 34.4457L4.76965 37.5792C4.45786 37.8914 4.45786 38.3971 4.76965 38.7096L9.28969 43.2296C9.60184 43.5414 10.1079 43.5414 10.42 43.2296L13.5536 40.1032C15.52 41.3818 17.7053 42.2872 20 42.7736V47.2C20 47.4121 20.0843 47.6157 20.2343 47.7657C20.3843 47.9157 20.5879 48 20.8 48H27.2C27.4121 48 27.6157 47.9157 27.7657 47.7657C27.9157 47.6157 28 47.4121 28 47.2V42.7736C30.2936 42.2854 32.4779 41.3789 34.4432 40.1L40.9704 46.6272C41.9825 47.6304 43.4515 48.0194 44.8276 47.6486C46.2033 47.2779 47.278 46.2032 47.6486 44.8276C48.0194 43.4515 47.6304 41.9826 46.6272 40.9704L40.1 34.4432C41.3789 32.4779 42.2853 30.2936 42.7736 28L47.2 27.9999ZM45.496 45.4957C45.046 45.9457 44.4353 46.1985 43.799 46.1985C43.1622 46.1985 42.5518 45.9457 42.1015 45.4957L26.7835 30.1777C26.0321 29.427 25.0121 29.0077 23.95 29.0128C23.7832 29.0128 23.6164 29.0228 23.4507 29.0424C21.3432 29.2956 19.2475 28.4863 17.8571 26.8824C16.4664 25.2788 15.9624 23.0896 16.5114 21.0392L20.0403 24.5688C20.1903 24.7188 20.3939 24.8031 20.606 24.8031H24.0003C24.2125 24.8031 24.416 24.7188 24.566 24.5688C24.716 24.4188 24.8003 24.2152 24.8003 24.0031V20.6049C24.8003 20.3927 24.716 20.1891 24.566 20.0392L21.0404 16.5102C23.0904 15.9623 25.2785 16.467 26.8815 17.8573C28.4844 19.2476 29.2933 21.3426 29.0404 23.4494C28.8839 24.6762 29.3029 25.9062 30.1757 26.7823L45.4964 42.1002C45.9464 42.5506 46.1993 43.161 46.1993 43.7977C46.1993 44.4341 45.9464 45.0449 45.4964 45.4948L45.496 45.4957ZM31.31 25.6557C30.7853 25.1257 30.5357 24.3828 30.6332 23.6435C30.8628 21.7389 30.3996 19.8146 29.3285 18.2232C28.2571 16.6314 26.6488 15.4779 24.7978 14.9735C22.9467 14.4692 20.9756 14.6475 19.245 15.4757C19.011 15.5878 18.8464 15.8067 18.8028 16.0625C18.7592 16.3182 18.8425 16.5792 19.026 16.7628L23.2003 20.9364V23.1996H20.9371L16.7635 19.0253C16.58 18.8417 16.3189 18.7585 16.0632 18.8021C15.8075 18.8457 15.5885 19.0103 15.4764 19.2442C14.6482 20.9746 14.4699 22.945 14.9739 24.7957C15.4782 26.6464 16.6307 28.2539 18.2217 29.3253C19.8127 30.3968 21.736 30.8603 23.6403 30.6318C24.3796 30.5343 25.1225 30.7846 25.6525 31.3093L29.7679 35.4235H29.7675C26.1128 37.27 21.7954 37.2575 18.1515 35.3903C14.5072 33.5228 11.9758 30.0257 11.3397 25.9805C10.704 21.9355 12.0404 17.8301 14.9358 14.935C17.8311 12.0399 21.9365 10.7033 25.9813 11.339C30.0262 11.975 33.5234 14.5065 35.3911 18.1508C37.2582 21.7946 37.2708 26.1122 35.4243 29.7667L31.31 25.6557ZM41.3242 27.0685C40.9384 29.2763 40.1306 31.3893 38.9449 33.2917L36.6056 30.9524H36.606C38.8628 26.8628 38.9985 21.9334 36.9699 17.7264C34.9413 13.5188 31.0003 10.5549 26.3953 9.77353C21.7903 8.9921 17.0924 10.4903 13.7891 13.7928C10.4863 17.0957 8.98838 21.7939 9.76982 26.399C10.5513 31.0043 13.5152 34.9455 17.7226 36.9736C21.9302 39.0022 26.8595 38.8665 30.9487 36.6097L33.288 38.949H33.2876C31.3855 40.1344 29.2726 40.9422 27.0645 41.328C26.6823 41.3937 26.402 41.724 26.3998 42.1122V46.4001H21.5998V42.1122C21.5995 41.7226 21.3187 41.3897 20.9352 41.324C18.4113 40.8822 16.0162 39.8897 13.9199 38.4169C13.6016 38.1933 13.1692 38.2308 12.8941 38.5058L9.86053 41.5336L6.47017 38.1433L9.49801 35.1097H9.49837C9.77301 34.8347 9.81052 34.4022 9.58694 34.0839C8.11375 31.9865 7.12084 29.59 6.67979 27.0647C6.61371 26.6793 6.27872 26.3983 5.88764 26.4001H1.59982V21.6001H5.88764C6.27728 21.5997 6.61014 21.319 6.67585 20.9354C7.11764 18.4115 8.11019 16.0165 9.58301 13.9201C9.80658 13.6019 9.76908 13.1694 9.49408 12.8944L6.46624 9.86077L9.85659 6.47041L12.8902 9.49825V9.49861C13.1652 9.77325 13.5977 9.81076 13.9159 9.58718C16.0134 8.11399 18.4098 7.12108 20.9352 6.68003C21.3205 6.61396 21.6016 6.27896 21.5998 5.88788V1.60007H26.3998V5.88788C26.4002 6.27752 26.6809 6.61038 27.0645 6.6761C29.5898 7.11717 31.9862 8.11006 34.0837 9.58325C34.4019 9.80682 34.8344 9.76933 35.1094 9.49432L38.143 6.46648L41.5334 9.85684L38.5056 12.8904C38.2306 13.1654 38.1931 13.5979 38.4166 13.9162C39.8898 16.0136 40.8827 18.4101 41.3238 20.9354C41.3895 21.319 41.7224 21.5997 42.112 21.6001H46.3998V26.4001H42.112C41.7224 26.4004 41.3895 26.6811 41.3238 27.0647L41.3242 27.0685Z" fill="#132230"/>
<path d="M29.0907 27.9597C28.9418 27.8054 28.7368 27.7172 28.5225 27.7154C28.3079 27.7136 28.1014 27.7979 27.9496 27.9497C27.7979 28.1015 27.7136 28.3079 27.7154 28.5225C27.7171 28.7368 27.8054 28.9418 27.9596 29.0907L28.5254 29.6565C28.8393 29.9597 29.3382 29.9554 29.6468 29.6468C29.9554 29.3382 29.9597 28.8393 29.6565 28.5254L29.0907 27.9597Z" fill="#132230"/>
<path d="M40.4052 41.5359C40.7192 41.8391 41.2181 41.8348 41.5271 41.5263C41.8356 41.2173 41.8399 40.7184 41.5367 40.4044L31.9202 30.788C31.6077 30.4755 31.101 30.4755 30.7881 30.788C30.4756 31.1008 30.4756 31.6076 30.7881 31.9201L40.4052 41.5359Z" fill="#132230"/>
<path d="M43.2339 44.3647C43.5478 44.6679 44.0468 44.6636 44.3554 44.3551C44.664 44.0465 44.6682 43.5476 44.365 43.2336L43.7993 42.6672H43.7996C43.4868 42.3547 42.98 42.3547 42.6675 42.6672C42.355 42.9797 42.355 43.4865 42.6675 43.7993L43.2339 44.3647Z" fill="#132230"/>
</svg>
