<svg width="48" height="48" viewBox="0 0 48 48" fill="none" xmlns="http://www.w3.org/2000/svg">
<path d="M35.0999 29.5C31.8999 29.5 29.2998 32.1001 29.2998 35.2C29.2998 38.4 31.8999 40.9 35.0999 40.9C38.2999 40.9 40.9 38.2999 40.9 35.2C40.9 32.0997 38.2999 29.5 35.0999 29.5ZM35.0999 39C32.9999 39 31.3 37.3001 31.3 35.2999C31.3 33.1999 32.9999 31.5998 35.0999 31.5998C37.1999 31.5998 38.8998 33.2997 38.8998 35.2999C38.8998 37.3001 37.1999 39 35.0999 39Z" fill="#132230"/>
<path d="M47.1999 32.4L44.1997 31.7C44.1997 31.5999 44.0996 31.5002 44.0996 31.4001L45.6998 28.9001C45.8996 28.5 45.8996 28.0003 45.5997 27.7L42.8999 25.0002C42.5999 24.7002 42.0998 24.6001 41.6998 24.9001L39 26.3004C38.8999 26.2003 38.7 26.2003 38.5999 26.1006L37.8999 23.2006C37.7998 22.8006 37.3998 22.4005 36.9 22.4005H33.1001C32.6 22.4005 32.2003 22.7005 32.1002 23.2006L31.4002 26.2008C31.3001 26.2008 31.2004 26.3009 31.0002 26.4006L28.4001 24.8004C28.0001 24.6006 27.5003 24.6006 27.2 24.9005L24.9999 27.2004H12.5C5.60025 27.2004 0 32.8003 0 39.7003V47.0005C0 47.6004 0.400043 48.0004 0.999908 48.0004H36.9998C37.5 48.0004 37.8996 47.7004 37.9997 47.2003L38.6997 44.2001C38.7998 44.2001 38.8996 44.1 39.0998 44.0003L41.6998 45.6005C42.0999 45.8003 42.5996 45.8003 42.8999 45.5004L45.5997 42.9003C45.8997 42.6003 45.9998 42.1002 45.6998 41.7002L44.0997 39.1001C44.1998 39 44.1998 38.9003 44.1998 38.8002L47.1999 38.1002C47.7001 38.0001 48 37.6001 48 37.1003V33.4002C47.9997 32.9004 47.6997 32.5004 47.1996 32.4003L47.1999 32.4ZM1.99998 46V39.7001C1.99998 33.9 6.70005 29.2001 12.4999 29.2001H24.5999L25.9999 31.4002C25.8998 31.5003 25.8998 31.6 25.8998 31.8002L22.8996 32.5002C22.3995 32.6003 22.0996 33.0003 22.0996 33.5001V37.2002C22.0996 37.7003 22.3995 38.1 22.8996 38.2001L25.8998 38.9001C25.8998 39.0002 25.9999 39.0999 25.9999 39.2L24.3997 41.7C24.1999 42.1001 24.1999 42.5998 24.4998 42.9001L27.1997 45.5002C27.4996 45.8001 27.9997 45.9002 28.3997 45.6003L30.9998 44.0001C31.0999 44.1002 31.1997 44.1002 31.3999 44.2L31.7999 45.8999L1.99999 45.9002L1.99998 46ZM45.9999 36.3L43.3 36.8999C43.0001 37 42.7002 37.1998 42.6001 37.5999C42.5 37.9999 42.3001 38.2998 42.0999 38.6999C42.0002 38.8 42.0002 38.8997 42.0002 38.9998V39.0999C42.0002 39.2998 42.0002 39.3999 42.1003 39.5V39.6L43.6004 42L42.0002 43.5998L39.6003 42.0997C39.3003 41.8998 38.9003 41.8998 38.6004 42.0997C38.2003 42.2995 37.9004 42.3996 37.5004 42.5998C37.2004 42.6999 36.9005 42.9999 36.8004 43.2998L36.2002 45.9996H34.0001L33.4002 43.2998C33.3001 42.9999 33.1002 42.6999 32.7002 42.5998C32.3002 42.4997 31.9001 42.2999 31.6002 42.0997C31.3003 41.8998 30.9002 41.9996 30.6003 42.0997L28.2004 43.5998L26.6002 42.0997L28.1003 39.7995C28.3002 39.4996 28.3002 39.0995 28.1003 38.7996C27.9005 38.4997 27.8004 38.0996 27.6002 37.7997C27.6002 37.7997 27.6002 37.6996 27.5001 37.6996C27.4 37.3997 27.1 37.1995 26.8001 37.0997L24.0002 36.4998V34.2997L26.7 33.6998C26.9999 33.5997 27.2999 33.3999 27.4 32.9999C27.5001 32.5998 27.6999 32.2999 27.9001 31.8999C28.1 31.5999 28.0002 31.1999 27.9001 30.9L26.4 28.5L28.0002 27L30.4001 28.5C30.7001 28.6999 31.1001 28.6999 31.4 28.5C31.8001 28.3002 32.2001 28.1 32.5 27.9999C32.8 27.8998 33.0999 27.5999 33.2 27.2999L33.9 24.6001H36.1001L36.7 27.2999C36.8 27.5999 36.9999 27.8998 37.3999 27.9999C37.8 28.1 38.2 28.2999 38.4999 28.5C38.7999 28.6999 39.1999 28.6001 39.4998 28.5L41.8997 27L43.4999 28.5L41.9998 30.8002C41.8 31.1002 41.8 31.5002 41.9998 31.8001C42.1997 32.2002 42.3999 32.5001 42.5 32.9001C42.6001 33.2001 42.9 33.5 43.2 33.6001L45.9999 34.2L45.9999 36.3Z" fill="#132230"/>
<path d="M18.8002 0C12.6001 0 7.7002 4.8999 7.7002 11C7.7002 16.7 12.5004 25.5999 18.8002 25.5999C25.2002 25.5999 29.9001 16.8 29.9001 11C29.8998 4.89999 24.8998 0 18.8002 0ZM18.8002 23.5999C13.8002 23.5999 9.70019 15.9999 9.70019 11C9.70019 6.00007 13.8004 1.99999 18.8002 1.99999C23.8 1.99999 27.9001 6.00007 27.9001 11C27.8998 16 23.8 23.5999 18.8002 23.5999Z" fill="#132230"/>
</svg>
