<svg width="48" height="48" viewBox="0 0 48 48" fill="none" xmlns="http://www.w3.org/2000/svg">
<path d="M21.6775 34.8384V31.7416C21.6775 30.4612 20.6355 29.4189 19.3548 29.4189V27.8704C20.6352 27.8704 21.6775 26.8285 21.6775 25.5478V22.451C21.6775 21.1706 20.6355 20.1284 19.3548 20.1284V18.5799C20.6352 18.5799 21.6775 17.5379 21.6775 16.2572V13.1605C21.6775 11.8801 20.6355 10.8378 19.3548 10.8378L2.32267 10.8385C1.04228 10.8385 0 11.8804 0 13.1611V16.2579C0 17.5383 1.04193 18.5805 2.32267 18.5805V20.129C1.04228 20.129 0 21.171 0 22.4517V25.5485C0 26.8288 1.04193 27.8711 2.32267 27.8711V29.4196C1.04228 29.4196 0 30.4616 0 31.7423V34.839C0 36.1194 1.04193 37.1617 2.32267 37.1617H19.3548C20.6352 37.1607 21.6771 36.1187 21.6771 34.8384L21.6775 34.8384ZM1.5485 16.2574V13.1606C1.5485 12.7334 1.89537 12.3865 2.3226 12.3865H19.3547C19.782 12.3865 20.1288 12.7334 20.1288 13.1606V16.2574C20.1288 16.6846 19.782 17.0315 19.3547 17.0315L2.3226 17.0318C1.89503 17.0318 1.5485 16.6849 1.5485 16.2574V16.2574ZM3.87082 18.58H17.8061V20.1285H3.87082V18.58ZM1.5485 25.548V22.4512C1.5485 22.024 1.89537 21.6771 2.3226 21.6771H19.3547C19.782 21.6771 20.1288 22.024 20.1288 22.4512V25.548C20.1288 25.9752 19.782 26.322 19.3547 26.322H2.3226C1.89503 26.322 1.5485 25.9752 1.5485 25.548ZM3.87082 27.8703H17.8061V29.4188H3.87082V27.8703ZM1.5485 34.8382V31.7414C1.5485 31.3142 1.89537 30.9673 2.3226 30.9673H19.3547C19.782 30.9673 20.1288 31.3142 20.1288 31.7414V34.8382C20.1288 35.2654 19.782 35.6123 19.3547 35.6123H2.3226C1.89503 35.6123 1.5485 35.2654 1.5485 34.8382Z" fill="#132230"/>
<path d="M48.0002 16.2582V13.1615C48.0002 11.8811 46.9583 10.8388 45.6776 10.8388L28.6454 10.8392C27.365 10.8392 26.3228 11.8811 26.3228 13.1618V16.2586C26.3228 17.539 27.3647 18.5812 28.6454 18.5812V20.1297C27.365 20.1297 26.3228 21.1717 26.3228 22.4524V25.5491C26.3228 26.8295 27.3647 27.8718 28.6454 27.8718V29.4203C27.365 29.4203 26.3228 30.4622 26.3228 31.743V34.8397C26.3228 36.1201 27.3647 37.1624 28.6454 37.1624H45.6776C46.9579 37.1624 48.0002 36.1204 48.0002 34.8397V31.743C48.0002 30.4626 46.9583 29.4203 45.6776 29.4203V27.8718C46.9579 27.8718 48.0002 26.8299 48.0002 25.5491V22.4524C48.0002 21.172 46.9583 20.1297 45.6776 20.1297V18.5812C46.9579 18.5809 47.9999 17.539 47.9999 16.2582L48.0002 16.2582ZM27.8713 16.2582V13.1615C27.8713 12.7343 28.2181 12.3874 28.6454 12.3874H45.6775C46.1047 12.3874 46.4516 12.7343 46.4516 13.1615V16.2582C46.4516 16.6855 46.1047 17.0323 45.6775 17.0323L28.6454 17.0327C28.2178 17.0327 27.8709 16.6858 27.8709 16.2582L27.8713 16.2582ZM46.4514 31.7424V34.8391C46.4514 35.2664 46.1045 35.6132 45.6773 35.6132H28.6451C28.2179 35.6132 27.871 35.2663 27.871 34.8391V31.7424C27.871 31.3151 28.2179 30.9683 28.6451 30.9683H45.6773C46.1045 30.968 46.451 31.3148 46.451 31.7424H46.4514ZM44.1291 29.4197H30.1937V27.8712H44.1291V29.4197ZM46.4514 22.4518V25.5485C46.4514 25.9758 46.1045 26.3226 45.6773 26.3226L28.6451 26.323C28.2179 26.323 27.871 25.9761 27.871 25.5489V22.4521C27.871 22.0249 28.2179 21.678 28.6451 21.678H45.6773C46.1045 21.6777 46.451 22.0246 46.451 22.4518H46.4514ZM44.1291 20.1295H30.1937V18.581H44.1291V20.1295Z" fill="#132230"/>
<path d="M34.8394 3.09685V2.17174L38.7976 4.64535L34.8394 7.11861V6.19351C34.8394 5.76527 34.4932 5.41941 34.0653 5.41941H9.29065V6.96791H33.2904V8.51641C33.2904 8.79732 33.4431 9.05681 33.6899 9.19374C33.8061 9.25769 33.9353 9.29017 34.0645 9.29017C34.2078 9.29017 34.3495 9.25066 34.4747 9.17265L40.6682 5.30183C40.8945 5.15987 41.0325 4.9121 41.0325 4.64525C41.0325 4.37806 40.8945 4.13029 40.6685 3.98866L34.475 0.117839C34.235 -0.0324935 33.9346 -0.0385192 33.6892 0.0970805C33.4431 0.233691 33.2904 0.493171 33.2904 0.77408V2.32258H7.74268V3.87108H34.0653C34.4932 3.87075 34.8394 3.52488 34.8394 3.09664L34.8394 3.09685Z" fill="#132230"/>
<path d="M13.1612 44.9028V45.828L9.20298 43.3543L13.1612 40.8811V41.8062C13.1612 42.2344 13.5074 42.5803 13.9353 42.5803H38.7091V41.0318L14.7093 41.0321V39.4836C14.7093 39.2027 14.5566 38.9432 14.3099 38.8063C14.0651 38.6707 13.7635 38.677 13.5241 38.827L7.33056 42.6979C7.10523 42.8398 6.96729 43.0876 6.96729 43.3544C6.96729 43.6216 7.10523 43.8694 7.33123 44.011L13.5247 47.8819C13.6503 47.9602 13.7919 47.9997 13.9352 47.9997C14.0644 47.9997 14.1937 47.9672 14.3099 47.9029C14.5566 47.766 14.7093 47.5065 14.7093 47.2256V45.6771H40.2579V44.1286L13.9353 44.1289C13.5071 44.1289 13.1609 44.4748 13.1609 44.903L13.1612 44.9028Z" fill="#132230"/>
<path d="M40.2593 41.032H41.8078V42.5805H40.2593V41.032Z" fill="#132230"/>
<path d="M43.3545 41.032H44.903V42.5805H43.3545V41.032Z" fill="#132230"/>
<path d="M6.19385 5.41953H7.74235V6.96803H6.19385V5.41953Z" fill="#132230"/>
<path d="M3.09717 5.41953H4.64567V6.96803H3.09717V5.41953Z" fill="#132230"/>
</svg>
