<svg width="57" height="57" viewBox="0 0 57 57" fill="none" xmlns="http://www.w3.org/2000/svg">
<rect width="57" height="57" rx="12" fill="#009BC0" fill-opacity="0.27"/>
<path d="M16 21.2083V35.7917C16 37.173 16.5487 38.4978 17.5255 39.4745C18.5022 40.4513 19.827 41 21.2083 41H35.7917C37.173 41 38.4978 40.4513 39.4745 39.4745C40.4513 38.4978 41 37.173 41 35.7917V21.2083C41 19.827 40.4513 18.5022 39.4745 17.5255C38.4978 16.5487 37.173 16 35.7917 16H21.2083C19.827 16 18.5022 16.5487 17.5255 17.5255C16.5487 18.5022 16 19.827 16 21.2083ZM18.0833 29.5417H27.4583V38.9167H21.2083C20.3795 38.9167 19.5847 38.5874 18.9986 38.0014C18.4126 37.4153 18.0833 36.6205 18.0833 35.7917V29.5417ZM27.4583 27.4583H18.0833V21.2083C18.0833 20.3795 18.4126 19.5847 18.9986 18.9986C19.5847 18.4126 20.3795 18.0833 21.2083 18.0833H27.4583V27.4583ZM29.5417 29.5417H38.9167V35.7917C38.9167 36.6205 38.5874 37.4153 38.0014 38.0014C37.4153 38.5874 36.6205 38.9167 35.7917 38.9167H29.5417V29.5417ZM38.9167 27.4583H29.5417V18.0833H35.7917C36.6205 18.0833 37.4153 18.4126 38.0014 18.9986C38.5874 19.5847 38.9167 20.3795 38.9167 21.2083V27.4583Z" fill="#1B3854"/>
</svg>
