<svg width="66" height="70" viewBox="0 0 66 70" fill="none" xmlns="http://www.w3.org/2000/svg">
<path d="M29.3295 34.7746L1.44546 11.0746C-0.48182 9.43647 -0.48182 6.78764 1.44546 5.16697L6.07913 1.22857C8.00641 -0.409524 11.1229 -0.409524 13.0296 1.22857L32.7945 18.0278L52.5593 1.22857C54.4866 -0.409524 57.6031 -0.409524 59.5099 1.22857L64.1845 5.14954C66.1118 6.78764 66.1118 9.43647 64.1845 11.0571L36.3005 34.7572C34.3732 36.4127 31.2568 36.4127 29.3295 34.7746ZM36.3005 68.2336L64.1845 44.5335C66.1118 42.8954 66.1118 40.2466 64.1845 38.6259L59.5509 34.6875C57.6236 33.0494 54.5071 33.0494 52.6004 34.6875L32.815 51.4693L13.0501 34.6701C11.1229 33.032 8.00641 33.032 6.09963 34.6701L1.44546 38.6085C-0.48182 40.2466 -0.48182 42.8954 1.44546 44.5161L29.3295 68.2162C31.2568 69.8717 34.3732 69.8717 36.3005 68.2336Z" fill="white"/>
</svg>
