<svg width="655" height="626" viewBox="0 0 655 626" fill="none" xmlns="http://www.w3.org/2000/svg">
<g clip-path="url(#clip0_474_927)">
<path d="M130.124 480.602L10.4105 425.473C6.10273 423.484 2.76007 419.867 1.11589 415.415C-0.528292 410.964 -0.339731 406.043 1.64018 401.731L17.0628 368.24C19.0525 363.932 22.6696 360.59 27.1206 358.945C31.5716 357.301 36.4931 357.49 40.8053 359.47L160.519 414.598C164.827 416.588 168.169 420.205 169.813 424.656C171.458 429.107 171.269 434.028 169.289 438.341L153.867 471.831C151.877 476.139 148.26 479.482 143.809 481.126C139.358 482.77 134.436 482.582 130.124 480.602Z" fill="#F2F2F2"/>
<path d="M111.484 459.309L38.7068 425.795C36.2562 424.663 34.3547 422.606 33.4193 420.074C32.484 417.541 32.5912 414.742 33.7176 412.289L45.9383 385.751C47.0701 383.3 49.1278 381.399 51.66 380.463C54.1921 379.528 56.9918 379.635 59.445 380.762L132.223 414.276C134.673 415.408 136.575 417.465 137.51 419.998C138.445 422.53 138.338 425.329 137.212 427.783L124.991 454.32C123.859 456.771 121.802 458.672 119.269 459.608C116.737 460.543 113.938 460.436 111.484 459.309Z" fill="white"/>
<path d="M111.066 460.218L38.2886 426.704C35.5972 425.461 33.5088 423.201 32.4816 420.42C31.4544 417.639 31.5722 414.564 32.8092 411.87L45.0297 385.333C46.2727 382.642 48.5325 380.553 51.3134 379.526C54.0943 378.499 57.1691 378.617 59.8632 379.854L132.641 413.368C135.332 414.611 137.42 416.871 138.448 419.652C139.475 422.432 139.357 425.507 138.12 428.201L125.899 454.738C124.656 457.43 122.397 459.518 119.616 460.546C116.835 461.573 113.76 461.455 111.066 460.218ZM59.0266 381.67C56.8144 380.655 54.2896 380.558 52.0061 381.401C49.7227 382.245 47.867 383.96 46.8463 386.17L34.6258 412.707C33.6101 414.919 33.5134 417.444 34.3569 419.727C35.2004 422.011 36.9152 423.866 39.1252 424.887L111.903 458.401C114.115 459.417 116.64 459.514 118.923 458.67C121.206 457.827 123.062 456.112 124.083 453.902L136.303 427.365C137.319 425.153 137.416 422.628 136.572 420.344C135.729 418.061 134.014 416.205 131.804 415.185L59.0266 381.67Z" fill="#3F3D56"/>
<path d="M90.4444 418.917L90.0423 418.732C89.8306 418.635 89.6401 418.497 89.4816 418.327C89.3232 418.156 89.2001 417.956 89.1192 417.737C89.0382 417.519 89.0012 417.287 89.0101 417.054C89.019 416.822 89.0737 416.593 89.1711 416.382C89.2685 416.17 89.4067 415.98 89.5777 415.822C89.7487 415.664 89.9492 415.541 90.1677 415.46C90.3862 415.38 90.6184 415.343 90.8511 415.353C91.0838 415.362 91.3123 415.418 91.5236 415.515L91.9256 415.701C92.3512 415.898 92.6812 416.255 92.8432 416.696C93.0052 417.136 92.9861 417.622 92.7899 418.048C92.5937 418.474 92.2366 418.805 91.7969 418.968C91.3572 419.131 90.8707 419.113 90.4444 418.917Z" fill="#CCCCCC"/>
<path d="M107.681 437.577L85.5667 427.393C85.355 427.296 85.1645 427.158 85.0061 426.987C84.8477 426.817 84.7245 426.617 84.6436 426.398C84.5627 426.18 84.5256 425.948 84.5345 425.715C84.5434 425.482 84.5981 425.254 84.6955 425.042C84.7929 424.831 84.9311 424.641 85.1021 424.482C85.2731 424.324 85.4736 424.202 85.6921 424.121C85.9106 424.041 86.1429 424.004 86.3755 424.014C86.6082 424.023 86.8367 424.078 87.048 424.176L109.163 434.36C109.374 434.457 109.565 434.595 109.723 434.765C109.882 434.936 110.005 435.136 110.086 435.355C110.167 435.573 110.204 435.805 110.195 436.038C110.186 436.27 110.131 436.499 110.034 436.711C109.936 436.922 109.798 437.112 109.627 437.27C109.456 437.428 109.256 437.551 109.037 437.632C108.819 437.712 108.587 437.749 108.354 437.739C108.121 437.73 107.893 437.675 107.681 437.577Z" fill="#CCCCCC"/>
<path d="M69.6454 424.623C76.2021 424.623 81.5174 419.308 81.5174 412.751C81.5174 406.194 76.2021 400.879 69.6454 400.879C63.0887 400.879 57.7734 406.194 57.7734 412.751C57.7734 419.308 63.0887 424.623 69.6454 424.623Z" fill="#009BC0"/>
<path d="M613.83 427.153H169.099C158.38 427.141 148.103 422.878 140.524 415.298C132.944 407.719 128.681 397.442 128.669 386.723V40.4301C128.681 29.7111 132.944 19.4347 140.524 11.8552C148.103 4.2757 158.38 0.0121882 169.099 0H613.83C624.549 0.0121882 634.826 4.2757 642.405 11.8552C649.985 19.4347 654.248 29.7111 654.26 40.4301V386.723C654.248 397.442 649.985 407.719 642.405 415.298C634.826 422.878 624.549 427.141 613.83 427.153Z" fill="#F2F2F2"/>
<path d="M269.682 111.043C276.449 111.043 281.934 105.558 281.934 98.7913C281.934 92.025 276.449 86.5398 269.682 86.5398C262.916 86.5398 257.431 92.025 257.431 98.7913C257.431 105.558 262.916 111.043 269.682 111.043Z" fill="#F2F2F2"/>
<path d="M183.393 612.928L193.294 612.927L198.004 574.737L183.391 574.738L183.393 612.928Z" fill="#A0616A"/>
<path d="M183.044 623.256L213.491 623.255V622.87C213.491 619.727 212.242 616.713 210.02 614.491C207.797 612.268 204.783 611.02 201.64 611.02H201.639L196.078 606.8L185.701 611.02L183.043 611.02L183.044 623.256Z" fill="#2F2E41"/>
<path d="M138.393 612.928L148.294 612.927L153.004 574.737L138.391 574.738L138.393 612.928Z" fill="#A0616A"/>
<path d="M138.044 623.256L168.491 623.255V622.87C168.491 619.727 167.242 616.713 165.02 614.491C162.797 612.268 159.783 611.02 156.64 611.02H156.639L151.078 606.8L140.701 611.02L138.043 611.02L138.044 623.256Z" fill="#2F2E41"/>
<path d="M207.464 367.737C207.464 367.737 223.465 387.583 220.363 392.728C217.261 397.874 212.261 396.092 217.261 401.483C222.261 406.874 224.264 406.937 220.762 410.906C217.261 414.874 214.219 501.614 214.219 501.614L198.26 591.874L180.697 593.457C180.697 593.457 177.421 582.425 177.341 578.15C177.261 573.874 177.261 577.599 177.261 568.737C177.261 559.874 180.421 566.74 177.341 558.307C174.261 549.874 170.421 525.032 177.341 512.953C184.261 500.874 178.822 511.472 178.822 511.472L173.461 429.614L163.26 513.874C163.26 513.874 163.26 542.874 158.26 563.874L157.434 593.457L135.883 592.633C135.883 592.633 130.26 583.874 132.26 573.874C134.26 563.874 126.26 558.874 126.26 553.874C126.26 548.874 126.682 501.047 126.682 501.047L131.355 401.483C131.355 401.483 127.26 378.874 136.26 369.874C145.26 360.874 207.464 367.737 207.464 367.737Z" fill="#2F2E41"/>
<path d="M159.78 190.742L180.78 191.742C180.618 197.873 183.966 203.655 190.822 209.091L202.26 220.874L205.26 246.874L202.26 344.874L219.26 384.874C196.416 393.802 169.714 397.762 132.26 387.874C128.036 383.369 133.433 357.113 135.889 337.507C135.889 337.507 141.203 329.339 136.405 323.435C131.608 317.531 138.26 280.874 138.26 280.874L140.26 239.874C139.123 226.605 129.705 216.615 140.169 208.377C147.916 204.003 154.61 197.983 159.78 190.742Z" fill="#223D55"/>
<path d="M190.822 209.091L205.091 213.371L217.219 243.335L209.78 336.742C209.78 336.742 208.289 342.392 211.035 341.567C213.78 340.742 212.661 347.823 212.661 347.823L222.78 386.742L126.26 378.874L135.889 337.507C135.889 337.507 128.786 337.736 133.78 332.742C138.774 327.748 137.058 330.778 132.26 324.874C130.887 323.301 130.021 321.348 129.777 319.274C129.534 317.199 129.923 315.1 130.895 313.251L128.755 284L125.226 242.835C124.666 236.303 125.739 229.734 128.347 223.719C130.955 217.705 135.018 212.433 140.169 208.377C155.069 199.525 172.338 201.525 190.822 209.091Z" fill="#3F3D56"/>
<path d="M108.697 396.645C107.569 394.972 107.139 392.925 107.497 390.94C107.855 388.955 108.974 387.188 110.615 386.015C110.952 385.782 111.308 385.577 111.68 385.402L109.079 358.51L122.26 352.39L121.84 389.614C122.444 391.209 122.503 392.959 122.008 394.591C121.513 396.223 120.491 397.645 119.103 398.636C118.307 399.192 117.41 399.586 116.462 399.795C115.515 400.005 114.535 400.025 113.579 399.856C112.624 399.687 111.711 399.331 110.893 398.808C110.074 398.286 109.367 397.608 108.811 396.813C108.772 396.757 108.734 396.701 108.697 396.645Z" fill="#A0616A"/>
<path d="M99.2604 321.744L109.26 372.744L110.45 372.664L122.04 371.834L123.26 371.744L122.26 325.744C119.6 323.034 124.11 313.754 130.03 302.554C132.22 298.424 134.6 294.024 136.89 289.604C137.3 288.814 137.7 288.024 138.1 287.234C140.977 281.754 143.476 276.084 145.58 270.264L129.01 223.244L128.59 222.044C128.59 222.044 125.06 230.464 120.44 242.654C120.09 243.564 119.74 244.494 119.39 245.444C110.57 268.984 98.6804 304.244 99.2604 321.744Z" fill="#3F3D56"/>
<path d="M309.299 171.678C308.631 173.582 307.246 175.149 305.44 176.048C303.634 176.946 301.548 177.104 299.627 176.488C299.239 176.357 298.862 176.193 298.5 176L278.483 194.145L265.702 187.228L295.81 165.335C296.729 163.898 298.098 162.806 299.702 162.228C301.307 161.651 303.058 161.621 304.682 162.143C305.603 162.449 306.455 162.933 307.189 163.568C307.922 164.203 308.524 164.977 308.959 165.845C309.394 166.712 309.654 167.657 309.723 168.625C309.793 169.593 309.672 170.566 309.366 171.487C309.344 171.551 309.322 171.615 309.299 171.678Z" fill="#A0616A"/>
<path d="M157.371 259.993C157.371 259.993 187.083 252.644 214.618 242.912C215.345 242.659 216.06 242.399 216.775 242.139C232.438 236.509 247.107 230.145 254.851 223.974L289.793 185.496L289.018 184.595L281.421 175.798L280.626 174.872L244.332 203.143C243.752 206.806 234.064 208.733 221.928 210.625C221.248 210.736 220.531 211.15 219.851 210.939C208.43 207.392 195.532 213.251 185.904 217.572L157.371 259.993Z" fill="#3F3D56"/>
<path d="M171.228 187.546C185.099 187.546 196.344 176.301 196.344 162.43C196.344 148.56 185.099 137.315 171.228 137.315C157.358 137.315 146.113 148.56 146.113 162.43C146.113 176.301 157.358 187.546 171.228 187.546Z" fill="#A0616A"/>
<path d="M154.7 188.697C158.901 186.723 163.808 187.922 168.445 188.105C173.083 188.287 178.702 186.539 179.686 182.003C180.413 178.65 178.226 174.974 179.605 171.831C181.107 168.404 185.618 167.916 189.235 166.956C193.769 165.646 197.768 162.925 200.65 159.188C203.533 155.451 205.15 150.893 205.266 146.175C205.517 148.047 202.313 148.662 201.261 147.093C200.208 145.524 200.933 143.352 202.094 141.861C203.254 140.37 204.82 139.18 205.696 137.505C206.571 135.831 206.401 133.344 204.692 132.538C203.816 134.306 202.575 135.868 201.052 137.121C199.528 138.374 197.756 139.29 195.852 139.809C196.63 137.448 195.531 134.793 193.762 133.046C191.882 131.41 189.717 130.135 187.374 129.285C181.585 126.775 174.825 124.278 169.219 127.173C167.772 127.935 166.515 129.014 165.543 130.33C164.571 131.645 163.909 133.163 163.607 134.77C153.236 135.647 142.587 146.881 143.177 157.272C143.813 168.458 144.276 169.363 153.588 188.187" fill="#2F2E41"/>
<path d="M44.739 625.368L44.7455 625.072C44.8795 620.11 46.0924 615.237 48.2999 610.791C50.5074 606.346 53.6566 602.434 57.5285 599.328C59.7142 597.603 62.1084 596.161 64.6545 595.034L64.8974 594.926L64.9388 595.188C65.4319 598.321 66.2127 601.519 66.5765 602.938L69.015 593.423L69.2859 593.345C70.5284 592.98 71.8517 592.996 73.0852 593.39C74.3187 593.784 75.4059 594.538 76.2068 595.556C77.0425 596.574 77.5543 597.819 77.6762 599.13C77.7982 600.441 77.5247 601.759 76.891 602.914C76.3226 603.973 75.7639 605.078 75.2234 606.146C73.3666 609.818 71.4467 613.615 68.6489 616.564C66.5093 618.776 63.9025 620.482 61.0191 621.558C58.1357 622.634 55.0484 623.052 51.9828 622.781L44.739 625.368Z" fill="#F2F2F2"/>
<path d="M284.154 625.036L44.4043 625.343C44.0891 625.342 43.7871 625.216 43.5646 624.993C43.342 624.77 43.217 624.468 43.217 624.152C43.217 623.837 43.342 623.535 43.5646 623.312C43.7871 623.088 44.0891 622.963 44.4043 622.962L284.154 622.654C284.47 622.654 284.773 622.78 284.996 623.003C285.22 623.226 285.345 623.529 285.345 623.845C285.345 624.161 285.22 624.464 284.996 624.687C284.773 624.91 284.47 625.036 284.154 625.036Z" fill="#CACACA"/>
<g filter="url(#filter0_ddd_474_927)">
<rect x="285" y="89" width="199" height="54.3113" rx="11.032" fill="white"/>
</g>
<path d="M330.245 109.5H335.015C336.155 109.5 337.16 109.72 338.03 110.16C338.91 110.59 339.59 111.2 340.07 111.99C340.56 112.78 340.805 113.7 340.805 114.75C340.805 115.8 340.56 116.72 340.07 117.51C339.59 118.3 338.91 118.915 338.03 119.355C337.16 119.785 336.155 120 335.015 120H330.245V109.5ZM334.895 118.005C335.945 118.005 336.78 117.715 337.4 117.135C338.03 116.545 338.345 115.75 338.345 114.75C338.345 113.75 338.03 112.96 337.4 112.38C336.78 111.79 335.945 111.495 334.895 111.495H332.675V118.005H334.895ZM345.728 111.81C346.978 111.81 347.938 112.11 348.608 112.71C349.278 113.3 349.613 114.195 349.613 115.395V120H347.423V118.995C346.983 119.745 346.163 120.12 344.963 120.12C344.343 120.12 343.803 120.015 343.343 119.805C342.893 119.595 342.548 119.305 342.308 118.935C342.068 118.565 341.948 118.145 341.948 117.675C341.948 116.925 342.228 116.335 342.788 115.905C343.358 115.475 344.233 115.26 345.413 115.26H347.273C347.273 114.75 347.118 114.36 346.808 114.09C346.498 113.81 346.033 113.67 345.413 113.67C344.983 113.67 344.558 113.74 344.138 113.88C343.728 114.01 343.378 114.19 343.088 114.42L342.248 112.785C342.688 112.475 343.213 112.235 343.823 112.065C344.443 111.895 345.078 111.81 345.728 111.81ZM345.548 118.545C345.948 118.545 346.303 118.455 346.613 118.275C346.923 118.085 347.143 117.81 347.273 117.45V116.625H345.668C344.708 116.625 344.228 116.94 344.228 117.57C344.228 117.87 344.343 118.11 344.573 118.29C344.813 118.46 345.138 118.545 345.548 118.545ZM356.935 119.61C356.705 119.78 356.42 119.91 356.08 120C355.75 120.08 355.4 120.12 355.03 120.12C354.07 120.12 353.325 119.875 352.795 119.385C352.275 118.895 352.015 118.175 352.015 117.225V113.91H350.77V112.11H352.015V110.145H354.355V112.11H356.365V113.91H354.355V117.195C354.355 117.535 354.44 117.8 354.61 117.99C354.79 118.17 355.04 118.26 355.36 118.26C355.73 118.26 356.045 118.16 356.305 117.96L356.935 119.61ZM361.504 111.81C362.754 111.81 363.714 112.11 364.384 112.71C365.054 113.3 365.389 114.195 365.389 115.395V120H363.199V118.995C362.759 119.745 361.939 120.12 360.739 120.12C360.119 120.12 359.579 120.015 359.119 119.805C358.669 119.595 358.324 119.305 358.084 118.935C357.844 118.565 357.724 118.145 357.724 117.675C357.724 116.925 358.004 116.335 358.564 115.905C359.134 115.475 360.009 115.26 361.189 115.26H363.049C363.049 114.75 362.894 114.36 362.584 114.09C362.274 113.81 361.809 113.67 361.189 113.67C360.759 113.67 360.334 113.74 359.914 113.88C359.504 114.01 359.154 114.19 358.864 114.42L358.024 112.785C358.464 112.475 358.989 112.235 359.599 112.065C360.219 111.895 360.854 111.81 361.504 111.81ZM361.324 118.545C361.724 118.545 362.079 118.455 362.389 118.275C362.699 118.085 362.919 117.81 363.049 117.45V116.625H361.444C360.484 116.625 360.004 116.94 360.004 117.57C360.004 117.87 360.119 118.11 360.349 118.29C360.589 118.46 360.914 118.545 361.324 118.545ZM375.37 120.18C374.54 120.18 373.735 120.07 372.955 119.85C372.185 119.62 371.565 119.325 371.095 118.965L371.92 117.135C372.37 117.465 372.905 117.73 373.525 117.93C374.145 118.13 374.765 118.23 375.385 118.23C376.075 118.23 376.585 118.13 376.915 117.93C377.245 117.72 377.41 117.445 377.41 117.105C377.41 116.855 377.31 116.65 377.11 116.49C376.92 116.32 376.67 116.185 376.36 116.085C376.06 115.985 375.65 115.875 375.13 115.755C374.33 115.565 373.675 115.375 373.165 115.185C372.655 114.995 372.215 114.69 371.845 114.27C371.485 113.85 371.305 113.29 371.305 112.59C371.305 111.98 371.47 111.43 371.8 110.94C372.13 110.44 372.625 110.045 373.285 109.755C373.955 109.465 374.77 109.32 375.73 109.32C376.4 109.32 377.055 109.4 377.695 109.56C378.335 109.72 378.895 109.95 379.375 110.25L378.625 112.095C377.655 111.545 376.685 111.27 375.715 111.27C375.035 111.27 374.53 111.38 374.2 111.6C373.88 111.82 373.72 112.11 373.72 112.47C373.72 112.83 373.905 113.1 374.275 113.28C374.655 113.45 375.23 113.62 376 113.79C376.8 113.98 377.455 114.17 377.965 114.36C378.475 114.55 378.91 114.85 379.27 115.26C379.64 115.67 379.825 116.225 379.825 116.925C379.825 117.525 379.655 118.075 379.315 118.575C378.985 119.065 378.485 119.455 377.815 119.745C377.145 120.035 376.33 120.18 375.37 120.18ZM389.225 115.995C389.225 116.025 389.21 116.235 389.18 116.625H383.075C383.185 117.125 383.445 117.52 383.855 117.81C384.265 118.1 384.775 118.245 385.385 118.245C385.805 118.245 386.175 118.185 386.495 118.065C386.825 117.935 387.13 117.735 387.41 117.465L388.655 118.815C387.895 119.685 386.785 120.12 385.325 120.12C384.415 120.12 383.61 119.945 382.91 119.595C382.21 119.235 381.67 118.74 381.29 118.11C380.91 117.48 380.72 116.765 380.72 115.965C380.72 115.175 380.905 114.465 381.275 113.835C381.655 113.195 382.17 112.7 382.82 112.35C383.48 111.99 384.215 111.81 385.025 111.81C385.815 111.81 386.53 111.98 387.17 112.32C387.81 112.66 388.31 113.15 388.67 113.79C389.04 114.42 389.225 115.155 389.225 115.995ZM385.04 113.58C384.51 113.58 384.065 113.73 383.705 114.03C383.345 114.33 383.125 114.74 383.045 115.26H387.02C386.94 114.75 386.72 114.345 386.36 114.045C386 113.735 385.56 113.58 385.04 113.58ZM394.683 120.12C393.823 120.12 393.048 119.945 392.358 119.595C391.678 119.235 391.143 118.74 390.753 118.11C390.373 117.48 390.183 116.765 390.183 115.965C390.183 115.165 390.373 114.45 390.753 113.82C391.143 113.19 391.678 112.7 392.358 112.35C393.048 111.99 393.823 111.81 394.683 111.81C395.533 111.81 396.273 111.99 396.903 112.35C397.543 112.7 398.008 113.205 398.298 113.865L396.483 114.84C396.063 114.1 395.458 113.73 394.668 113.73C394.058 113.73 393.553 113.93 393.153 114.33C392.753 114.73 392.553 115.275 392.553 115.965C392.553 116.655 392.753 117.2 393.153 117.6C393.553 118 394.058 118.2 394.668 118.2C395.468 118.2 396.073 117.83 396.483 117.09L398.298 118.08C398.008 118.72 397.543 119.22 396.903 119.58C396.273 119.94 395.533 120.12 394.683 120.12ZM407.775 111.93V120H405.555V119.04C405.245 119.39 404.875 119.66 404.445 119.85C404.015 120.03 403.55 120.12 403.05 120.12C401.99 120.12 401.15 119.815 400.53 119.205C399.91 118.595 399.6 117.69 399.6 116.49V111.93H401.94V116.145C401.94 117.445 402.485 118.095 403.575 118.095C404.135 118.095 404.585 117.915 404.925 117.555C405.265 117.185 405.435 116.64 405.435 115.92V111.93H407.775ZM412.178 112.995C412.458 112.605 412.833 112.31 413.303 112.11C413.783 111.91 414.333 111.81 414.953 111.81V113.97C414.693 113.95 414.518 113.94 414.428 113.94C413.758 113.94 413.233 114.13 412.853 114.51C412.473 114.88 412.283 115.44 412.283 116.19V120H409.943V111.93H412.178V112.995ZM416.345 111.93H418.685V120H416.345V111.93ZM417.515 110.805C417.085 110.805 416.735 110.68 416.465 110.43C416.195 110.18 416.06 109.87 416.06 109.5C416.06 109.13 416.195 108.82 416.465 108.57C416.735 108.32 417.085 108.195 417.515 108.195C417.945 108.195 418.295 108.315 418.565 108.555C418.835 108.795 418.97 109.095 418.97 109.455C418.97 109.845 418.835 110.17 418.565 110.43C418.295 110.68 417.945 110.805 417.515 110.805ZM426.061 119.61C425.831 119.78 425.546 119.91 425.206 120C424.876 120.08 424.526 120.12 424.156 120.12C423.196 120.12 422.451 119.875 421.921 119.385C421.401 118.895 421.141 118.175 421.141 117.225V113.91H419.896V112.11H421.141V110.145H423.481V112.11H425.491V113.91H423.481V117.195C423.481 117.535 423.566 117.8 423.736 117.99C423.916 118.17 424.166 118.26 424.486 118.26C424.856 118.26 425.171 118.16 425.431 117.96L426.061 119.61ZM435.238 111.93L431.593 120.495C431.223 121.425 430.763 122.08 430.213 122.46C429.673 122.84 429.018 123.03 428.248 123.03C427.828 123.03 427.413 122.965 427.003 122.835C426.593 122.705 426.258 122.525 425.998 122.295L426.853 120.63C427.033 120.79 427.238 120.915 427.468 121.005C427.708 121.095 427.943 121.14 428.173 121.14C428.493 121.14 428.753 121.06 428.953 120.9C429.153 120.75 429.333 120.495 429.493 120.135L429.523 120.06L426.028 111.93H428.443L430.708 117.405L432.988 111.93H435.238Z" fill="#223D55"/>
<g filter="url(#filter1_ddd_474_927)">
<rect x="285" y="262" width="199" height="54.3113" rx="11.032" fill="#009BC0"/>
</g>
<path d="M346.695 293.152C345.865 293.152 345.06 293.042 344.28 292.822C343.51 292.592 342.89 292.297 342.42 291.937L343.245 290.107C343.695 290.437 344.23 290.702 344.85 290.902C345.47 291.102 346.09 291.202 346.71 291.202C347.4 291.202 347.91 291.102 348.24 290.902C348.57 290.692 348.735 290.417 348.735 290.077C348.735 289.827 348.635 289.622 348.435 289.462C348.245 289.292 347.995 289.157 347.685 289.057C347.385 288.957 346.975 288.847 346.455 288.727C345.655 288.537 345 288.347 344.49 288.157C343.98 287.967 343.54 287.662 343.17 287.242C342.81 286.822 342.63 286.262 342.63 285.562C342.63 284.952 342.795 284.402 343.125 283.912C343.455 283.412 343.95 283.017 344.61 282.727C345.28 282.437 346.095 282.292 347.055 282.292C347.725 282.292 348.38 282.372 349.02 282.532C349.66 282.692 350.22 282.922 350.7 283.222L349.95 285.067C348.98 284.517 348.01 284.242 347.04 284.242C346.36 284.242 345.855 284.352 345.525 284.572C345.205 284.792 345.045 285.082 345.045 285.442C345.045 285.802 345.23 286.072 345.6 286.252C345.98 286.422 346.555 286.592 347.325 286.762C348.125 286.952 348.78 287.142 349.29 287.332C349.8 287.522 350.235 287.822 350.595 288.232C350.965 288.642 351.15 289.197 351.15 289.897C351.15 290.497 350.98 291.047 350.64 291.547C350.31 292.037 349.81 292.427 349.14 292.717C348.47 293.007 347.655 293.152 346.695 293.152ZM356.545 293.092C355.685 293.092 354.91 292.917 354.22 292.567C353.54 292.207 353.005 291.712 352.615 291.082C352.235 290.452 352.045 289.737 352.045 288.937C352.045 288.137 352.235 287.422 352.615 286.792C353.005 286.162 353.54 285.672 354.22 285.322C354.91 284.962 355.685 284.782 356.545 284.782C357.395 284.782 358.135 284.962 358.765 285.322C359.405 285.672 359.87 286.177 360.16 286.837L358.345 287.812C357.925 287.072 357.32 286.702 356.53 286.702C355.92 286.702 355.415 286.902 355.015 287.302C354.615 287.702 354.415 288.247 354.415 288.937C354.415 289.627 354.615 290.172 355.015 290.572C355.415 290.972 355.92 291.172 356.53 291.172C357.33 291.172 357.935 290.802 358.345 290.062L360.16 291.052C359.87 291.692 359.405 292.192 358.765 292.552C358.135 292.912 357.395 293.092 356.545 293.092ZM364.763 284.782C366.013 284.782 366.973 285.082 367.643 285.682C368.313 286.272 368.648 287.167 368.648 288.367V292.972H366.458V291.967C366.018 292.717 365.198 293.092 363.998 293.092C363.378 293.092 362.838 292.987 362.378 292.777C361.928 292.567 361.583 292.277 361.343 291.907C361.103 291.537 360.983 291.117 360.983 290.647C360.983 289.897 361.263 289.307 361.823 288.877C362.393 288.447 363.268 288.232 364.448 288.232H366.308C366.308 287.722 366.153 287.332 365.843 287.062C365.533 286.782 365.068 286.642 364.448 286.642C364.018 286.642 363.593 286.712 363.173 286.852C362.763 286.982 362.413 287.162 362.123 287.392L361.283 285.757C361.723 285.447 362.248 285.207 362.858 285.037C363.478 284.867 364.113 284.782 364.763 284.782ZM364.583 291.517C364.983 291.517 365.338 291.427 365.648 291.247C365.958 291.057 366.178 290.782 366.308 290.422V289.597H364.703C363.743 289.597 363.263 289.912 363.263 290.542C363.263 290.842 363.378 291.082 363.608 291.262C363.848 291.432 364.173 291.517 364.583 291.517ZM370.766 281.842H373.106V292.972H370.766V281.842ZM378.532 284.782C379.782 284.782 380.742 285.082 381.412 285.682C382.082 286.272 382.417 287.167 382.417 288.367V292.972H380.227V291.967C379.787 292.717 378.967 293.092 377.767 293.092C377.147 293.092 376.607 292.987 376.147 292.777C375.697 292.567 375.352 292.277 375.112 291.907C374.872 291.537 374.752 291.117 374.752 290.647C374.752 289.897 375.032 289.307 375.592 288.877C376.162 288.447 377.037 288.232 378.217 288.232H380.077C380.077 287.722 379.922 287.332 379.612 287.062C379.302 286.782 378.837 286.642 378.217 286.642C377.787 286.642 377.362 286.712 376.942 286.852C376.532 286.982 376.182 287.162 375.892 287.392L375.052 285.757C375.492 285.447 376.017 285.207 376.627 285.037C377.247 284.867 377.882 284.782 378.532 284.782ZM378.352 291.517C378.752 291.517 379.107 291.427 379.417 291.247C379.727 291.057 379.947 290.782 380.077 290.422V289.597H378.472C377.512 289.597 377.032 289.912 377.032 290.542C377.032 290.842 377.147 291.082 377.377 291.262C377.617 291.432 377.942 291.517 378.352 291.517ZM389.305 284.782C390.055 284.782 390.735 284.957 391.345 285.307C391.965 285.647 392.45 286.132 392.8 286.762C393.15 287.382 393.325 288.107 393.325 288.937C393.325 289.767 393.15 290.497 392.8 291.127C392.45 291.747 391.965 292.232 391.345 292.582C390.735 292.922 390.055 293.092 389.305 293.092C388.195 293.092 387.35 292.742 386.77 292.042V292.972H384.535V281.842H386.875V285.757C387.465 285.107 388.275 284.782 389.305 284.782ZM388.9 291.172C389.5 291.172 389.99 290.972 390.37 290.572C390.76 290.162 390.955 289.617 390.955 288.937C390.955 288.257 390.76 287.717 390.37 287.317C389.99 286.907 389.5 286.702 388.9 286.702C388.3 286.702 387.805 286.907 387.415 287.317C387.035 287.717 386.845 288.257 386.845 288.937C386.845 289.617 387.035 290.162 387.415 290.572C387.805 290.972 388.3 291.172 388.9 291.172ZM394.892 281.842H397.232V292.972H394.892V281.842ZM399.403 284.902H401.743V292.972H399.403V284.902ZM400.573 283.777C400.143 283.777 399.793 283.652 399.523 283.402C399.253 283.152 399.118 282.842 399.118 282.472C399.118 282.102 399.253 281.792 399.523 281.542C399.793 281.292 400.143 281.167 400.573 281.167C401.003 281.167 401.353 281.287 401.623 281.527C401.893 281.767 402.028 282.067 402.028 282.427C402.028 282.817 401.893 283.142 401.623 283.402C401.353 283.652 401.003 283.777 400.573 283.777ZM403.915 281.842H406.255V292.972H403.915V281.842ZM408.427 284.902H410.767V292.972H408.427V284.902ZM409.597 283.777C409.167 283.777 408.817 283.652 408.547 283.402C408.277 283.152 408.142 282.842 408.142 282.472C408.142 282.102 408.277 281.792 408.547 281.542C408.817 281.292 409.167 281.167 409.597 281.167C410.027 281.167 410.377 281.287 410.647 281.527C410.917 281.767 411.052 282.067 411.052 282.427C411.052 282.817 410.917 283.142 410.647 283.402C410.377 283.652 410.027 283.777 409.597 283.777ZM418.143 292.582C417.913 292.752 417.628 292.882 417.288 292.972C416.958 293.052 416.608 293.092 416.238 293.092C415.278 293.092 414.533 292.847 414.003 292.357C413.483 291.867 413.223 291.147 413.223 290.197V286.882H411.978V285.082H413.223V283.117H415.563V285.082H417.573V286.882H415.563V290.167C415.563 290.507 415.648 290.772 415.818 290.962C415.998 291.142 416.248 291.232 416.568 291.232C416.938 291.232 417.253 291.132 417.513 290.932L418.143 292.582ZM427.32 284.902L423.675 293.467C423.305 294.397 422.845 295.052 422.295 295.432C421.755 295.812 421.1 296.002 420.33 296.002C419.91 296.002 419.495 295.937 419.085 295.807C418.675 295.677 418.34 295.497 418.08 295.267L418.935 293.602C419.115 293.762 419.32 293.887 419.55 293.977C419.79 294.067 420.025 294.112 420.255 294.112C420.575 294.112 420.835 294.032 421.035 293.872C421.235 293.722 421.415 293.467 421.575 293.107L421.605 293.032L418.11 284.902H420.525L422.79 290.377L425.07 284.902H427.32Z" fill="white"/>
<g filter="url(#filter2_ddd_474_927)">
<rect x="386" y="176" width="199" height="54.3113" rx="11.032" fill="#223D55"/>
</g>
<path d="M449.695 207.152C448.865 207.152 448.06 207.042 447.28 206.822C446.51 206.592 445.89 206.297 445.42 205.937L446.245 204.107C446.695 204.437 447.23 204.702 447.85 204.902C448.47 205.102 449.09 205.202 449.71 205.202C450.4 205.202 450.91 205.102 451.24 204.902C451.57 204.692 451.735 204.417 451.735 204.077C451.735 203.827 451.635 203.622 451.435 203.462C451.245 203.292 450.995 203.157 450.685 203.057C450.385 202.957 449.975 202.847 449.455 202.727C448.655 202.537 448 202.347 447.49 202.157C446.98 201.967 446.54 201.662 446.17 201.242C445.81 200.822 445.63 200.262 445.63 199.562C445.63 198.952 445.795 198.402 446.125 197.912C446.455 197.412 446.95 197.017 447.61 196.727C448.28 196.437 449.095 196.292 450.055 196.292C450.725 196.292 451.38 196.372 452.02 196.532C452.66 196.692 453.22 196.922 453.7 197.222L452.95 199.067C451.98 198.517 451.01 198.242 450.04 198.242C449.36 198.242 448.855 198.352 448.525 198.572C448.205 198.792 448.045 199.082 448.045 199.442C448.045 199.802 448.23 200.072 448.6 200.252C448.98 200.422 449.555 200.592 450.325 200.762C451.125 200.952 451.78 201.142 452.29 201.332C452.8 201.522 453.235 201.822 453.595 202.232C453.965 202.642 454.15 203.197 454.15 203.897C454.15 204.497 453.98 205.047 453.64 205.547C453.31 206.037 452.81 206.427 452.14 206.717C451.47 207.007 450.655 207.152 449.695 207.152ZM455.645 198.902H457.985V206.972H455.645V198.902ZM456.815 197.777C456.385 197.777 456.035 197.652 455.765 197.402C455.495 197.152 455.36 196.842 455.36 196.472C455.36 196.102 455.495 195.792 455.765 195.542C456.035 195.292 456.385 195.167 456.815 195.167C457.245 195.167 457.595 195.287 457.865 195.527C458.135 195.767 458.27 196.067 458.27 196.427C458.27 196.817 458.135 197.142 457.865 197.402C457.595 197.652 457.245 197.777 456.815 197.777ZM470.492 198.782C471.502 198.782 472.302 199.082 472.892 199.682C473.492 200.272 473.792 201.162 473.792 202.352V206.972H471.452V202.712C471.452 202.072 471.317 201.597 471.047 201.287C470.787 200.967 470.412 200.807 469.922 200.807C469.372 200.807 468.937 200.987 468.617 201.347C468.297 201.697 468.137 202.222 468.137 202.922V206.972H465.797V202.712C465.797 201.442 465.287 200.807 464.267 200.807C463.727 200.807 463.297 200.987 462.977 201.347C462.657 201.697 462.497 202.222 462.497 202.922V206.972H460.157V198.902H462.392V199.832C462.692 199.492 463.057 199.232 463.487 199.052C463.927 198.872 464.407 198.782 464.927 198.782C465.497 198.782 466.012 198.897 466.472 199.127C466.932 199.347 467.302 199.672 467.582 200.102C467.912 199.682 468.327 199.357 468.827 199.127C469.337 198.897 469.892 198.782 470.492 198.782ZM480.66 198.782C481.41 198.782 482.09 198.957 482.7 199.307C483.32 199.647 483.805 200.132 484.155 200.762C484.505 201.382 484.68 202.107 484.68 202.937C484.68 203.767 484.505 204.497 484.155 205.127C483.805 205.747 483.32 206.232 482.7 206.582C482.09 206.922 481.41 207.092 480.66 207.092C479.63 207.092 478.82 206.767 478.23 206.117V209.882H475.89V198.902H478.125V199.832C478.705 199.132 479.55 198.782 480.66 198.782ZM480.255 205.172C480.855 205.172 481.345 204.972 481.725 204.572C482.115 204.162 482.31 203.617 482.31 202.937C482.31 202.257 482.115 201.717 481.725 201.317C481.345 200.907 480.855 200.702 480.255 200.702C479.655 200.702 479.16 200.907 478.77 201.317C478.39 201.717 478.2 202.257 478.2 202.937C478.2 203.617 478.39 204.162 478.77 204.572C479.16 204.972 479.655 205.172 480.255 205.172ZM486.246 195.842H488.586V206.972H486.246V195.842ZM498.663 202.967C498.663 202.997 498.648 203.207 498.618 203.597H492.513C492.623 204.097 492.883 204.492 493.293 204.782C493.703 205.072 494.213 205.217 494.823 205.217C495.243 205.217 495.613 205.157 495.933 205.037C496.263 204.907 496.568 204.707 496.848 204.437L498.093 205.787C497.333 206.657 496.223 207.092 494.763 207.092C493.853 207.092 493.048 206.917 492.348 206.567C491.648 206.207 491.108 205.712 490.728 205.082C490.348 204.452 490.158 203.737 490.158 202.937C490.158 202.147 490.343 201.437 490.713 200.807C491.093 200.167 491.608 199.672 492.258 199.322C492.918 198.962 493.653 198.782 494.463 198.782C495.253 198.782 495.968 198.952 496.608 199.292C497.248 199.632 497.748 200.122 498.108 200.762C498.478 201.392 498.663 202.127 498.663 202.967ZM494.478 200.552C493.948 200.552 493.503 200.702 493.143 201.002C492.783 201.302 492.563 201.712 492.483 202.232H496.458C496.378 201.722 496.158 201.317 495.798 201.017C495.438 200.707 494.998 200.552 494.478 200.552ZM509.299 207.152C507.799 207.152 506.629 206.737 505.789 205.907C504.959 205.077 504.544 203.892 504.544 202.352V196.472H506.974V202.262C506.974 204.142 507.754 205.082 509.314 205.082C510.074 205.082 510.654 204.857 511.054 204.407C511.454 203.947 511.654 203.232 511.654 202.262V196.472H514.054V202.352C514.054 203.892 513.634 205.077 512.794 205.907C511.964 206.737 510.799 207.152 509.299 207.152ZM522.923 206.972L520.388 203.327L517.898 206.972H515.108L518.993 201.632L515.303 196.472H518.063L520.478 199.877L522.848 196.472H525.473L521.813 201.542L525.728 206.972H522.923Z" fill="white"/>
</g>
<defs>
<filter id="filter0_ddd_474_927" x="283.303" y="89" width="202.394" height="57.7057" filterUnits="userSpaceOnUse" color-interpolation-filters="sRGB">
<feFlood flood-opacity="0" result="BackgroundImageFix"/>
<feColorMatrix in="SourceAlpha" type="matrix" values="0 0 0 0 0 0 0 0 0 0 0 0 0 0 0 0 0 0 127 0" result="hardAlpha"/>
<feOffset dy="1.69723"/>
<feGaussianBlur stdDeviation="0.848614"/>
<feComposite in2="hardAlpha" operator="out"/>
<feColorMatrix type="matrix" values="0 0 0 0 0 0 0 0 0 0 0 0 0 0 0 0 0 0 0.25 0"/>
<feBlend mode="normal" in2="BackgroundImageFix" result="effect1_dropShadow_474_927"/>
<feColorMatrix in="SourceAlpha" type="matrix" values="0 0 0 0 0 0 0 0 0 0 0 0 0 0 0 0 0 0 127 0" result="hardAlpha"/>
<feOffset dy="1.69723"/>
<feGaussianBlur stdDeviation="0.848614"/>
<feComposite in2="hardAlpha" operator="out"/>
<feColorMatrix type="matrix" values="0 0 0 0 0 0 0 0 0 0 0 0 0 0 0 0 0 0 0.25 0"/>
<feBlend mode="normal" in2="effect1_dropShadow_474_927" result="effect2_dropShadow_474_927"/>
<feColorMatrix in="SourceAlpha" type="matrix" values="0 0 0 0 0 0 0 0 0 0 0 0 0 0 0 0 0 0 127 0" result="hardAlpha"/>
<feOffset dy="1.69723"/>
<feGaussianBlur stdDeviation="0.848614"/>
<feComposite in2="hardAlpha" operator="out"/>
<feColorMatrix type="matrix" values="0 0 0 0 0 0 0 0 0 0 0 0 0 0 0 0 0 0 0.25 0"/>
<feBlend mode="normal" in2="effect2_dropShadow_474_927" result="effect3_dropShadow_474_927"/>
<feBlend mode="normal" in="SourceGraphic" in2="effect3_dropShadow_474_927" result="shape"/>
</filter>
<filter id="filter1_ddd_474_927" x="283.303" y="262" width="202.394" height="57.7057" filterUnits="userSpaceOnUse" color-interpolation-filters="sRGB">
<feFlood flood-opacity="0" result="BackgroundImageFix"/>
<feColorMatrix in="SourceAlpha" type="matrix" values="0 0 0 0 0 0 0 0 0 0 0 0 0 0 0 0 0 0 127 0" result="hardAlpha"/>
<feOffset dy="1.69723"/>
<feGaussianBlur stdDeviation="0.848614"/>
<feComposite in2="hardAlpha" operator="out"/>
<feColorMatrix type="matrix" values="0 0 0 0 0 0 0 0 0 0 0 0 0 0 0 0 0 0 0.25 0"/>
<feBlend mode="normal" in2="BackgroundImageFix" result="effect1_dropShadow_474_927"/>
<feColorMatrix in="SourceAlpha" type="matrix" values="0 0 0 0 0 0 0 0 0 0 0 0 0 0 0 0 0 0 127 0" result="hardAlpha"/>
<feOffset dy="1.69723"/>
<feGaussianBlur stdDeviation="0.848614"/>
<feComposite in2="hardAlpha" operator="out"/>
<feColorMatrix type="matrix" values="0 0 0 0 0 0 0 0 0 0 0 0 0 0 0 0 0 0 0.25 0"/>
<feBlend mode="normal" in2="effect1_dropShadow_474_927" result="effect2_dropShadow_474_927"/>
<feColorMatrix in="SourceAlpha" type="matrix" values="0 0 0 0 0 0 0 0 0 0 0 0 0 0 0 0 0 0 127 0" result="hardAlpha"/>
<feOffset dy="1.69723"/>
<feGaussianBlur stdDeviation="0.848614"/>
<feComposite in2="hardAlpha" operator="out"/>
<feColorMatrix type="matrix" values="0 0 0 0 0 0 0 0 0 0 0 0 0 0 0 0 0 0 0.25 0"/>
<feBlend mode="normal" in2="effect2_dropShadow_474_927" result="effect3_dropShadow_474_927"/>
<feBlend mode="normal" in="SourceGraphic" in2="effect3_dropShadow_474_927" result="shape"/>
</filter>
<filter id="filter2_ddd_474_927" x="384.303" y="176" width="202.394" height="57.7057" filterUnits="userSpaceOnUse" color-interpolation-filters="sRGB">
<feFlood flood-opacity="0" result="BackgroundImageFix"/>
<feColorMatrix in="SourceAlpha" type="matrix" values="0 0 0 0 0 0 0 0 0 0 0 0 0 0 0 0 0 0 127 0" result="hardAlpha"/>
<feOffset dy="1.69723"/>
<feGaussianBlur stdDeviation="0.848614"/>
<feComposite in2="hardAlpha" operator="out"/>
<feColorMatrix type="matrix" values="0 0 0 0 0 0 0 0 0 0 0 0 0 0 0 0 0 0 0.25 0"/>
<feBlend mode="normal" in2="BackgroundImageFix" result="effect1_dropShadow_474_927"/>
<feColorMatrix in="SourceAlpha" type="matrix" values="0 0 0 0 0 0 0 0 0 0 0 0 0 0 0 0 0 0 127 0" result="hardAlpha"/>
<feOffset dy="1.69723"/>
<feGaussianBlur stdDeviation="0.848614"/>
<feComposite in2="hardAlpha" operator="out"/>
<feColorMatrix type="matrix" values="0 0 0 0 0 0 0 0 0 0 0 0 0 0 0 0 0 0 0.25 0"/>
<feBlend mode="normal" in2="effect1_dropShadow_474_927" result="effect2_dropShadow_474_927"/>
<feColorMatrix in="SourceAlpha" type="matrix" values="0 0 0 0 0 0 0 0 0 0 0 0 0 0 0 0 0 0 127 0" result="hardAlpha"/>
<feOffset dy="1.69723"/>
<feGaussianBlur stdDeviation="0.848614"/>
<feComposite in2="hardAlpha" operator="out"/>
<feColorMatrix type="matrix" values="0 0 0 0 0 0 0 0 0 0 0 0 0 0 0 0 0 0 0.25 0"/>
<feBlend mode="normal" in2="effect2_dropShadow_474_927" result="effect3_dropShadow_474_927"/>
<feBlend mode="normal" in="SourceGraphic" in2="effect3_dropShadow_474_927" result="shape"/>
</filter>
<clipPath id="clip0_474_927">
<rect width="654.26" height="625.368" fill="white"/>
</clipPath>
</defs>
</svg>
