<svg width="74" height="116" viewBox="0 0 74 116" fill="none" xmlns="http://www.w3.org/2000/svg">
<g clip-path="url(#clip0_228_592)">
<path d="M58.2709 93.3916C54.682 95.3168 51.7647 98.3751 49.9333 102.132C49.5253 102.934 49.2408 103.797 49.0901 104.691C48.9702 105.567 49.0769 106.461 49.3991 107.279C49.6849 108.048 50.0624 108.801 50.1643 109.629C50.2104 110.054 50.1701 110.484 50.046 110.892C49.9219 111.299 49.7168 111.675 49.4441 111.993C48.7846 112.806 47.8849 113.323 46.9883 113.796C45.9929 114.321 44.9509 114.851 44.2598 115.801C44.176 115.916 44.0101 115.773 44.0937 115.658C45.2962 114.006 47.414 113.645 48.8563 112.301C49.5293 111.674 50.0255 110.831 49.9696 109.861C49.9206 109.012 49.5319 108.236 49.2362 107.459C48.9106 106.666 48.7759 105.801 48.8438 104.941C48.9505 104.042 49.2027 103.168 49.5898 102.357C50.4335 100.517 51.5486 98.8275 52.8943 97.3498C54.4213 95.6543 56.2145 94.2444 58.1962 93.181C58.3189 93.1152 58.3928 93.3262 58.2709 93.3916H58.2709Z" fill="#223D55"/>
<path d="M50.4552 100.886C49.8939 100.479 49.4892 99.8771 49.3134 99.1872C49.1375 98.4973 49.202 97.7646 49.4953 97.1198C49.5551 96.9895 49.7515 97.0805 49.6917 97.2109C49.4175 97.8108 49.3575 98.4934 49.5225 99.1355C49.6875 99.7775 50.0666 100.337 50.5914 100.712C50.7054 100.794 50.5685 100.967 50.4552 100.886Z" fill="#223D55"/>
<path d="M49.205 106.909C50.5809 106.662 51.8172 105.881 52.6673 104.724C52.7514 104.609 52.9174 104.751 52.8333 104.866C51.9466 106.069 50.6585 106.878 49.2261 107.132C49.0895 107.156 49.0691 106.933 49.205 106.909V106.909Z" fill="#223D55"/>
<path d="M54.534 95.9276C54.7198 96.1323 54.9513 96.2855 55.2078 96.3736C55.4643 96.4616 55.7376 96.4817 56.0033 96.432C56.1395 96.4061 56.1598 96.6297 56.0245 96.6554C55.7306 96.7089 55.4288 96.6863 55.1452 96.5897C54.8616 96.4931 54.605 96.3254 54.3978 96.1012C54.3765 96.0818 54.3632 96.0546 54.3604 96.0253C54.3576 95.9959 54.3656 95.9666 54.3828 95.9432C54.401 95.9203 54.427 95.9058 54.4553 95.9029C54.4836 95.9 54.5119 95.9088 54.534 95.9276Z" fill="#223D55"/>
<path d="M44.0476 115.961H44.093V115.965L44.1038 115.961H46.9807C46.1233 115.808 45.2676 115.688 44.4102 115.861C44.3903 115.865 44.3721 115.868 44.3522 115.874C44.2652 115.891 44.1782 115.914 44.0911 115.939C44.0857 115.94 44.0785 115.942 44.073 115.944C44.0651 115.946 44.0577 115.95 44.0513 115.956C44.0466 115.956 44.0423 115.958 44.0386 115.961H44.0476Z" fill="#223D55"/>
<path d="M53.1943 112.176C54.4354 112.844 55.8719 112.999 57.2175 112.61C57.3508 112.571 57.4012 112.79 57.2681 112.828C55.8671 113.231 54.3725 113.066 53.0825 112.368C52.9596 112.301 53.0721 112.11 53.1943 112.176Z" fill="#223D55"/>
<path d="M63.7736 106.762C63.8041 107.042 63.9006 107.31 64.0547 107.542C64.2088 107.774 64.4155 107.962 64.6563 108.089C64.78 108.154 64.6673 108.346 64.5445 108.281C64.2791 108.139 64.051 107.931 63.8802 107.675C63.7095 107.42 63.6012 107.124 63.5648 106.815C63.5591 106.786 63.564 106.756 63.5787 106.731C63.5934 106.706 63.6167 106.687 63.6439 106.679C63.6716 106.672 63.7007 106.677 63.725 106.693C63.7493 106.708 63.7668 106.733 63.7736 106.762Z" fill="#223D55"/>
<path d="M57.5751 31.5111C57.624 25.2369 57.8681 18.9021 58.3074 12.5067C58.3147 12.3797 58.3237 12.2546 58.3328 12.1277C58.5648 8.79826 58.8489 5.45683 59.1848 2.1034V2.08445C59.1845 1.53172 58.9743 1.00172 58.6004 0.610886C58.2265 0.220048 57.7195 0.000329834 57.1908 0H3.71327C3.18629 0.00108232 2.68106 0.219742 2.30758 0.60837C1.93411 0.996998 1.72263 1.52412 1.71919 2.07497C1.25512 6.69297 0.891346 11.2882 0.627886 15.8607C0.617009 16.0104 0.609761 16.1582 0.60251 16.3079C0.471988 18.5686 0.368055 20.8236 0.290709 23.0729C0.28527 23.2056 0.279831 23.3382 0.278018 23.4709C-0.216909 37.2718 0.264797 51.092 1.71919 64.8187C1.723 65.3692 1.93466 65.8959 2.30811 66.2842C2.68156 66.6724 3.18657 66.8908 3.71327 66.8918H57.1908C57.7195 66.8914 58.2265 66.6717 58.6004 66.2809C58.9743 65.89 59.1845 65.36 59.1848 64.8073V64.7865C58.922 62.3477 58.6911 59.8931 58.4923 57.4227C58.4633 57.0607 58.4349 56.6988 58.4071 56.3369C58.2694 54.5575 58.1491 52.7712 58.0464 50.978C58.0246 50.616 58.0047 50.2541 57.9866 49.8922C57.7926 46.3031 57.6657 42.6863 57.6059 39.0417C57.5986 38.6797 57.5932 38.3197 57.5878 37.9559C57.566 36.1765 57.5594 34.3902 57.5678 32.5969C57.5678 32.235 57.5696 31.8731 57.5751 31.5111Z" fill="#F0F0F0"/>
<path d="M73.6864 14.2119C73.6861 13.6592 73.4759 13.1292 73.102 12.7383C72.7281 12.3475 72.2211 12.1278 71.6923 12.1274H18.2149C17.6879 12.1285 17.1827 12.3472 16.8092 12.7358C16.4357 13.1244 16.2242 13.6516 16.2208 14.2024C14.4152 32.1988 14.1161 49.8767 15.3253 66.8915C15.4721 68.9968 15.6437 71.0914 15.8401 73.1752C15.9452 74.2913 16.057 75.4043 16.1755 76.5141C16.19 76.6581 16.2045 76.8021 16.2208 76.9461C16.2246 77.4967 16.4363 78.0234 16.8097 78.4116C17.1832 78.7999 17.6882 79.0182 18.2149 79.0192H71.6923C72.2211 79.0189 72.7281 78.7991 73.102 78.4083C73.4759 78.0175 73.6861 77.4875 73.6864 76.9348V76.9139C71.5238 56.871 71.5238 35.7821 73.6864 14.2308V14.2119Z" fill="#223D55"/>
<path d="M73.6864 14.2119C73.6861 13.6592 73.4759 13.1292 73.102 12.7383C72.7281 12.3475 72.2211 12.1278 71.6923 12.1274H18.2149C17.6879 12.1285 17.1827 12.3472 16.8092 12.7358C16.4357 13.1244 16.2242 13.6516 16.2208 14.2024C14.4152 32.1988 14.1161 49.8767 15.3253 66.8915C15.4721 68.9968 15.6437 71.0914 15.8401 73.1752C15.9452 74.2913 16.057 75.4043 16.1755 76.5141C16.19 76.6581 16.2045 76.8021 16.2208 76.9461C16.2246 77.4967 16.4363 78.0234 16.8097 78.4116C17.1832 78.7999 17.6882 79.0182 18.2149 79.0192H71.6923C72.2211 79.0189 72.7281 78.7991 73.102 78.4083C73.4759 78.0175 73.6861 77.4875 73.6864 76.9348V76.9139C71.5238 56.871 71.5238 35.7821 73.6864 14.2308V14.2119ZM73.3239 76.9461C73.3206 77.3963 73.1474 77.827 72.8418 78.1443C72.5362 78.4616 72.1231 78.6398 71.6923 78.6402H18.2149C17.7824 78.6395 17.3678 78.4596 17.0619 78.1399C16.7561 77.8203 16.584 77.3869 16.5833 76.9348V76.9139C16.5707 76.7926 16.558 76.6694 16.5453 76.5482C16.4202 75.3885 16.3036 74.2256 16.1954 73.0596C16.0051 71.0149 15.8365 68.9589 15.6896 66.8915C14.4805 49.8862 14.7778 32.2196 16.5833 14.2308V14.2119C16.584 13.7598 16.7561 13.3264 17.0619 13.0067C17.3678 12.687 17.7824 12.5071 18.2149 12.5064H71.6923C72.1234 12.5066 72.537 12.685 72.8426 13.0028C73.1483 13.3205 73.3213 13.7518 73.3239 14.2024C71.1612 35.7707 71.1612 56.8824 73.3239 76.9461Z" fill="#E4E4E4"/>
<path d="M21.9015 31.511C21.764 31.5114 21.6322 31.5688 21.535 31.6706C21.4379 31.7724 21.3833 31.9103 21.3833 32.0541C21.3833 32.1979 21.4379 32.3359 21.535 32.4377C21.6322 32.5395 21.764 32.5969 21.9015 32.5973H65.3599C65.4975 32.5969 65.6293 32.5395 65.7264 32.4377C65.8236 32.3359 65.8781 32.1979 65.8781 32.0541C65.8781 31.9103 65.8236 31.7724 65.7264 31.6706C65.6293 31.5688 65.4975 31.5114 65.3599 31.511H21.9015Z" fill="white"/>
<path d="M21.9015 34.7703C21.7638 34.7705 21.6319 34.8279 21.5347 34.9297C21.4374 35.0315 21.3828 35.1695 21.3828 35.3134C21.3828 35.4573 21.4374 35.5953 21.5347 35.6971C21.6319 35.799 21.7638 35.8563 21.9015 35.8566H51.4038C51.5414 35.8563 51.6733 35.799 51.7706 35.6971C51.8678 35.5953 51.9224 35.4573 51.9224 35.3134C51.9224 35.1695 51.8678 35.0315 51.7706 34.9297C51.6733 34.8279 51.5414 34.7705 51.4038 34.7703H21.9015Z" fill="white"/>
<path d="M21.9015 37.9558C21.7638 37.9561 21.6319 38.0134 21.5347 38.1153C21.4374 38.2171 21.3828 38.3551 21.3828 38.499C21.3828 38.6428 21.4374 38.7808 21.5347 38.8827C21.6319 38.9845 21.7638 39.0419 21.9015 39.0421H65.3598C65.4975 39.0419 65.6294 38.9845 65.7266 38.8827C65.8239 38.7808 65.8785 38.6428 65.8785 38.499C65.8785 38.3551 65.8239 38.2171 65.7266 38.1153C65.6294 38.0134 65.4975 37.9561 65.3598 37.9558H21.9015Z" fill="white"/>
<path d="M21.9015 41.2151C21.764 41.2155 21.6322 41.2729 21.535 41.3747C21.4379 41.4765 21.3833 41.6144 21.3833 41.7582C21.3833 41.9021 21.4379 42.04 21.535 42.1418C21.6322 42.2436 21.764 42.301 21.9015 42.3014H51.4038C51.5414 42.301 51.6732 42.2436 51.7704 42.1418C51.8675 42.04 51.9221 41.9021 51.9221 41.7582C51.9221 41.6144 51.8675 41.4765 51.7704 41.3747C51.6732 41.2729 51.5414 41.2155 51.4038 41.2151H21.9015Z" fill="white"/>
<path d="M21.9015 49.8921C21.764 49.8925 21.6322 49.9499 21.535 50.0517C21.4379 50.1535 21.3833 50.2914 21.3833 50.4352C21.3833 50.5791 21.4379 50.717 21.535 50.8188C21.6322 50.9206 21.764 50.978 21.9015 50.9784H65.3599C65.4975 50.978 65.6293 50.9206 65.7264 50.8188C65.8236 50.717 65.8781 50.5791 65.8781 50.4352C65.8781 50.2914 65.8236 50.1535 65.7264 50.0517C65.6293 49.9499 65.4975 49.8925 65.3599 49.8921H21.9015Z" fill="white"/>
<path d="M21.9015 53.1512C21.7638 53.1515 21.6319 53.2089 21.5347 53.3107C21.4374 53.4125 21.3828 53.5505 21.3828 53.6944C21.3828 53.8383 21.4374 53.9763 21.5347 54.0781C21.6319 54.1799 21.7638 54.2373 21.9015 54.2376H51.4038C51.5414 54.2373 51.6733 54.1799 51.7706 54.0781C51.8678 53.9763 51.9224 53.8383 51.9224 53.6944C51.9224 53.5505 51.8678 53.4125 51.7706 53.3107C51.6733 53.2089 51.5414 53.1515 51.4038 53.1512H21.9015Z" fill="white"/>
<path d="M21.9015 56.3367C21.7638 56.3369 21.6319 56.3943 21.5347 56.4961C21.4374 56.5979 21.3828 56.7359 21.3828 56.8798C21.3828 57.0237 21.4374 57.1617 21.5347 57.2635C21.6319 57.3654 21.7638 57.4227 21.9015 57.423H65.3598C65.4975 57.4227 65.6294 57.3654 65.7266 57.2635C65.8239 57.1617 65.8785 57.0237 65.8785 56.8798C65.8785 56.7359 65.8239 56.5979 65.7266 56.4961C65.6294 56.3943 65.4975 56.3369 65.3598 56.3367H21.9015Z" fill="white"/>
<path d="M21.9015 59.5959C21.764 59.5963 21.6322 59.6537 21.535 59.7555C21.4379 59.8574 21.3833 59.9953 21.3833 60.1391C21.3833 60.2829 21.4379 60.4208 21.535 60.5227C21.6322 60.6245 21.764 60.6819 21.9015 60.6823H51.4038C51.5414 60.6819 51.6732 60.6245 51.7704 60.5227C51.8675 60.4208 51.9221 60.2829 51.9221 60.1391C51.9221 59.9953 51.8675 59.8574 51.7704 59.7555C51.6732 59.6537 51.5414 59.5963 51.4038 59.5959H21.9015Z" fill="white"/>
<path d="M30.5004 24.7668H22.1999C22.0924 24.7667 21.9894 24.722 21.9133 24.6426C21.8373 24.5631 21.7946 24.4554 21.7944 24.343V22.9528C21.7946 22.8404 21.8373 22.7327 21.9133 22.6532C21.9894 22.5738 22.0924 22.5291 22.1999 22.5289H30.5004C30.6079 22.5291 30.7109 22.5738 30.787 22.6532C30.863 22.7327 30.9057 22.8404 30.9059 22.9528V24.343C30.9057 24.4554 30.863 24.5631 30.787 24.6426C30.7109 24.722 30.6079 24.7667 30.5004 24.7668Z" fill="#223D55"/>
<path d="M59.3363 69.4833L56.7939 70.3616C56.3701 70.508 55.9464 70.6544 55.5226 70.8007C55.1302 70.9358 54.7055 71.0965 54.2854 71.0384C53.995 70.9982 53.664 70.8235 53.5736 70.5113C53.488 70.2158 53.6695 69.9067 53.8892 69.7319C54.496 69.2494 55.2631 69.7405 55.693 70.2401C56.2189 70.8513 56.5164 71.6403 57.0096 72.28C57.4486 72.8536 58.0052 73.317 58.6383 73.6359C59.8966 74.2569 61.4314 74.191 62.5538 73.2859C63.8939 72.2053 64.0306 70.3324 64.0378 68.6983C64.0353 68.6246 64.0056 68.5548 63.9549 68.5036C63.9041 68.4523 63.8364 68.4237 63.7658 68.4237C63.6953 68.4237 63.6275 68.4523 63.5768 68.5036C63.5261 68.5548 63.4964 68.6246 63.4939 68.6983C63.4875 70.1792 63.4069 71.9947 62.1151 72.9213C60.8777 73.809 59.2514 73.5735 58.1122 72.6277C57.4773 72.1007 57.0868 71.4134 56.67 70.7017C56.2631 70.0071 55.7579 69.3336 54.9922 69.0634C54.6638 68.9387 54.3043 68.9363 53.9745 69.0567C53.6446 69.1771 53.3647 69.4129 53.1819 69.7241C53.0984 69.871 53.0459 70.0348 53.0277 70.2046C53.0095 70.3744 53.0261 70.5462 53.0764 70.7088C53.1267 70.8713 53.2096 71.0208 53.3195 71.1472C53.4294 71.2737 53.5639 71.3742 53.7139 71.4421C54.6017 71.8843 55.6174 71.3661 56.4723 71.0708L59.4809 70.0315C59.8117 69.9172 59.67 69.368 59.3364 69.4833L59.3363 69.4833Z" fill="#223D55"/>
<path d="M51.8017 111.267L50.0188 111.881L46.9048 104.985L49.5361 104.079L51.8017 111.267Z" fill="#9F616A"/>
<path d="M53.0742 112.833L52.9528 112.448L52.6337 111.434L52.4162 110.745L51.8216 110.949L51.6983 110.94L50.065 110.824L49.8474 110.809L49.5248 110.786L49.1912 110.762L48.2594 112.177H48.2576C47.9093 112.296 47.587 112.485 47.3094 112.735C47.0319 112.985 46.8045 113.29 46.6406 113.632C46.6207 113.674 46.6025 113.716 46.5844 113.757C46.5394 113.859 46.5013 113.965 46.4702 114.072C46.3291 114.536 46.3029 115.031 46.3941 115.508C46.4175 115.627 46.4471 115.744 46.4829 115.859L46.4883 115.878L46.5101 115.948L46.6406 115.903L47.7863 115.508L51.7998 114.127L52.5956 113.852L52.8404 113.767H52.8422L53.3171 113.604L53.0742 112.833Z" fill="#2F2E41"/>
<path d="M34.9033 112.888L33.0263 112.888L32.1333 105.32L34.9036 105.32L34.9033 112.888Z" fill="#9F616A"/>
<path d="M31.8992 79.7114L31.0671 81.216C31.0671 81.216 30.1528 81.477 30.4516 84.5925C30.6626 86.7924 30.731 96.6425 31.2623 103.042C31.4834 105.705 31.7846 107.77 32.2097 108.438L32.4714 108.683L35.2027 108.956L35.2716 108.93L36.2745 101.526C36.4546 100.196 36.4276 98.8456 36.1947 97.5253L36.0134 95.4409L38.5283 84.8865C38.5283 84.8865 41.0893 91.651 42.7208 98.0938C43.1135 99.6448 44.6053 100.631 45.1709 101.962C45.3604 102.408 45.5466 102.84 45.7283 103.254C46.9245 105.984 47.5242 107.972 47.9779 108.137H48.3405L50.5158 107.379L50.9437 106.254L47.6153 96.0094L45.1229 79.4675C40.3739 76.7983 35.919 76.5013 31.8992 79.7114Z" fill="#223D55"/>
<path d="M45.5031 57.4226C45.3391 57.0451 45.1464 56.682 44.9267 56.3368C44.4244 55.5186 43.7264 54.8517 42.9018 54.4021L42.1875 54.2372L40.9077 53.9416L40.2333 53.1514L39.1275 51.8572H35.3207L34.8113 53.1514L34.3834 54.2372L34.2003 54.6996L30.9409 56.4032C30.9391 56.4032 30.9391 56.4032 30.9373 56.4051C30.9808 56.7461 31.0237 57.0853 31.066 57.4226C31.1585 58.156 31.2455 58.8805 31.3271 59.5962C31.3688 59.96 31.4086 60.3219 31.4467 60.682C31.5682 61.8113 31.6727 62.9212 31.7603 64.0114C31.8383 64.9854 31.9005 65.9455 31.947 66.8917C32.0604 69.0406 32.0689 71.1942 31.9724 73.344C31.947 73.85 32.4274 74.426 32.3894 74.9206C32.3259 75.7279 31.7295 76.4442 31.6244 77.2154C31.5591 77.6892 31.5881 78.1932 31.4739 78.6404C31.4422 78.7712 31.3946 78.8973 31.3325 79.0156C31.3325 79.0175 31.3307 79.0175 31.3307 79.0194C30.0255 81.4563 31.0497 80.2928 30.9283 80.8405L30.9863 80.8556C31.0135 80.8632 31.0968 80.8859 31.231 80.9181C31.9978 81.1095 35.1593 78.0075 37.2821 78.0075C38.5565 78.0075 41.9301 80.1981 43.0595 80.3572C43.9532 80.4823 44.7508 80.596 45.2258 80.1583C45.3636 80.0306 45.4689 79.8691 45.5321 79.6883L45.5376 79.6713L45.5358 79.6542L45.4904 79.0194L45.4633 78.6404L45.0753 73.2019C44.8587 72.9211 44.7217 72.5824 44.6801 72.2243C44.6384 71.8662 44.6937 71.5031 44.8396 71.1762L44.9194 71L44.6257 66.8917L44.5714 66.1242L44.5514 65.8646V65.8627L44.41 63.8787L44.7508 62.7948V62.7929L45.4143 60.682L45.7551 59.5962L45.969 58.914L45.9835 58.8685C45.8694 58.3712 45.7085 57.8869 45.5031 57.4226Z" fill="#223D55"/>
<path d="M48.8109 77.0181L45.1564 67.145L43.459 63.5399L46.7229 61.655L49.3516 66.4965L51.1138 76.612C51.3911 76.8099 51.6056 77.09 51.7295 77.4163C51.8534 77.7426 51.8812 78.1002 51.8092 78.4431C51.7373 78.786 51.5689 79.0986 51.3257 79.3407C51.0824 79.5828 50.7755 79.7434 50.4444 79.8018C50.1132 79.8602 49.7729 79.8138 49.4672 79.6685C49.1614 79.5232 48.9042 79.2856 48.7286 78.9863C48.553 78.6871 48.467 78.3398 48.4817 77.9891C48.4964 77.6383 48.611 77.3002 48.8109 77.0181H48.8109Z" fill="#9F616A"/>
<path d="M48.8846 63.4162L47.9492 62.7833L46.8742 60.6818L46.3195 59.596L45.9696 58.9138L45.8209 58.622L44.1405 57.4225L43.0057 56.6115L42.0811 57.4225L41.6406 57.8091L42.0721 59.596L42.3331 60.6818L42.9023 63.0372L44.5719 66.1241L44.9871 66.8916L45.2245 67.3331L45.2263 67.3369L45.259 67.3956L49.4774 67.2118L49.6097 67.2061L49.6169 66.8916L49.6206 66.7779C49.6224 66.721 49.6224 66.6642 49.6224 66.6073C49.6218 65.4975 49.3689 64.4038 48.8846 63.4162Z" fill="#223D55"/>
<path d="M16.957 73.0918L24.4331 65.9505L27.0314 62.9894L29.8956 65.4852L26.533 69.802L18.1543 75.1877C18.0784 75.5297 17.9065 75.8402 17.6606 76.0793C17.4146 76.3183 17.1059 76.4751 16.7741 76.5294C16.4423 76.5837 16.1026 76.533 15.7985 76.3839C15.4944 76.2348 15.24 75.9941 15.0678 75.6927C14.8956 75.3913 14.8135 75.0429 14.8322 74.6924C14.8508 74.3419 14.9693 74.0052 15.1724 73.7256C15.3755 73.446 15.6539 73.2362 15.9719 73.1233C16.2899 73.0103 16.6329 72.9994 16.957 73.0918H16.957Z" fill="#9F616A"/>
<path d="M32.3896 60.6818L32.375 59.596L32.3479 57.4225L32.337 56.5792L32.3061 56.5565C32.1373 56.4407 31.946 56.3657 31.746 56.3367C31.5701 56.3062 31.3907 56.3062 31.2149 56.3367C31.1222 56.3517 31.0307 56.3739 30.9411 56.403C30.9393 56.403 30.9393 56.403 30.9375 56.4049C30.4001 56.6066 29.9256 56.9578 29.5652 57.4206L29.5634 57.4225C29.0198 58.0985 28.5379 58.8261 28.124 59.596C27.9192 59.9598 27.7234 60.3275 27.5403 60.6818C26.8478 62.0291 26.3493 63.1964 26.3402 63.2173L24.27 66.0275L24.299 66.0786L24.754 66.8916L26.4218 69.8723L26.6865 70.3461L27.3627 69.969C28.1509 69.5294 28.7723 68.8223 29.1247 67.9641L29.3658 67.0015L29.4546 66.8916L31.7605 64.0112L32.4204 63.185L32.3896 60.6818Z" fill="#223D55"/>
<path d="M40.2907 48.1487C40.5994 46.16 39.3074 44.2862 37.405 43.9635C35.5025 43.6408 33.71 44.9913 33.4013 46.98C33.0926 48.9687 34.3845 50.8424 36.287 51.1651C38.1894 51.4879 39.982 50.1373 40.2907 48.1487Z" fill="#9F616A"/>
<path d="M33.4726 45.1729C33.3175 44.6054 33.0073 44.119 33.1624 44.119C33.3175 44.119 33.395 43.7137 33.395 43.7137C33.395 43.7137 33.5501 43.6326 33.6277 43.7137C33.7052 43.7947 33.7828 43.1462 33.7828 43.1462C33.7828 43.1462 33.8603 42.903 33.9379 43.0652C34.0154 43.2273 34.0154 43.1462 34.093 42.903C34.1705 42.6598 34.5583 42.4977 34.5583 42.4977C34.5583 42.4977 36.0318 42.5788 36.2644 42.2545C36.4971 41.9302 39.1338 42.1734 39.6766 42.5788C40.2195 42.9841 42.3582 43.7087 41.0893 45.9827C41.8144 47.3091 40.7318 49.675 40.4521 49.9557C40.0098 50.3996 39.7036 50.5596 37.6107 50.9949C37.2011 51.0801 36.1947 47.4986 36.1947 47.4986C36.1947 47.4986 33.6277 45.7403 33.4726 45.1729Z" fill="#132230"/>
<path d="M35.0171 112.592L34.9047 112.545L32.8853 111.684L32.5753 111.554L31.2665 112.592H31.2646C30.5252 112.593 29.8162 112.901 29.2935 113.447C28.7708 113.994 28.4769 114.735 28.4766 115.508V115.603H35.6425V112.592H35.0171Z" fill="#2F2E41"/>
<path d="M56.0795 115.734C56.0796 115.764 56.0741 115.793 56.0633 115.821C56.0525 115.848 56.0367 115.873 56.0167 115.894C55.9966 115.916 55.9728 115.932 55.9466 115.944C55.9203 115.955 55.8922 115.961 55.8637 115.961H19.0096C18.9521 115.961 18.897 115.938 18.8564 115.895C18.8158 115.853 18.793 115.795 18.793 115.735C18.793 115.675 18.8158 115.617 18.8564 115.575C18.897 115.532 18.9521 115.509 19.0096 115.509H55.8637C55.9209 115.509 55.9757 115.532 56.0161 115.575C56.0566 115.617 56.0793 115.674 56.0795 115.734Z" fill="#CCCCCC"/>
<path d="M18.031 0C17.7458 5.29961 15.8822 10.3733 12.7011 14.5106C9.52007 18.648 5.18083 21.6418 0.291011 23.0729C0.285573 23.2056 0.280133 23.3382 0.27832 23.4709C5.26944 22.0356 9.7032 18.9978 12.9536 14.7864C16.2041 10.5751 18.1069 5.40283 18.3936 0H18.031Z" fill="#223D55"/>
<path d="M12.4782 0C11.6357 3.34586 10.1507 6.4775 8.11339 9.20424C6.07613 11.931 3.52928 14.1958 0.627915 15.8607C0.617039 16.0104 0.60979 16.1582 0.602539 16.3079C3.60943 14.6189 6.24984 12.2984 8.35805 9.49203C10.4663 6.68565 11.9967 3.45403 12.8534 0H12.4782Z" fill="#223D55"/>
</g>
<defs>
<clipPath id="clip0_228_592">
<rect width="73.5903" height="115.965" fill="white" transform="translate(0.0966797)"/>
</clipPath>
</defs>
</svg>
