<svg width="66" height="68" viewBox="0 0 66 68" fill="none" xmlns="http://www.w3.org/2000/svg">
<path d="M32.7613 0C14.8709 0 0.315918 15.2146 0.315918 33.9158V47.967C0.315918 51.44 3.22627 54.2652 6.80499 54.2652H10.0495C10.91 54.2652 11.7353 53.9079 12.3438 53.2718C12.9522 52.6358 13.2941 51.7731 13.2941 50.8736V33.4308C13.2941 32.5313 12.9522 31.6686 12.3438 31.0326C11.7353 30.3965 10.91 30.0392 10.0495 30.0392H7.10349C8.90745 16.9138 19.7118 6.78315 32.7613 6.78315C45.8108 6.78315 56.6151 16.9138 58.4191 30.0392H55.473C54.6125 30.0392 53.7873 30.3965 53.1788 31.0326C52.5703 31.6686 52.2285 32.5313 52.2285 33.4308V54.2652C52.2285 58.0061 49.3181 61.0484 45.7394 61.0484H39.2504V57.6568H26.2722V67.8315H45.7394C52.8969 67.8315 58.7176 61.747 58.7176 54.2652C62.2963 54.2652 65.2066 51.44 65.2066 47.967V33.9158C65.2066 15.2146 50.6516 0 32.7613 0Z" fill="#223D55"/>
</svg>
