<svg width="32" height="33" viewBox="0 0 32 33" fill="none" xmlns="http://www.w3.org/2000/svg">
<circle cx="15.9017" cy="16.4295" r="15.257" stroke="white" stroke-width="1.28933"/>
<path d="M16.3315 9.12329C14.2285 9.12329 13.9664 9.13345 13.1434 9.16826C12.317 9.20888 11.758 9.33702 11.2648 9.52851C10.7485 9.7234 10.281 10.0285 9.89484 10.4226C9.49965 10.8079 9.19436 11.2757 9.00074 11.7925C8.80925 12.2858 8.68111 12.8448 8.64049 13.6712C8.60326 14.4946 8.59552 14.7563 8.59552 16.8592C8.59552 18.9622 8.60567 19.2243 8.64049 20.0473C8.68111 20.8713 8.80925 21.4327 9.00074 21.926C9.19562 22.4422 9.50075 22.9097 9.89484 23.2959C10.2801 23.6911 10.7479 23.9964 11.2648 24.19C11.758 24.3791 12.3194 24.5096 13.1434 24.5502C13.9669 24.5875 14.2285 24.5952 16.3315 24.5952C18.4345 24.5952 18.6966 24.585 19.5196 24.5502C20.3436 24.5096 20.905 24.3786 21.3982 24.19C21.9144 23.9951 22.3819 23.69 22.7681 23.2959C23.1638 22.911 23.4692 22.4431 23.6622 21.926C23.8513 21.4327 23.9818 20.8713 24.0225 20.0473C24.0597 19.2238 24.0674 18.9622 24.0674 16.8592C24.0674 14.7563 24.0573 14.4942 24.0225 13.6712C23.9818 12.8472 23.8508 12.2829 23.6622 11.7925C23.4673 11.2763 23.1622 10.8088 22.7681 10.4226C22.3832 10.0269 21.9153 9.72154 21.3982 9.52851C20.905 9.33702 20.3436 9.20888 19.5196 9.16826C18.6961 9.13103 18.4345 9.12329 16.3315 9.12329ZM16.3315 10.5159C18.3967 10.5159 18.6434 10.5261 19.4596 10.5609C20.2125 10.5962 20.6226 10.7219 20.8948 10.8283C21.2314 10.9526 21.536 11.1503 21.7865 11.4071C22.0429 11.6566 22.2399 11.9605 22.3629 12.2964C22.4693 12.5686 22.595 12.9787 22.6303 13.7316C22.6651 14.5478 22.6753 14.7949 22.6753 16.8597C22.6753 18.9245 22.6651 19.1716 22.6274 19.9879C22.5868 20.7408 22.4611 21.1508 22.3552 21.4231C22.2086 21.7862 22.0452 22.0401 21.7754 22.3147C21.524 22.57 21.2196 22.7668 20.8837 22.8911C20.6148 22.9975 20.199 23.1233 19.4432 23.1586C18.6226 23.1934 18.3808 23.2035 16.3102 23.2035C14.2396 23.2035 13.9983 23.1934 13.1767 23.1557C12.4238 23.115 12.0085 22.9893 11.7362 22.8834C11.3687 22.7369 11.1168 22.5734 10.847 22.3036C10.5747 22.0314 10.4016 21.7722 10.2681 21.4119C10.1598 21.1431 10.036 20.7272 9.9959 19.9714C9.96834 19.1605 9.95528 18.909 9.95528 16.8481C9.95528 14.7882 9.96834 14.5362 9.9959 13.7152C10.036 12.9594 10.1598 12.5445 10.2681 12.2746C10.4016 11.9066 10.5752 11.6552 10.847 11.383C11.1163 11.1136 11.3687 10.9395 11.7362 10.8032C12.0085 10.6973 12.4137 10.5715 13.1695 10.5338C13.9901 10.5043 14.2319 10.4937 16.2996 10.4937L16.3315 10.5159ZM16.3315 12.8888C15.8099 12.8886 15.2934 12.9912 14.8114 13.1907C14.3295 13.3902 13.8916 13.6827 13.5228 14.0515C13.154 14.4204 12.8615 14.8583 12.6619 15.3402C12.4624 15.8221 12.3598 16.3386 12.36 16.8602C12.3598 17.3818 12.4624 17.8983 12.6619 18.3803C12.8615 18.8622 13.154 19.3001 13.5228 19.6689C13.8916 20.0377 14.3295 20.3302 14.8114 20.5298C15.2934 20.7293 15.8099 20.8319 16.3315 20.8317C16.8531 20.8319 17.3696 20.7293 17.8515 20.5298C18.3334 20.3302 18.7713 20.0377 19.1401 19.6689C19.509 19.3001 19.8015 18.8622 20.001 18.3803C20.2005 17.8983 20.3031 17.3818 20.3029 16.8602C20.3031 16.3386 20.2005 15.8221 20.001 15.3402C19.8015 14.8583 19.509 14.4204 19.1401 14.0515C18.7713 13.6827 18.3334 13.3902 17.8515 13.1907C17.3696 12.9912 16.8531 12.8886 16.3315 12.8888ZM16.3315 19.439C14.9059 19.439 13.7527 18.2857 13.7527 16.8602C13.7527 15.4347 14.9059 14.2814 16.3315 14.2814C17.757 14.2814 18.9103 15.4347 18.9103 16.8602C18.9103 18.2857 17.757 19.439 16.3315 19.439ZM21.3914 12.7301C21.3912 12.9766 21.2931 13.2129 21.1187 13.387C20.9444 13.5612 20.708 13.6591 20.4615 13.6591C20.3397 13.6591 20.219 13.6351 20.1064 13.5884C19.9938 13.5418 19.8916 13.4734 19.8054 13.3873C19.7192 13.3011 19.6509 13.1988 19.6042 13.0862C19.5576 12.9736 19.5336 12.853 19.5336 12.7311C19.5336 12.6093 19.5576 12.4886 19.6042 12.376C19.6509 12.2634 19.7192 12.1611 19.8054 12.075C19.8916 11.9888 19.9938 11.9204 20.1064 11.8738C20.219 11.8272 20.3397 11.8032 20.4615 11.8032C20.9727 11.8032 21.3914 12.219 21.3914 12.7301Z" fill="white"/>
</svg>
