<svg width="32" height="33" viewBox="0 0 32 33" fill="none" xmlns="http://www.w3.org/2000/svg">
<circle cx="16.0983" cy="16.5701" r="15.257" stroke="white" stroke-width="1.28933"/>
<path d="M12.2554 24.7355H9.04771V14.4059H12.2554V24.7355ZM10.6498 12.9969C9.62411 12.9969 8.79214 12.1473 8.79214 11.1216C8.79214 10.6289 8.98786 10.1564 9.33624 9.80801C9.68462 9.45963 10.1571 9.26392 10.6498 9.26392C11.1425 9.26392 11.615 9.45963 11.9634 9.80801C12.3118 10.1564 12.5075 10.6289 12.5075 11.1216C12.5075 12.1473 11.6752 12.9969 10.6498 12.9969ZM24.2606 24.7355H21.0599V19.7071C21.0599 18.5087 21.0357 16.9719 19.3921 16.9719C17.7244 16.9719 17.4688 18.2739 17.4688 19.6208V24.7355H14.2646V14.4059H17.3411V15.815H17.386C17.8142 15.0034 18.8603 14.1469 20.4209 14.1469C23.6673 14.1469 24.2641 16.2846 24.2641 19.0613V24.7355H24.2606Z" fill="white"/>
</svg>
