<svg width="33" height="33" viewBox="0 0 33 33" fill="none" xmlns="http://www.w3.org/2000/svg">
<circle cx="16.3005" cy="16.4295" r="15.257" stroke="white" stroke-width="1.28933"/>
<path d="M24.4663 11.4711C24.0423 12.1028 23.5058 12.6653 22.8828 13.1152C22.8914 13.245 22.8914 13.3835 22.8914 13.5219C22.8914 17.7187 19.6984 22.5559 13.8661 22.5559C12.0749 22.5559 10.4049 22.028 8.99438 21.1281C9.24533 21.1541 9.49627 21.1714 9.75587 21.1714C11.2442 21.1714 12.6114 20.6608 13.6931 19.8128C13.0314 19.7991 12.3905 19.5791 11.86 19.1835C11.3294 18.7879 10.9356 18.2365 10.7337 17.6063C10.924 17.6409 11.1231 17.6668 11.3307 17.6668C11.6163 17.6668 11.9019 17.6236 12.1615 17.5543C11.4438 17.407 10.7988 17.0167 10.3354 16.4492C9.87195 15.8818 9.61838 15.1718 9.61741 14.4392V14.4046C10.0501 14.6382 10.5347 14.7853 11.0538 14.8026C10.6193 14.5111 10.2633 14.117 10.0172 13.6552C9.77123 13.1934 9.64282 12.678 9.64337 12.1547C9.64337 11.575 9.79913 11.0298 10.076 10.5626C11.6423 12.4836 13.9786 13.7469 16.6178 13.8767C16.5659 13.6431 16.5313 13.4008 16.5313 13.1499C16.5336 12.3091 16.8692 11.5036 17.4645 10.9099C18.0598 10.3162 18.8663 9.98278 19.707 9.98279C20.6243 9.98279 21.4463 10.3635 22.0261 10.9866C22.7443 10.8395 23.4279 10.5799 24.0423 10.2164C23.8 10.9519 23.2981 11.575 22.6405 11.9644C23.2709 11.8955 23.8869 11.7291 24.4663 11.4711Z" fill="white"/>
</svg>
