<svg width="190" height="74" viewBox="0 0 190 74" fill="none" xmlns="http://www.w3.org/2000/svg">
<path d="M21.9092 34.1534C21.57 33.7105 21.0691 33.42 20.5162 33.3455C19.9633 33.271 19.4034 33.4186 18.959 33.7559C18.6976 33.9621 18.4867 34.2253 18.3424 34.5253L0.22829 70.7639C-0.0282685 71.2774 -0.0704091 71.8718 0.111131 72.4164C0.29267 72.9611 0.683033 73.4113 1.19642 73.6682C1.4965 73.82 1.82826 73.8986 2.16454 73.8975H27.4021C27.8063 73.9079 28.2048 73.8001 28.5487 73.5874C28.8926 73.3747 29.167 73.0664 29.3383 72.7001C34.7853 61.4494 31.4835 44.3442 21.9092 34.1534Z" fill="url(#paint0_linear_116_12)"/>
<path d="M35.2235 1.1759C30.7079 8.12475 28.0762 16.1281 27.5867 24.4009C27.0971 32.6736 28.7666 40.9315 32.4313 48.3644L44.5991 72.7001C44.7788 73.0597 45.0552 73.3622 45.3972 73.5737C45.7391 73.7852 46.1332 73.8973 46.5353 73.8975H71.7678C72.0523 73.8982 72.3342 73.8426 72.5973 73.734C72.8603 73.6254 73.0993 73.4659 73.3005 73.2647C73.5018 73.0635 73.6612 72.8245 73.7698 72.5614C73.8784 72.2984 73.934 72.0165 73.9333 71.7319C73.9335 71.3963 73.8568 71.0651 73.7091 70.7638L56.3083 35.9648L38.9075 1.1657C38.7423 0.816956 38.4815 0.522268 38.1555 0.315909C37.8294 0.109549 37.4514 0 37.0655 0C36.6796 0 36.3017 0.109549 35.9756 0.315909C35.6495 0.522268 35.3887 0.816956 35.2235 1.1657V1.1759Z" fill="#2684FF"/>
<path d="M98.7618 47L97.4178 42.728H91.4658L90.1458 47H86.9298L92.5458 30.248H96.4818L102.05 47H98.7618ZM94.4898 33.128H94.3698L92.2338 40.016H96.6498L94.4898 33.128ZM107.887 47C106.831 47 106.023 46.728 105.463 46.184C104.919 45.624 104.647 44.832 104.647 43.808V36.92H102.799V34.472H103.759C104.223 34.472 104.535 34.368 104.695 34.16C104.871 33.936 104.959 33.608 104.959 33.176V31.04H107.719V34.472H110.287V36.92H107.719V44.552H110.095V47H107.887ZM116.024 47C114.968 47 114.192 46.736 113.696 46.208C113.2 45.68 112.952 44.936 112.952 43.976V29.24H116.024V44.552H117.68V47H116.024ZM129.222 47C128.55 47 128.014 46.808 127.614 46.424C127.23 46.024 126.99 45.496 126.894 44.84H126.75C126.542 45.656 126.118 46.272 125.478 46.688C124.838 47.088 124.046 47.288 123.102 47.288C121.822 47.288 120.838 46.952 120.15 46.28C119.462 45.608 119.118 44.712 119.118 43.592C119.118 42.296 119.582 41.336 120.51 40.712C121.438 40.072 122.758 39.752 124.47 39.752H126.606V38.84C126.606 38.136 126.422 37.592 126.054 37.208C125.686 36.824 125.094 36.632 124.278 36.632C123.558 36.632 122.974 36.792 122.526 37.112C122.094 37.416 121.726 37.784 121.422 38.216L119.598 36.584C120.062 35.864 120.678 35.288 121.446 34.856C122.214 34.408 123.23 34.184 124.494 34.184C126.19 34.184 127.478 34.568 128.358 35.336C129.238 36.104 129.678 37.208 129.678 38.648V44.552H130.926V47H129.222ZM124.134 45.056C124.822 45.056 125.406 44.904 125.886 44.6C126.366 44.296 126.606 43.848 126.606 43.256V41.6H124.638C123.038 41.6 122.238 42.112 122.238 43.136V43.544C122.238 44.056 122.398 44.44 122.718 44.696C123.054 44.936 123.526 45.056 124.134 45.056ZM137.517 47.288C136.317 47.288 135.309 47.088 134.493 46.688C133.677 46.272 132.957 45.704 132.333 44.984L134.205 43.16C134.669 43.688 135.173 44.104 135.717 44.408C136.277 44.712 136.917 44.864 137.637 44.864C138.373 44.864 138.901 44.736 139.221 44.48C139.557 44.224 139.725 43.872 139.725 43.424C139.725 43.056 139.605 42.768 139.365 42.56C139.141 42.336 138.749 42.184 138.189 42.104L136.941 41.936C135.581 41.76 134.541 41.376 133.821 40.784C133.117 40.176 132.765 39.296 132.765 38.144C132.765 37.536 132.877 36.992 133.101 36.512C133.325 36.016 133.645 35.6 134.061 35.264C134.477 34.912 134.973 34.648 135.549 34.472C136.141 34.28 136.797 34.184 137.517 34.184C138.125 34.184 138.661 34.232 139.125 34.328C139.605 34.408 140.037 34.536 140.421 34.712C140.805 34.872 141.157 35.08 141.477 35.336C141.797 35.576 142.109 35.848 142.413 36.152L140.613 37.952C140.245 37.568 139.805 37.248 139.293 36.992C138.781 36.736 138.221 36.608 137.613 36.608C136.941 36.608 136.453 36.728 136.149 36.968C135.861 37.208 135.717 37.52 135.717 37.904C135.717 38.32 135.837 38.64 136.077 38.864C136.333 39.072 136.757 39.224 137.349 39.32L138.621 39.488C141.325 39.872 142.677 41.104 142.677 43.184C142.677 43.792 142.549 44.352 142.293 44.864C142.053 45.36 141.709 45.792 141.261 46.16C140.813 46.512 140.269 46.792 139.629 47C139.005 47.192 138.301 47.288 137.517 47.288ZM149.329 47.288C148.129 47.288 147.121 47.088 146.305 46.688C145.489 46.272 144.769 45.704 144.145 44.984L146.017 43.16C146.481 43.688 146.985 44.104 147.529 44.408C148.089 44.712 148.729 44.864 149.449 44.864C150.185 44.864 150.713 44.736 151.033 44.48C151.369 44.224 151.537 43.872 151.537 43.424C151.537 43.056 151.417 42.768 151.177 42.56C150.953 42.336 150.561 42.184 150.001 42.104L148.753 41.936C147.393 41.76 146.353 41.376 145.633 40.784C144.929 40.176 144.577 39.296 144.577 38.144C144.577 37.536 144.689 36.992 144.913 36.512C145.137 36.016 145.457 35.6 145.873 35.264C146.289 34.912 146.785 34.648 147.361 34.472C147.953 34.28 148.609 34.184 149.329 34.184C149.937 34.184 150.473 34.232 150.937 34.328C151.417 34.408 151.849 34.536 152.233 34.712C152.617 34.872 152.969 35.08 153.289 35.336C153.609 35.576 153.921 35.848 154.225 36.152L152.425 37.952C152.057 37.568 151.617 37.248 151.105 36.992C150.593 36.736 150.033 36.608 149.425 36.608C148.753 36.608 148.265 36.728 147.961 36.968C147.673 37.208 147.529 37.52 147.529 37.904C147.529 38.32 147.649 38.64 147.889 38.864C148.145 39.072 148.569 39.224 149.161 39.32L150.433 39.488C153.137 39.872 154.489 41.104 154.489 43.184C154.489 43.792 154.361 44.352 154.105 44.864C153.865 45.36 153.521 45.792 153.073 46.16C152.625 46.512 152.081 46.792 151.441 47C150.817 47.192 150.113 47.288 149.329 47.288ZM158.738 32.648C158.098 32.648 157.634 32.504 157.346 32.216C157.074 31.928 156.938 31.56 156.938 31.112V30.632C156.938 30.184 157.074 29.816 157.346 29.528C157.634 29.24 158.098 29.096 158.738 29.096C159.362 29.096 159.818 29.24 160.106 29.528C160.394 29.816 160.538 30.184 160.538 30.632V31.112C160.538 31.56 160.394 31.928 160.106 32.216C159.818 32.504 159.362 32.648 158.738 32.648ZM157.202 34.472H160.274V47H157.202V34.472ZM173.051 47C172.379 47 171.843 46.808 171.443 46.424C171.059 46.024 170.819 45.496 170.723 44.84H170.579C170.371 45.656 169.947 46.272 169.307 46.688C168.667 47.088 167.875 47.288 166.931 47.288C165.651 47.288 164.667 46.952 163.979 46.28C163.291 45.608 162.947 44.712 162.947 43.592C162.947 42.296 163.411 41.336 164.339 40.712C165.267 40.072 166.587 39.752 168.299 39.752H170.435V38.84C170.435 38.136 170.251 37.592 169.883 37.208C169.515 36.824 168.923 36.632 168.107 36.632C167.387 36.632 166.803 36.792 166.355 37.112C165.923 37.416 165.555 37.784 165.251 38.216L163.427 36.584C163.891 35.864 164.507 35.288 165.275 34.856C166.043 34.408 167.059 34.184 168.323 34.184C170.019 34.184 171.307 34.568 172.187 35.336C173.067 36.104 173.507 37.208 173.507 38.648V44.552H174.755V47H173.051ZM167.963 45.056C168.651 45.056 169.235 44.904 169.715 44.6C170.195 44.296 170.435 43.848 170.435 43.256V41.6H168.467C166.867 41.6 166.067 42.112 166.067 43.136V43.544C166.067 44.056 166.227 44.44 166.547 44.696C166.883 44.936 167.355 45.056 167.963 45.056ZM177.241 47V34.472H180.313V36.56H180.433C180.689 35.888 181.089 35.328 181.633 34.88C182.193 34.416 182.961 34.184 183.937 34.184C185.233 34.184 186.225 34.608 186.913 35.456C187.601 36.304 187.945 37.512 187.945 39.08V47H184.873V39.392C184.873 38.496 184.713 37.824 184.393 37.376C184.073 36.928 183.545 36.704 182.809 36.704C182.489 36.704 182.177 36.752 181.873 36.848C181.585 36.928 181.321 37.056 181.081 37.232C180.857 37.392 180.673 37.6 180.529 37.856C180.385 38.096 180.313 38.384 180.313 38.72V47H177.241Z" fill="#4D4D4D"/>
<defs>
<linearGradient id="paint0_linear_116_12" x1="31.8809" y1="39.6921" x2="12.7528" y2="72.8224" gradientUnits="userSpaceOnUse">
<stop stop-color="#0052CC"/>
<stop offset="0.92" stop-color="#2684FF"/>
</linearGradient>
</defs>
</svg>
